<svg width="1075" height="257" viewBox="0 0 1075 257" fill="none" xmlns="http://www.w3.org/2000/svg">
<path fill-rule="evenodd" clip-rule="evenodd" d="M54.0001 162C54.0001 176.912 41.9121 189 27.0001 189C12.0881 189 0.00012207 176.912 0.00012207 162C0.00012207 147.088 12.0881 135 27.0001 135H54.0001V162Z" fill="#36C5F0"/>
<path fill-rule="evenodd" clip-rule="evenodd" d="M67.5001 162C67.5001 147.088 79.5881 135 94.5001 135C109.412 135 121.5 147.088 121.5 162V229.5C121.5 244.412 109.412 256.5 94.5001 256.5C79.5881 256.5 67.5001 244.412 67.5001 229.5V162Z" fill="#36C5F0"/>
<path fill-rule="evenodd" clip-rule="evenodd" d="M94.5001 54C79.5881 54 67.5001 41.912 67.5001 27C67.5001 12.088 79.5881 0 94.5001 0C109.412 0 121.5 12.088 121.5 27V54H94.5001Z" fill="#2EB67D"/>
<path fill-rule="evenodd" clip-rule="evenodd" d="M94.5001 67.5C109.412 67.5 121.5 79.588 121.5 94.5C121.5 109.412 109.412 121.5 94.5001 121.5H27.0001C12.0881 121.5 0.00012207 109.412 0.00012207 94.5C0.00012207 79.588 12.0881 67.5 27.0001 67.5H94.5001Z" fill="#2EB67D"/>
<path fill-rule="evenodd" clip-rule="evenodd" d="M202.5 94.5C202.5 79.588 214.588 67.5 229.5 67.5C244.412 67.5 256.5 79.588 256.5 94.5C256.5 109.412 244.412 121.5 229.5 121.5H202.5V94.5Z" fill="#ECB22E"/>
<path fill-rule="evenodd" clip-rule="evenodd" d="M189 94.5C189 109.412 176.912 121.5 162 121.5C147.088 121.5 135 109.412 135 94.5V27C135 12.088 147.088 0 162 0C176.912 0 189 12.088 189 27V94.5Z" fill="#ECB22E"/>
<path fill-rule="evenodd" clip-rule="evenodd" d="M162 202.5C176.912 202.5 189 214.588 189 229.5C189 244.412 176.912 256.5 162 256.5C147.088 256.5 135 244.412 135 229.5V202.5H162Z" fill="#E01E5A"/>
<path fill-rule="evenodd" clip-rule="evenodd" d="M162 189C147.088 189 135 176.912 135 162C135 147.088 147.088 135 162 135H229.5C244.412 135 256.5 147.088 256.5 162C256.5 176.912 244.412 189 229.5 189H162Z" fill="#E01E5A"/>
<path d="M444.636 114.182L409.182 116.364C408.576 113.333 407.273 110.606 405.273 108.182C403.273 105.697 400.636 103.727 397.364 102.273C394.152 100.758 390.303 100 385.818 100C379.818 100 374.758 101.273 370.636 103.818C366.515 106.303 364.455 109.636 364.455 113.818C364.455 117.152 365.788 119.97 368.455 122.273C371.121 124.576 375.697 126.424 382.182 127.818L407.455 132.909C421.03 135.697 431.152 140.182 437.818 146.364C444.485 152.545 447.818 160.667 447.818 170.727C447.818 179.879 445.121 187.909 439.727 194.818C434.394 201.727 427.061 207.121 417.727 211C408.455 214.818 397.758 216.727 385.636 216.727C367.152 216.727 352.424 212.879 341.455 205.182C330.545 197.424 324.152 186.879 322.273 173.545L360.364 171.545C361.515 177.182 364.303 181.485 368.727 184.455C373.152 187.364 378.818 188.818 385.727 188.818C392.515 188.818 397.97 187.515 402.091 184.909C406.273 182.242 408.394 178.818 408.455 174.636C408.394 171.121 406.909 168.242 404 166C401.091 163.697 396.606 161.939 390.545 160.727L366.364 155.909C352.727 153.182 342.576 148.455 335.909 141.727C329.303 135 326 126.424 326 116C326 107.03 328.424 99.303 333.273 92.8182C338.182 86.3333 345.061 81.3333 353.909 77.8182C362.818 74.303 373.242 72.5455 385.182 72.5455C402.818 72.5455 416.697 76.2727 426.818 83.7273C437 91.1818 442.939 101.333 444.636 114.182ZM510.932 27.8182V214H472.205V27.8182H510.932ZM581.773 216.636C572.864 216.636 564.924 215.091 557.955 212C550.985 208.848 545.47 204.212 541.409 198.091C537.409 191.909 535.409 184.212 535.409 175C535.409 167.242 536.833 160.727 539.682 155.455C542.53 150.182 546.409 145.939 551.318 142.727C556.227 139.515 561.803 137.091 568.045 135.455C574.348 133.818 580.955 132.667 587.864 132C595.985 131.152 602.53 130.364 607.5 129.636C612.47 128.848 616.076 127.697 618.318 126.182C620.561 124.667 621.682 122.424 621.682 119.455V118.909C621.682 113.152 619.864 108.697 616.227 105.545C612.652 102.394 607.561 100.818 600.955 100.818C593.985 100.818 588.439 102.364 584.318 105.455C580.197 108.485 577.47 112.303 576.136 116.909L540.318 114C542.136 105.515 545.712 98.1818 551.045 92C556.379 85.7576 563.258 80.9697 571.682 77.6364C580.167 74.2424 589.985 72.5455 601.136 72.5455C608.894 72.5455 616.318 73.4545 623.409 75.2727C630.561 77.0909 636.894 79.9091 642.409 83.7273C647.985 87.5455 652.379 92.4545 655.591 98.4545C658.803 104.394 660.409 111.515 660.409 119.818V214H623.682V194.636H622.591C620.348 199 617.348 202.848 613.591 206.182C609.833 209.455 605.318 212.03 600.045 213.909C594.773 215.727 588.682 216.636 581.773 216.636ZM592.864 189.909C598.561 189.909 603.591 188.788 607.955 186.545C612.318 184.242 615.742 181.152 618.227 177.273C620.712 173.394 621.955 169 621.955 164.091V149.273C620.742 150.061 619.076 150.788 616.955 151.455C614.894 152.061 612.561 152.636 609.955 153.182C607.348 153.667 604.742 154.121 602.136 154.545C599.53 154.909 597.167 155.242 595.045 155.545C590.5 156.212 586.53 157.273 583.136 158.727C579.742 160.182 577.106 162.152 575.227 164.636C573.348 167.061 572.409 170.091 572.409 173.727C572.409 179 574.318 183.03 578.136 185.818C582.015 188.545 586.924 189.909 592.864 189.909ZM753.545 216.727C739.242 216.727 726.939 213.697 716.636 207.636C706.394 201.515 698.515 193.03 693 182.182C687.545 171.333 684.818 158.848 684.818 144.727C684.818 130.424 687.576 117.879 693.091 107.091C698.667 96.2424 706.576 87.7879 716.818 81.7273C727.061 75.6061 739.242 72.5455 753.364 72.5455C765.545 72.5455 776.212 74.7576 785.364 79.1818C794.515 83.6061 801.758 89.8182 807.091 97.8182C812.424 105.818 815.364 115.212 815.909 126H779.364C778.333 119.03 775.606 113.424 771.182 109.182C766.818 104.879 761.091 102.727 754 102.727C748 102.727 742.758 104.364 738.273 107.636C733.848 110.848 730.394 115.545 727.909 121.727C725.424 127.909 724.182 135.394 724.182 144.182C724.182 153.091 725.394 160.667 727.818 166.909C730.303 173.152 733.788 177.909 738.273 181.182C742.758 184.455 748 186.091 754 186.091C758.424 186.091 762.394 185.182 765.909 183.364C769.485 181.545 772.424 178.909 774.727 175.455C777.091 171.939 778.636 167.727 779.364 162.818H815.909C815.303 173.485 812.394 182.879 807.182 191C802.03 199.061 794.909 205.364 785.818 209.909C776.727 214.455 765.97 216.727 753.545 216.727ZM875.795 173.818L875.886 127.364H881.523L926.25 74.3636H970.705L910.614 144.545H901.432L875.795 173.818ZM840.705 214V27.8182H879.432V214H840.705ZM927.977 214L886.886 153.182L912.705 125.818L973.341 214H927.977ZM989.705 214V74.3636H1027.25V98.7273H1028.7C1031.25 90.0606 1035.52 83.5151 1041.52 79.0909C1047.52 74.6061 1054.43 72.3636 1062.25 72.3636C1064.19 72.3636 1066.28 72.4848 1068.52 72.7273C1070.77 72.9697 1072.73 73.303 1074.43 73.7273V108.091C1072.61 107.545 1070.1 107.061 1066.89 106.636C1063.67 106.212 1060.73 106 1058.07 106C1052.37 106 1047.28 107.242 1042.8 109.727C1038.37 112.152 1034.86 115.545 1032.25 119.909C1029.7 124.273 1028.43 129.303 1028.43 135V214H989.705Z" fill="black"/>
</svg>