<svg width="2119" height="1826" viewBox="0 0 2119 1826" fill="none" xmlns="http://www.w3.org/2000/svg">
    <path fill-rule="evenodd" clip-rule="evenodd" d="M475.848 5.04524C465.77 6.71834 455.706 8.40442 444.798 8.40442C433.047 8.40442 420.467 6.71834 408.716 5.04524C413.748 56.2369 414.579 133.446 414.579 242.548C414.579 363.4 410.389 509.439 263.52 509.439C126.728 509.439 99.8672 426.342 99.8672 278.642C99.8672 176.246 101.54 78.065 109.945 5.04524C93.9919 6.71834 77.209 8.40442 61.2692 8.40442C44.4863 8.40442 16.7829 6.71834 0 5.04524C2.51613 40.2971 11.7376 108.272 11.7376 192.199V342.428C11.7376 490.127 95.665 554.756 239.175 554.756C384.359 554.756 463.254 475.031 464.084 316.41C464.94 193.029 469.972 63.7853 475.848 5.04524ZM979.399 10.0775C969.321 12.5936 959.257 14.2797 949.179 14.2797C939.115 14.2797 929.037 12.5936 918.96 10.0775C924.835 87.2865 924.835 267.722 924.835 398.639C819.936 289.537 678.928 135.962 560.605 5.87532C553.887 5.87532 545.495 6.70537 539.62 6.70537C533.745 6.70537 524.51 5.87532 519.478 5.87532C521.151 41.1271 522.837 102.383 522.837 186.311C522.837 316.397 511.93 515.289 506.054 544.678C516.962 542.162 527.882 540.476 538.777 540.476C548.842 540.476 559.762 542.162 570.67 544.678C567.31 515.289 563.951 411.232 563.951 316.397C563.951 246.737 564.781 190.513 566.467 146.87C692.365 280.303 819.08 417.108 931.54 549.71C936.573 548.037 944.134 548.037 949.166 548.037C955.042 548.037 962.59 548.037 968.465 549.71C967.622 476.704 966.792 349.976 968.465 266.879C969.321 200.59 974.354 85.6134 979.399 10.0775ZM1401.54 369.275C1401.54 201.433 1106.13 253.455 1106.13 124.211C1106.13 76.3789 1148.94 38.611 1210.18 38.611C1270.6 38.611 1302.49 72.1767 1317.61 108.272C1317.61 108.272 1326.83 83.9274 1334.38 72.1767C1344.46 57.067 1346.97 56.2369 1362.93 43.6433C1327.66 19.312 1277.3 0 1216.89 0C1103.61 0 1018 54.5508 1018 151.072C1018 329.834 1303.34 270.238 1303.34 400.325C1303.34 453.19 1250.45 509.426 1175.77 509.426C1100.24 509.426 1058.27 469.142 1044.84 428.015C1044.84 428.015 1037.3 452.359 1026.39 467.469C1012.12 486.768 1006.25 489.284 993.666 500.205C1026.39 524.536 1096.88 557.259 1164.04 557.259C1305.86 557.259 1400.71 501.878 1401.54 369.275ZM2118.25 10.0775C2107.33 12.5936 2098.11 14.2797 2088.03 14.2797C2078.81 14.2797 2068.73 12.5936 2059.51 10.0775C2046.08 74.6929 1968.03 335.696 1937.81 435.577H1936.14C1910.12 344.101 1823.67 86.4565 1806.07 10.0775C1795.99 12.5936 1785.92 14.2797 1775.85 14.2797C1764.93 14.2797 1754.87 12.5936 1744.78 10.0775C1725.48 86.4435 1644.93 327.305 1609.66 435.577H1608.83C1564.35 282.832 1529.1 155.274 1495.53 10.0775C1478.76 12.5936 1462.81 14.2797 1446.87 14.2797C1430.07 14.2797 1404.9 12.5936 1387.26 10.0775C1399.88 38.611 1446.02 165.339 1457.76 206.466C1498.9 338.226 1529.95 460.751 1551.77 544.691C1561.84 543.005 1573.58 540.489 1583.66 540.489C1595.41 540.489 1605.48 543.005 1616.38 544.691C1654.15 417.121 1722.98 220.732 1751.5 132.616H1753.18C1799.7 268.705 1842.24 406.121 1880.75 544.691C1891.67 543.005 1902.59 540.489 1913.47 540.489C1923.55 540.489 1934.47 543.005 1944.53 544.691C1981.46 417.951 2093.9 76.3789 2118.25 10.0775Z" fill="#0C0E0F"/>
    <path fill-rule="evenodd" clip-rule="evenodd" d="M867.781 1363.77C875.329 1352.88 861.063 1349.5 856.03 1350.35C857.703 1342.8 867.781 1336.08 875.329 1340.29C881.218 1336.92 886.25 1336.09 888.766 1343.64C891.282 1352.02 898.831 1352.89 905.549 1352.89C919.816 1352.89 926.534 1342.81 925.691 1331.05C925.691 1326.87 928.207 1317.62 931.566 1315.11C933.239 1313.41 917.299 1313.41 913.94 1301.68C907.222 1305.86 891.282 1307.56 886.25 1301.68C888.766 1300.85 898.831 1298.31 896.314 1291.61C892.955 1289.93 890.439 1289.93 886.25 1292.44C887.08 1287.39 895.484 1284.06 893.798 1282.38C893.798 1278.18 887.08 1279.86 884.564 1280.69C887.08 1278.18 888.766 1274.81 890.439 1270.63C887.08 1265.59 882.048 1265.59 875.329 1266.43C877.015 1261.39 886.25 1256.38 884.564 1252.17C882.048 1249.66 878.689 1251.34 875.329 1251.34C877.015 1251.34 877.015 1251.34 878.689 1249.66C879.532 1247.96 882.048 1245.46 883.721 1242.94C883.721 1240.41 878.688 1239.57 874.486 1240.41C879.532 1232.87 884.551 1231.19 893.785 1226.15C895.471 1223.62 893.785 1219.43 891.269 1219.43C886.237 1221.1 882.035 1218.6 881.205 1212.71C879.532 1211.88 879.532 1210.18 879.532 1209.34C882.048 1209.34 886.25 1210.17 887.08 1207.67C890.439 1206.84 890.439 1205.16 887.08 1202.62C884.564 1202.62 881.205 1203.45 878.689 1202.62C875.329 1200.95 878.688 1197.6 874.486 1197.6C865.265 1195.9 863.579 1184.15 868.611 1179.13C868.611 1177.43 877.002 1190.86 879.532 1181.64C878.688 1174.09 872.813 1169.89 866.108 1168.21C874.486 1159.83 886.25 1164.84 888.766 1168.21C891.282 1169.89 893.798 1168.21 895.484 1168.21C895.484 1167.38 898 1165.71 896.314 1163.17C895.484 1158.12 891.282 1158.12 887.08 1156.45C895.471 1149.73 908.065 1153.1 912.254 1163.17C914.77 1165.7 923.162 1164.84 921.489 1170.72C921.489 1176.59 916.443 1170.72 916.443 1197.59C917.287 1211.86 926.521 1228.63 929.037 1226.95C930.71 1224.45 933.226 1221.91 933.226 1218.57C933.226 1216.87 931.553 1218.57 930.71 1216.87C933.226 1207.65 935.743 1202.61 939.932 1195.9H934.056C935.73 1190.86 940.775 1185.85 944.121 1181.64C944.951 1179.96 938.246 1179.13 935.73 1177.43C938.246 1174.93 946.637 1168.21 944.951 1167.38C944.121 1164.85 942.435 1164.85 939.919 1162.34C942.435 1159.83 949.996 1158.13 951.669 1151.42C951.669 1149.74 949.153 1147.24 947.48 1147.24H956.715C961.258 1146.74 965.855 1147.32 970.138 1148.91C970.981 1147.24 970.138 1143.87 968.465 1141.36C976.857 1142.19 979.373 1141.36 980.216 1134.65C981.889 1134.65 982.732 1137.15 985.248 1137.15C993.64 1139.68 999.515 1143.87 1005.39 1149.74C1012.11 1144.7 1021.33 1144.7 1028.89 1146.4C1031.41 1144.7 1032.25 1144.7 1035.61 1144.7C1028.89 1153.1 1043.17 1153.95 1049.89 1149.74C1056.61 1158.12 1056.61 1164.84 1049.89 1172.41C1054.08 1174.92 1057.44 1182.47 1059.11 1181.64C1068.35 1169.89 1087.64 1165.7 1085.14 1158.13C1082.61 1149.76 1077.57 1149.76 1069.19 1149.76C1070.86 1146.41 1080.11 1144.71 1087.66 1144.71V1135.49C1101.92 1137.99 1107.8 1153.96 1116.18 1156.46C1124.58 1158.13 1134.65 1153.12 1140.52 1146.41H1141.35C1140.52 1163.18 1157.3 1149.76 1162.35 1153.13C1163.18 1165.72 1137.18 1170.73 1136.33 1176.62C1133.8 1184.16 1137.16 1185.86 1138.84 1188.37C1137.16 1188.37 1129.61 1189.2 1129.61 1193.41C1133.79 1200.13 1145.55 1195.92 1148.06 1192.58C1150.59 1184.18 1145.55 1181.66 1143.88 1179.99C1146.38 1179.16 1148.93 1182.49 1153.1 1179.16C1153.1 1176.63 1152.27 1174.96 1150.6 1174.11C1157.32 1176.62 1160.65 1179.16 1169.9 1177.46C1173.24 1176.63 1171.57 1172.44 1171.57 1170.74C1176.62 1172.44 1181.65 1176.62 1185.84 1179.15C1190.88 1177.45 1190.04 1172.43 1187.54 1167.39C1192.56 1165.72 1197.59 1179.99 1204.31 1182.49C1206.81 1182.49 1209.35 1179.99 1209.35 1176.62C1211.03 1176.62 1211.03 1179.15 1211.03 1179.15C1218.57 1211.87 1230.32 1181.65 1235.37 1185.86C1235.37 1185.86 1235.37 1186.69 1234.54 1186.69C1232.87 1189.2 1232.01 1195.07 1232.01 1198.44C1237.06 1218.59 1217.74 1221.93 1217.74 1223.59C1218.57 1268.08 1174.1 1268.08 1148.94 1262.2C1155.66 1279.83 1174.09 1279.83 1175.79 1292.42C1176.62 1296.63 1178.29 1310.05 1181.66 1312.57C1188.38 1317.61 1200.11 1310.89 1205.98 1307.55C1216.06 1307.55 1216.06 1313.4 1217.73 1315.09C1227.81 1316.77 1235.36 1310.89 1243.75 1308.38C1247.12 1310.05 1238.7 1319.27 1242.08 1319.27C1244.58 1319.27 1244.58 1317.6 1246.28 1317.6C1247.11 1322.64 1243.75 1327.68 1244.58 1331.02C1244.58 1331.85 1247.11 1333.55 1248.78 1333.55C1248.78 1336.05 1244.58 1334.38 1242.06 1340.27C1244.57 1342.77 1250.44 1341.1 1251.28 1341.1C1248.78 1346.12 1239.56 1351.99 1239.56 1354.52C1239.56 1355.35 1244.58 1355.35 1246.28 1355.35C1243.75 1359.55 1237.03 1360.4 1237.03 1363.73C1237.03 1364.56 1239.56 1366.26 1239.56 1366.26C1237.03 1369.61 1227.81 1372.11 1228.64 1375.48C1231.98 1376.31 1234.51 1378.01 1237.02 1378.85C1227.8 1385.57 1223.59 1387.23 1214.37 1387.23C1214.37 1390.58 1213.52 1393.11 1211 1396.45C1209.33 1397.28 1205.95 1401.5 1201.78 1401.5C1204.28 1393.12 1200.08 1385.56 1193.37 1385.56C1192.54 1385.56 1192.54 1387.23 1192.54 1388.06C1195.07 1396.44 1190.87 1404.86 1179.12 1402.33C1174.07 1409.05 1159.82 1409.05 1152.27 1401.5L1150.6 1399.83C1157.32 1399 1160.65 1399 1166.54 1396.45C1166.54 1393.11 1166.54 1392.28 1164.87 1389.74C1158.15 1389.74 1150.6 1392.26 1143.89 1396.45C1143.89 1387.23 1148.94 1375.48 1157.32 1375.48C1159.82 1368.76 1160.66 1369.61 1162.36 1367.1C1158.16 1364.57 1150.61 1362.06 1145.57 1363.73H1143.06C1148.94 1350.31 1158.16 1349.46 1166.55 1352.84C1169.08 1351.98 1173.27 1349.46 1175.8 1350.31C1180.85 1350.31 1180.85 1357.86 1185.02 1360.38C1190.07 1362.06 1195.94 1354.51 1195.94 1349.46C1195.94 1338.54 1180.85 1336.04 1169.09 1338.54C1160.69 1340.24 1153.14 1338.54 1146.42 1333.52C1140.45 1329.22 1134.85 1324.44 1129.65 1319.23C1127.95 1319.23 1127.95 1320.09 1127.95 1321.76C1127.12 1325.11 1122.94 1330.98 1127.95 1336.03C1132.16 1338.53 1140.55 1341.07 1140.55 1347.78C1140.55 1350.28 1140.55 1354.5 1136.37 1355.33C1133.84 1359.53 1127.97 1360.37 1127.12 1366.25C1127.12 1373.8 1127.95 1375.47 1132.17 1382.19C1127.97 1383.02 1120.42 1380.51 1116.22 1378.84C1113.71 1380.51 1110.37 1387.22 1108.67 1390.57C1104.49 1392.26 1103.65 1382.19 1101.95 1383.02C1101.12 1383.02 1095.23 1389.74 1096.9 1390.57C1094.4 1392.26 1091.89 1383.02 1091.89 1380.51C1086.84 1383.02 1085.17 1388.06 1085.17 1392.26C1082.64 1390.57 1080.97 1387.22 1080.12 1384.72H1078.45C1075.08 1389.74 1070.87 1390.57 1065 1389.74C1062.48 1389.74 1066.69 1384.72 1066.69 1383.02H1064.17C1061.65 1387.22 1047.39 1387.22 1047.39 1384.72C1050.75 1382.19 1054.95 1378 1054.1 1373.8C1052.43 1371.29 1050.75 1371.29 1049.92 1372.1C1044.87 1375.47 1042.35 1380.5 1036.48 1385.55C1031.45 1387.22 1027.26 1385.55 1024.73 1382.17C1017.17 1382.17 1010.46 1382.17 1003.74 1387.22H1002.9C1005.42 1373.8 1009.62 1371.28 1017.17 1368.75C1017.17 1366.25 1017.17 1362.03 1015.49 1360.37C1010.46 1357 1005.43 1357.84 999.554 1360.37C998.724 1357 1006.27 1342.75 1017.18 1347.78C1018.02 1347.78 1019.7 1346.08 1019.7 1345.25C1017.18 1336.87 1012.15 1336.87 1006.27 1338.53C1006.27 1330.98 1018.02 1321.76 1026.41 1327.64C1027.26 1326.81 1029.77 1325.11 1031.45 1325.11C1038.16 1324.28 1039.01 1330.98 1043.2 1333.51C1045.71 1334.34 1050.75 1336.01 1054.95 1340.23C1059.14 1346.08 1062.5 1346.08 1070.89 1347.78C1075.93 1347.78 1080.96 1347.78 1086.84 1346.08C1095.22 1343.58 1095.22 1331.81 1087.67 1330.98C1078.45 1329.31 1070.87 1333.51 1062.5 1330.98C1049.92 1327.64 1047.39 1324.26 1047.39 1308.34C1036.48 1313.36 1012.13 1321.76 1006.26 1322.6C1003.74 1326.81 998.711 1327.65 994.509 1327.65C991.992 1331 998.711 1338.54 999.541 1338.54C997.025 1341.07 979.399 1349.46 981.928 1350.29C981.928 1351.97 982.758 1351.97 984.444 1352.82C982.771 1354.5 977.726 1355.33 976.883 1357C976.883 1357.83 977.726 1359.53 979.399 1359.53C975.197 1362.03 970.164 1360.36 965.975 1364.55C963.459 1366.25 959.257 1367.08 954.224 1368.75C952.551 1371.28 955.898 1373.8 954.224 1375.47C934.082 1380.51 930.723 1369.59 925.691 1371.29C923.175 1372.1 919.816 1375.47 917.3 1378.01C918.973 1385.56 912.267 1397.28 904.719 1397.28C901.36 1396.45 907.222 1393.11 903.033 1388.06C903.033 1387.23 901.36 1387.23 900.517 1385.56C896.327 1385.56 898.014 1398.98 888.779 1397.28C887.093 1396.45 886.263 1394.78 884.577 1394.78C874.512 1401.5 870.31 1404 858.572 1394.78H857.729C877.028 1389.74 879.557 1371.29 853.54 1378.01H851.854C854.344 1367.14 861.063 1363.77 867.781 1363.77ZM1054.93 1216.9V1214.4C1062.48 1228.66 1078.44 1230.34 1092.7 1226.99C1117.88 1223.62 1153.12 1209.36 1175.79 1209.36C1183.34 1209.36 1201.8 1212.74 1201.8 1224.49C1201.8 1232.87 1199.28 1237.91 1193.4 1242.09C1185.85 1247.13 1166.55 1249.66 1158.16 1249.66C1153.12 1249.66 1132.14 1249.66 1127.94 1240.41C1124.6 1239.58 1119.56 1237.91 1113.67 1237.91C1095.21 1237.91 1075.06 1247.13 1059.12 1247.13C1054.93 1247.12 1054.09 1223.62 1054.93 1216.9ZM1095.21 1184.18C1103.61 1189.22 1108.63 1198.47 1117.88 1202.65C1119.55 1205.18 1097.73 1211.89 1090.16 1211.89C1075.89 1211.89 1071.72 1205.18 1071.72 1198.47C1071.73 1189.21 1085.15 1179.16 1095.21 1184.18ZM727.617 1144.74H903.02V1017.17H1175.79V1144.74H1352.02V1417.5H1175.79V1601.29L1040.67 1649.97L903.033 1601.29V1417.5H727.617V1144.74Z" fill="#D06332"/>
    <path fill-rule="evenodd" clip-rule="evenodd" d="M727.617 769.6H1352.02V1004.57H727.617V769.6Z" fill="#E0EBF2"/>
    <path fill-rule="evenodd" clip-rule="evenodd" d="M710.834 752.804V1511.48C710.834 1547.58 735.165 1556.8 756.15 1563.52L1040.66 1666.74L1323.49 1563.52C1344.46 1556.8 1369.65 1545.07 1369.65 1511.48V752.804H710.834ZM727.617 1427.56H892.955V1598.77L756.163 1547.58C741.897 1542.53 727.63 1530.78 727.63 1511.48L727.617 1427.56ZM1352.02 1427.56H1187.54V1598.77L1323.49 1547.58C1337.75 1542.53 1352.01 1530.78 1352.01 1511.48L1352.02 1427.56ZM1187.54 1017.17H1352.02V1132.99H1187.54V1017.17ZM727.617 1017.17H892.955V1132.99H727.617V1017.17ZM866.108 1363.77C875.33 1352.88 860.233 1349.5 854.357 1350.35C857.716 1342.8 867.781 1336.08 875.329 1340.3C881.218 1336.09 887.08 1336.09 888.766 1343.64C891.282 1352.02 898.831 1352.89 905.549 1352.89C918.973 1352.89 926.534 1342.81 924.018 1331.05C924.018 1326.87 926.534 1319.3 930.736 1315.11C931.566 1313.41 916.457 1313.41 913.953 1301.68C907.235 1305.86 890.452 1308.4 886.263 1301.68C887.093 1300.85 898.844 1296.64 896.327 1292.44C891.295 1289.93 890.452 1292.44 886.263 1292.44C886.263 1287.39 895.498 1284.06 893.811 1282.39C891.295 1278.18 887.093 1282.39 883.747 1282.39C886.263 1278.18 888.792 1274.81 888.792 1270.63C887.106 1265.59 881.231 1265.59 875.355 1266.43C874.525 1261.39 886.276 1256.38 883.747 1252.17C882.074 1251.34 878.715 1252.17 875.355 1251.34C875.355 1251.34 877.041 1251.34 877.041 1249.66C879.558 1247.96 882.074 1245.46 882.074 1242.94C882.074 1240.41 877.041 1240.41 874.512 1240.41C878.715 1231.19 884.577 1231.19 892.981 1226.15C893.811 1223.62 893.811 1221.1 891.308 1221.1C886.276 1221.1 882.074 1218.6 879.558 1212.72C879.558 1211.89 878.715 1210.2 879.558 1209.35C882.074 1209.35 884.59 1209.35 887.106 1207.68C890.465 1206.85 888.792 1205.18 887.106 1203.48C884.59 1202.65 881.231 1205.18 878.715 1202.65C874.512 1202.65 877.041 1197.63 872.839 1197.63C863.605 1195.93 863.605 1182.5 868.637 1177.46C868.637 1177.46 877.029 1189.21 878.715 1181.66C878.715 1174.11 871.996 1169.91 865.291 1168.24C872.852 1159.86 884.59 1164.87 888.792 1168.24C891.308 1169.91 892.981 1168.24 895.51 1168.24C895.51 1167.41 898.027 1165.74 896.341 1163.19C893.824 1158.15 891.308 1158.15 887.106 1156.47C893.824 1149.76 908.091 1153.13 913.966 1162.35C916.483 1165.72 923.201 1164.85 923.201 1170.73C923.201 1176.6 917.326 1170.73 917.326 1197.6C917.326 1211.87 926.56 1228.64 929.076 1226.97C930.749 1224.46 931.592 1221.92 933.265 1218.59C933.265 1218.59 930.749 1218.59 930.749 1216.89C931.579 1209.34 935.782 1202.62 939.971 1195.92H934.095C934.095 1190.87 939.971 1185.86 944.16 1181.65C944.16 1179.98 937.442 1179.98 935.769 1177.45C937.442 1174.94 944.99 1168.23 944.99 1167.4C942.474 1164.87 940.801 1164.87 939.958 1162.35C940.801 1159.85 949.192 1158.15 951.708 1151.43C951.708 1149.76 947.519 1147.25 946.676 1147.25C947.519 1146.42 951.708 1147.25 955.911 1147.25C964.302 1146.42 970.177 1147.25 970.177 1147.25C971.02 1146.42 968.504 1143.88 968.504 1141.38C975.223 1142.21 979.412 1141.38 980.255 1134.66C981.928 1134.66 982.771 1137.16 985.287 1137.16C992.005 1139.69 999.554 1143.88 1005.43 1149.76C1012.15 1144.71 1021.37 1144.71 1028.93 1144.71C1032.29 1143.88 1033.98 1144.71 1035.65 1144.71C1028.93 1153.12 1043.21 1153.12 1049.93 1148.91C1056.65 1158.13 1056.65 1164.85 1049.93 1172.41C1054.12 1174.92 1057.48 1182.47 1059.15 1181.64C1068.38 1169.89 1087.68 1165.7 1085.18 1158.13C1082.65 1149.76 1075.93 1149.76 1069.23 1149.76C1070.9 1144.71 1078.47 1144.71 1087.7 1144.71C1087.7 1141.36 1086.87 1137.99 1087.7 1135.49C1101.96 1137.99 1107.84 1153.96 1116.22 1155.63C1124.62 1156.46 1133.84 1151.43 1140.56 1146.41H1141.39C1140.56 1162.35 1157.34 1149.76 1162.39 1153.13C1163.22 1167.4 1138.89 1170.73 1136.37 1177.45C1133.84 1184.17 1138.88 1185.85 1140.55 1188.37C1138.88 1189.2 1129.65 1189.2 1130.5 1193.41C1134.67 1198.46 1145.59 1195.92 1146.44 1192.58C1150.64 1184.18 1143.93 1181.66 1143.93 1179.99C1145.61 1179.16 1148.98 1181.66 1152.31 1179.16C1153.14 1176.63 1150.64 1174.96 1150.64 1174.11C1155.68 1174.94 1160.69 1179.16 1169.94 1176.62C1173.28 1174.94 1169.94 1172.44 1171.61 1169.9C1176.66 1170.73 1181.69 1176.62 1185.88 1179.15C1190.08 1177.45 1188.41 1172.43 1187.58 1165.72C1192.6 1164.87 1197.63 1179.99 1204.35 1181.66C1206.85 1182.49 1209.39 1179.16 1209.39 1176.62C1211.06 1176.62 1211.06 1177.45 1211.06 1179.15C1220.31 1211.87 1230.36 1179.98 1235.41 1185.86C1237.08 1185.86 1235.41 1186.69 1235.41 1186.69C1232.91 1189.2 1232.04 1195.07 1232.91 1198.44C1238.76 1218.59 1217.78 1223.59 1218.61 1223.59C1220.31 1268.08 1174.13 1268.94 1150.65 1263.89C1157.37 1278.16 1174.14 1279.83 1175.83 1292.41C1176.66 1296.61 1178.33 1308.36 1181.7 1312.55C1188.42 1316.75 1200.14 1310.05 1206.02 1305.83C1216.1 1307.53 1216.1 1313.38 1217.77 1315.08C1227.85 1316.75 1235.4 1310.04 1244.62 1307.53C1247.15 1310.04 1239.6 1319.26 1243.79 1317.59C1244.62 1317.59 1244.62 1316.75 1246.32 1317.59C1247.15 1322.63 1243.79 1327.66 1244.62 1331.01C1246.32 1331.84 1247.15 1331.84 1250.49 1333.54C1248.82 1336.04 1246.32 1334.37 1243.77 1340.26C1244.6 1341.09 1250.49 1341.09 1253.02 1341.09C1250.49 1346.11 1241.27 1351.98 1239.6 1354.51C1241.27 1355.34 1244.62 1355.34 1246.32 1355.34C1246.32 1359.54 1238.74 1360.39 1237.07 1363.72C1238.74 1364.55 1239.6 1364.55 1241.27 1366.25C1238.74 1369.59 1227.85 1373.8 1230.35 1375.47C1232.02 1376.3 1234.55 1378 1237.07 1378.84C1228.69 1385.56 1223.65 1387.22 1214.42 1387.22C1214.42 1390.57 1214.42 1393.1 1211.05 1396.44C1209.38 1398.97 1204.33 1401.49 1200.13 1401.49C1202.66 1393.11 1200.13 1385.55 1193.41 1385.55C1193.41 1387.22 1192.58 1387.22 1192.58 1388.05C1195.11 1396.43 1190.91 1404.85 1179.16 1403.99C1174.11 1410.73 1158.19 1410.73 1150.64 1401.49V1398.98C1157.36 1398.98 1160.69 1398.98 1166.58 1396.45C1166.58 1393.11 1166.58 1392.28 1164.91 1390.58C1158.19 1389.75 1150.64 1393.11 1143.93 1396.45C1143.1 1387.23 1148.98 1375.48 1157.36 1375.48C1159.86 1367.1 1160.7 1369.61 1160.7 1367.1C1157.36 1364.57 1150.65 1363.73 1145.61 1363.73C1143.93 1363.73 1143.1 1364.56 1141.4 1363.73C1148.12 1350.31 1158.2 1349.46 1166.58 1352.84C1169.11 1350.31 1173.3 1347.79 1175.83 1349.46C1180.87 1349.46 1181.7 1357.84 1185.05 1360.39C1190.09 1362.06 1195.97 1354.51 1195.97 1349.46C1195.97 1338.54 1178.34 1336.87 1169.12 1338.54C1160.72 1340.24 1153.17 1338.54 1145.62 1333.52C1140.57 1329.32 1134.7 1325.12 1129.68 1320.1C1127.98 1319.25 1127.98 1320.1 1127.98 1321.77C1127.15 1325.12 1124.63 1331 1127.98 1336.04C1132.18 1338.54 1140.57 1341.09 1141.4 1347.79C1140.57 1350.29 1140.57 1354.51 1137.23 1357.01C1133.86 1359.54 1127.98 1362.06 1127.98 1367.09C1127.15 1373.81 1127.98 1375.47 1133.86 1382.19C1127.98 1384.72 1120.43 1382.19 1116.23 1380.51C1115.4 1380.51 1111.21 1388.06 1110.38 1390.57C1106.18 1392.26 1103.66 1382.19 1101.98 1383.02C1101.15 1384.72 1096.93 1389.74 1096.93 1392.26C1094.43 1393.09 1091.91 1383.02 1090.21 1382.19C1087.71 1384.72 1085.19 1388.06 1085.19 1392.26C1082.66 1390.57 1080.99 1388.06 1078.47 1385.55C1075.1 1389.72 1069.23 1392.26 1064.2 1390.57C1062.52 1389.74 1066.71 1385.55 1065.03 1384.72C1065.03 1383.02 1064.2 1384.72 1064.2 1384.72C1061.68 1388.06 1045.74 1388.06 1045.74 1384.72C1049.94 1382.19 1054.13 1378 1052.46 1373.8C1052.46 1371.29 1050.78 1372.1 1049.94 1372.1C1044.9 1375.47 1042.38 1382.17 1036.5 1385.55C1031.47 1388.05 1027.28 1387.22 1024.75 1383.02C1017.19 1382.19 1010.49 1382.19 1003.77 1388.06C1003.77 1387.23 1002.93 1387.23 1002.93 1387.23C1005.44 1373.81 1009.64 1371.29 1017.19 1368.76C1017.19 1366.26 1017.19 1363.72 1014.68 1360.39C1010.49 1357.86 1003.77 1359.56 999.567 1362.06C997.051 1359.56 1005.44 1341.09 1017.19 1347.79C1018.04 1347.79 1018.04 1346.09 1019.71 1345.26C1017.19 1336.88 1012.16 1336.88 1006.29 1340.24C1005.46 1329.32 1018.04 1321.77 1026.43 1326.82C1027.27 1325.12 1029.79 1325.12 1031.46 1324.29C1038.18 1324.29 1039.02 1331.01 1043.21 1333.54C1045.73 1334.37 1052.43 1336.04 1054.96 1340.26C1059.15 1346.11 1062.51 1346.11 1070.9 1347.8C1075.95 1347.8 1080.98 1347.8 1085.19 1346.11C1094.41 1343.6 1094.41 1331.84 1087.7 1331.84C1078.47 1331.01 1070.9 1333.54 1062.52 1331.01C1049.94 1327.66 1045.74 1324.29 1045.74 1310.04C1036.5 1313.38 1012.17 1321.79 1006.29 1322.63C1003.77 1326.83 999.567 1327.68 994.535 1329.35C992.018 1331.02 999.567 1338.57 999.567 1338.57C999.567 1341.1 980.268 1350.32 981.954 1350.32C982.784 1351.99 984.47 1351.99 985.313 1352.85C985.313 1355.35 977.752 1355.35 976.922 1357.03C977.765 1357.86 979.438 1359.56 980.281 1359.56C976.922 1363.73 970.203 1362.06 966.014 1366.27C963.498 1367.1 959.296 1368.78 955.937 1369.62C952.577 1371.32 956.78 1373.82 955.937 1375.5C934.121 1380.54 930.762 1371.32 925.717 1372.12C923.201 1372.12 919.842 1375.5 917.326 1378.02C918.999 1385.57 912.293 1399 903.059 1399C900.543 1396.47 905.575 1393.12 903.059 1388.08C903.059 1387.25 901.386 1387.25 900.543 1387.25C896.353 1387.25 898.04 1399.84 888.805 1397.3C887.119 1397.3 886.289 1394.79 884.603 1396.47C874.538 1401.51 868.663 1404.02 857.755 1394.79C877.054 1389.75 879.584 1371.31 851.88 1378.02C853.514 1367.14 860.22 1363.77 866.108 1363.77ZM1054.93 1216.9C1054.93 1215.23 1054.93 1215.23 1056.61 1215.23C1062.48 1230.32 1078.44 1231.18 1092.7 1228.65C1119.55 1224.48 1153.12 1209.35 1175.79 1209.35C1183.34 1209.35 1201.8 1212.72 1201.8 1224.48C1201.8 1232.85 1199.28 1237.9 1193.4 1242.08C1185.85 1247.12 1166.55 1249.65 1158.16 1249.65C1153.12 1249.65 1133.82 1247.95 1127.94 1240.4C1124.6 1237.9 1119.56 1236.2 1113.67 1236.2C1095.21 1236.2 1075.06 1247.12 1059.12 1247.12C1054.93 1247.12 1054.09 1223.62 1054.93 1216.9ZM1095.21 1184.18C1101.92 1189.22 1107.8 1198.47 1117.88 1203.48C1117.88 1205.18 1097.74 1211.88 1090.16 1211.88C1075.89 1211.88 1071.72 1205.16 1071.72 1198.46C1071.73 1190.88 1085.15 1179.16 1095.21 1184.18ZM727.617 1144.74H903.02V1017.17H1175.79V1144.74H1352.02V1417.5H1175.79V1601.29L1040.67 1649.97L903.033 1601.29V1417.5H727.617V1144.74Z" fill="#0C0E0F"/>
    <path fill-rule="evenodd" clip-rule="evenodd" d="M720.912 1617.24C720.912 1617.24 743.57 1607.16 759.523 1612.19L1039 1712.89L1310.08 1615.54C1337.77 1605.49 1358.74 1615.54 1358.74 1618.91V1725.51C1349.52 1720.46 1331.05 1713.76 1310.08 1722.14L1039 1816.14L769.6 1719.61C748.615 1712.89 732.662 1720.46 720.925 1724.65L720.912 1617.24Z" fill="#E7EEF3"/>
    <path fill-rule="evenodd" clip-rule="evenodd" d="M1341.94 1687.74C1333.56 1691.92 1320.97 1696.12 1312.58 1698.64H1310.08C1311.75 1694.46 1312.58 1689.42 1311.75 1685.21C1307.55 1677.66 1305.03 1668.44 1300.83 1659.2C1300 1654.99 1295.78 1654.15 1293.28 1651.65H1294.11C1302.49 1647.45 1314.25 1644.93 1321.8 1640.73C1324.33 1639.9 1326.85 1638.22 1330.21 1639.9C1331.04 1643.27 1335.22 1645.77 1335.22 1649.97C1331.05 1652.48 1328.51 1648.28 1326 1647.45C1320.96 1645.77 1314.25 1648.28 1309.21 1651.65C1307.53 1651.65 1309.21 1652.48 1309.21 1654.15C1310.06 1657.52 1311.74 1661.72 1312.58 1665.9C1318.45 1664.23 1324.33 1663.4 1326 1657.52C1326 1656.69 1326.83 1656.69 1328.51 1656.69C1331.04 1657.52 1330.21 1660.04 1331.04 1661.74C1331.04 1664.24 1333.54 1666.76 1333.54 1668.46C1330.19 1669.29 1326.82 1664.25 1323.49 1666.76C1320.96 1666.76 1318.44 1668.46 1315.91 1669.29C1316.77 1676 1318.44 1682.71 1321.79 1687.76C1326.83 1689.43 1337.74 1686.9 1340.26 1678.51C1341.93 1676 1340.26 1672.63 1342.79 1670.96C1344.46 1669.29 1345.29 1672.63 1345.29 1673.46C1345.3 1677.65 1346.98 1686.87 1341.94 1687.74ZM1286.56 1707.87C1285.73 1707.87 1281.52 1710.37 1277.31 1710.37C1277.31 1708.7 1279.01 1707.87 1279.01 1704.5C1281.52 1696.12 1271.44 1677.65 1267.26 1665.89C1263.06 1664.22 1258.88 1669.26 1258.02 1672.61C1255.51 1673.44 1256.34 1677.65 1253.84 1678.48C1250.47 1678.48 1253.01 1675.14 1251.31 1672.61C1250.48 1670.93 1248.81 1669.26 1248.81 1666.73C1248.81 1665.9 1277.33 1656.68 1288.25 1652.46C1291.62 1651.63 1291.62 1656.67 1294.12 1657.51C1294.12 1660.01 1297.5 1663.38 1294.12 1665.89C1291.62 1665.89 1291.62 1661.71 1289.08 1661.71C1285.73 1659.18 1281.53 1660.01 1277.33 1661.71C1274.82 1660.01 1276.5 1663.38 1276.5 1664.22C1279.87 1675.14 1284.07 1689.39 1289.09 1698.61C1290.79 1701.14 1294.14 1701.14 1295.81 1703.66C1294.11 1704.51 1290.76 1704.51 1286.56 1707.87ZM1250.47 1717.94C1238.72 1710.39 1225.29 1699.47 1213.53 1690.25C1213.53 1689.42 1211.86 1689.42 1211.86 1690.25C1217.73 1701.17 1218.57 1712.89 1226.15 1722.97C1227.82 1724.64 1232 1724.64 1230.33 1727.17C1227.82 1728.84 1225.28 1727.17 1222.78 1729.67C1220.27 1728.84 1217.73 1732.2 1216.06 1728.84C1220.26 1717.92 1213.53 1707.87 1211.01 1696.95C1209.34 1694.45 1208.51 1690.23 1206.81 1686.87C1201.79 1687.73 1199.26 1692.75 1197.59 1696.95C1195.92 1699.45 1195.09 1696.95 1193.39 1696.12C1190.88 1694.45 1188.37 1691.92 1185.01 1691.92C1180.77 1692.72 1176.76 1694.44 1173.26 1696.96C1174.09 1702.01 1175.79 1707.88 1178.3 1711.23C1178.3 1712.9 1179.13 1712.9 1180.83 1712.9C1183.34 1711.23 1188.38 1710.4 1190.05 1704.53H1190.88C1193.39 1707.9 1195.09 1711.24 1195.09 1713.77C1193.39 1715.45 1192.56 1712.92 1190.88 1713.77C1187.54 1713.77 1183.34 1715.45 1179.13 1717.12C1181.66 1722.99 1183.34 1728.87 1185.85 1733.91C1187.55 1736.42 1192.57 1736.42 1195.1 1734.74C1202.65 1732.24 1206.82 1724.67 1206.82 1717.12H1209.35C1211.86 1720.49 1211.86 1725.52 1213.53 1729.71C1213.53 1731.39 1213.53 1732.24 1211.86 1733.91C1201.8 1736.42 1193.39 1738.96 1183.34 1743.14C1181.66 1743.14 1179.13 1743.97 1176.62 1745.67C1175.79 1743.97 1175.79 1745.67 1175.79 1743.97C1174.09 1743.14 1175.79 1743.14 1175.79 1741.46C1179.13 1733.91 1174.09 1725.52 1169.91 1713.77C1169.08 1710.4 1166.54 1699.48 1160.66 1699.48C1159.83 1699.48 1159.83 1701.18 1159.83 1701.18V1703.68C1158.16 1703.68 1155.66 1703.68 1154.79 1704.51C1154.79 1704.51 1153.12 1704.51 1153.12 1706.19C1153.12 1711.23 1155.65 1715.43 1157.32 1720.48C1160.66 1728.86 1162.36 1739.78 1169.91 1745.65C1171.59 1746.48 1169.91 1746.48 1169.08 1748.16C1164.88 1749.83 1159.83 1749.83 1155.66 1752.36C1153.13 1750.66 1155.66 1746.48 1155.66 1743.95C1155.66 1739.78 1154.8 1734.73 1153.13 1729.69C1150.63 1724.64 1148.95 1719.61 1146.41 1712.89C1145.58 1715.42 1145.58 1719.61 1143.91 1722.14C1143.08 1731.36 1143.08 1741.44 1143.08 1750.66C1143.08 1752.36 1141.38 1752.36 1140.55 1752.36C1138.88 1752.36 1137.2 1750.66 1137.2 1749.83C1130.48 1743.11 1119.58 1728.86 1111.18 1722.98C1110.35 1722.15 1111.18 1725.51 1111.18 1727.18C1115.36 1736.4 1117.9 1746.48 1122.94 1754.87C1124.61 1757.38 1125.44 1758.25 1127.95 1759.92C1127.95 1761.59 1129.65 1761.59 1127.95 1761.59C1125.45 1762.42 1122.94 1762.42 1120.41 1764.1C1117.9 1764.1 1115.36 1767.47 1112.86 1764.95C1116.2 1758.23 1113.69 1750.66 1111.18 1743.95C1108.66 1736.4 1106.14 1729.69 1104.47 1722.98L1103.64 1722.15C1099.43 1724.65 1101.11 1727.2 1097.76 1731.37C1097.76 1732.23 1096.91 1732.23 1096.91 1732.23C1095.23 1729.7 1096.91 1727.18 1096.91 1724.65C1096.91 1720.48 1101.11 1715.43 1103.65 1713.76C1108.67 1712.9 1113.7 1712.9 1117.92 1717.11C1124.63 1722.98 1130.51 1731.37 1137.22 1737.25H1138.89C1138.89 1728.87 1140.56 1717.95 1141.39 1710.4C1143.09 1707.9 1143.92 1702.02 1148.11 1701.18C1150.64 1699.48 1153.15 1698.65 1155.68 1699.48C1157.36 1698.65 1159.86 1696.98 1160.7 1696.13C1171.62 1691.93 1180.87 1687.76 1190.92 1685.21L1192.6 1686.89C1193.43 1687.74 1193.43 1690.26 1195.97 1691.93C1195.97 1689.43 1197.64 1686.89 1200.14 1684.38C1204.35 1680.18 1211.9 1678.51 1217.77 1682.71C1225.32 1686.89 1241.27 1702.01 1247.16 1703.68C1246.33 1696.96 1242.11 1690.26 1239.61 1684.38C1238.76 1680.18 1235.41 1675.16 1232.04 1675.16C1230.36 1675.16 1230.36 1673.46 1230.36 1672.63C1235.57 1670.85 1240.9 1669.45 1246.32 1668.46C1247.15 1669.29 1244.62 1672.63 1244.62 1675.17C1246.32 1685.23 1248.82 1692.77 1253.02 1702.02C1253.85 1707.9 1256.37 1711.24 1258.04 1715.45C1258.87 1717.94 1253 1720.46 1250.47 1717.94ZM1080.95 1736.4C1080.12 1736.4 1075.08 1729.69 1069.2 1731.36C1066.69 1732.22 1061.65 1733.89 1061.65 1736.4C1065 1745.65 1066.69 1749.83 1069.2 1758.25C1070.87 1764.96 1075.92 1774.19 1080.12 1775.85C1080.95 1775.85 1080.95 1776.68 1080.95 1776.68C1077.58 1779.21 1071.73 1779.2 1068.36 1780.88C1066.69 1781.71 1064.16 1783.38 1061.64 1783.38C1059.97 1780.88 1064.16 1779.2 1064.16 1776.66C1064.16 1772.49 1062.48 1769.11 1059.12 1758.22C1057.45 1753.17 1054.09 1739.75 1052.41 1738.92C1047.37 1738.92 1042.33 1739.75 1040.66 1745.64C1038.98 1746.47 1038.14 1749.82 1038.14 1752.36H1033.95C1032.26 1746.48 1032.26 1741.44 1027.23 1737.23C1026.39 1736.4 1019.67 1734.73 1015.48 1733.89C1010.45 1732.22 1012.12 1738.93 1010.45 1741.44C1009.61 1743.94 1005.42 1748.16 1010.45 1750.66C1014.64 1752.36 1018.01 1753.19 1023.87 1752.36C1024.72 1753.19 1024.72 1754.86 1024.72 1755.7C1023.87 1758.23 1023.87 1761.58 1021.36 1762.42C1018 1761.59 1018 1758.25 1015.48 1757.38C1012.96 1755.7 1010.45 1754.87 1007.92 1753.2H1005.4C1003.73 1759.92 999.528 1766.62 1001.2 1771.67C1002.87 1774.17 1010.44 1776.69 1012.95 1778.39C1019.67 1779.22 1026.39 1776.69 1029.73 1772.51C1031.41 1771.68 1032.25 1769.98 1033.94 1772.51V1774.19C1031.42 1778.39 1028.89 1785.11 1023.86 1785.94C1012.95 1781.73 996.999 1776.69 985.261 1771.67C984.418 1769.97 985.261 1769.97 985.261 1769.97C991.98 1769.97 996.999 1753.2 998.685 1749.83C999.515 1741.45 1002.87 1737.23 1002.87 1731.36C1002.87 1728.86 999.515 1727.18 999.515 1724.64C1003.72 1724.64 1007.91 1727.17 1012.94 1728.84C1017.98 1729.67 1023.85 1732.22 1028.88 1733.89C1032.24 1734.72 1036.44 1737.23 1042.3 1736.39C1054.9 1732.22 1066.65 1727.17 1078.41 1722.97C1080.91 1727.17 1085.13 1734.72 1083.43 1736.39H1080.95V1736.4ZM976.883 1717.94C972.694 1717.94 971.008 1722.98 970.165 1725.51C966.805 1729.69 965.975 1733.89 964.289 1738.93C961.773 1745.65 959.257 1753.2 952.539 1755.7C950.023 1757.38 947.506 1757.38 944.977 1757.38C937.429 1757.38 923.162 1752.36 921.476 1743.11C919.79 1736.39 923.992 1729.69 926.508 1722.97C928.181 1717.09 933.227 1710.37 930.711 1702C929.037 1702 929.037 1701.17 929.037 1699.47C930.711 1698.64 933.227 1699.47 933.227 1699.47C937.429 1702 940.788 1703.67 944.977 1704.51C946.65 1704.51 950.023 1704.51 949.18 1707.88C946.663 1708.71 942.461 1710.39 939.945 1713.76C935.756 1722.14 933.227 1731.36 930.724 1739.78C929.05 1743.95 931.554 1748.16 935.756 1750.67C938.272 1753.2 944.147 1753.2 947.506 1753.2C955.898 1752.37 959.257 1734.73 961.773 1728.86C963.446 1722.98 965.975 1717.94 961.773 1713.76C961.773 1712.9 961.773 1711.23 963.446 1711.23C966.805 1712.9 972.681 1715.43 976.87 1717.11C977.726 1717.09 977.726 1717.94 976.883 1717.94ZM923.175 1699.47C914.784 1703.67 912.268 1712.89 909.738 1722.14C907.222 1727.18 904.706 1732.22 901.347 1737.23C901.347 1738.93 901.347 1739.76 900.504 1741.44C898.831 1741.44 896.315 1741.44 895.472 1739.76C895.472 1739.76 893.786 1738.93 893.786 1737.23C891.65 1730.08 889.969 1722.79 888.753 1715.42C888.753 1710.37 887.067 1703.67 886.237 1698.62C886.237 1696.95 884.551 1692.75 883.721 1692.75C879.532 1699.47 878.689 1704.5 875.33 1711.22C874.5 1717.09 871.983 1724.64 872.827 1727.17C874.5 1728.84 875.33 1729.67 874.5 1731.35C872.826 1733.88 871.984 1731.35 868.624 1729.67C865.278 1729.67 862.749 1728.84 860.246 1727.17C860.246 1725.5 861.076 1724.64 862.762 1724.64C867.794 1722.14 870.323 1713.75 871.996 1708.7C874.513 1701.98 875.343 1698.62 878.715 1691.91C879.558 1690.23 879.558 1687.73 878.715 1687.73C875.356 1686.87 872.839 1687.73 870.323 1690.23C868.637 1690.23 868.637 1690.23 868.637 1689.4C868.637 1686.87 871.996 1686.87 872.839 1685.2C875.343 1682.7 879.558 1681.02 884.577 1682.7C887.093 1682.7 890.452 1684.37 891.296 1687.74C896.328 1698.64 898.014 1710.39 898.844 1722.14C900.517 1722.97 898.844 1725.51 900.517 1727.18C903.033 1720.46 905.562 1713.76 908.078 1707.88C908.078 1703.68 911.438 1696.96 907.235 1691.93C907.235 1691.93 908.078 1691.93 908.078 1690.26C913.954 1692.76 919.829 1694.46 924.031 1696.98C925.678 1698.64 924.005 1698.64 923.175 1699.47ZM853.515 1724.64C849.312 1722.97 842.594 1722.14 837.575 1720.47C837.575 1719.61 835.059 1717.94 835.889 1717.94C837.575 1717.11 839.248 1717.11 839.248 1717.11C844.293 1713.76 842.607 1707.88 842.607 1702.01C837.379 1700.97 832.303 1699.27 827.497 1696.96C823.308 1701.17 820.779 1707.88 821.622 1712.9C820.779 1715.43 818.263 1713.76 816.577 1712.9C814.061 1711.23 813.23 1711.23 809.858 1710.4C809.028 1710.4 806.499 1708.73 806.499 1707.9C807.329 1704.53 809.015 1707.9 813.217 1704.53C821.609 1696.15 830 1684.38 837.549 1673.46C839.222 1672.63 833.347 1672.63 830.83 1673.46C828.314 1673.46 827.471 1675.99 825.798 1675.16V1673.46C830.83 1669.29 837.549 1665.91 844.267 1668.44C850.985 1670.95 851.815 1677.66 851.815 1684.38V1717.11C851.815 1717.94 853.502 1722.15 856.018 1722.98C856.031 1724.64 854.345 1724.64 853.515 1724.64ZM842.594 1696.96C839.235 1696.13 833.373 1694.46 830.843 1691.92C832.516 1686.87 837.562 1682.7 841.751 1677.65C842.594 1680.17 842.594 1696.12 842.594 1696.96ZM818.263 1664.23C816.577 1664.23 814.061 1663.4 813.23 1664.23C809.871 1666.73 807.342 1673.45 806.512 1678.49C803.153 1686.87 799.794 1692.76 798.121 1699.47C798.121 1702 800.637 1703.67 799.807 1706.19C798.121 1707.88 797.291 1706.19 795.605 1706.19C793.088 1704.51 788.056 1703.68 785.54 1701.17C783.854 1701.17 783.024 1699.47 783.854 1699.47C785.54 1698.64 792.245 1694.45 793.088 1690.25C795.605 1682.7 798.121 1675.15 800.637 1666.74H799.807C788.899 1675.15 780.508 1682.7 772.116 1691.92C770.443 1694.45 769.6 1692.75 767.914 1691.92C767.914 1686.87 767.914 1682.7 767.084 1670.95C767.084 1669.27 767.084 1656.68 765.411 1654.15C762.036 1660.21 759.492 1666.71 757.85 1673.45C755.333 1678.49 752.817 1685.2 756.176 1689.4C756.176 1690.23 756.176 1690.23 755.346 1690.23C750.301 1689.4 744.439 1686.86 739.394 1685.19V1684.36C746.112 1682.68 750.301 1673.44 753.673 1666.73C756.189 1660.01 760.392 1654.14 762.895 1647.43C762.065 1645.76 759.536 1644.93 757.863 1643.26C753.673 1643.26 752.83 1645.76 748.628 1647.43C747.798 1645.76 748.628 1644.93 748.628 1644.93C752.83 1639.88 757.863 1638.21 762.895 1639.88C767.097 1640.71 773.802 1643.26 773.802 1648.26C776.318 1657.51 776.318 1669.26 776.318 1678.48V1680.15C788.069 1670.93 795.618 1661.71 806.525 1657.51C811.57 1656.68 814.086 1657.51 816.59 1659.18C818.276 1659.18 819.106 1661.71 819.106 1663.39C819.106 1664.23 819.106 1664.23 818.263 1664.23Z" fill="#0C0E0F"/>
    <path fill-rule="evenodd" clip-rule="evenodd" d="M726.774 1622.26C726.774 1622.26 743.557 1613.04 759.509 1619.75L1038.98 1720.48L1310.06 1622.27C1337.75 1613.05 1353.68 1621.44 1353.68 1622.27V1717.11C1344.46 1711.23 1331.04 1707.88 1310.06 1715.43L1038.98 1811.11L769.587 1712.9C748.602 1704.52 737.694 1711.23 726.774 1717.11V1622.26ZM710.834 1614.71C710.834 1612.21 737.694 1597.94 769.587 1609.66L1038.98 1703.67L1310.06 1609.66C1341.93 1597.94 1369.65 1614.71 1369.65 1614.71V1739.78C1362.93 1736.4 1337.75 1720.48 1310.06 1729.7L1038.98 1825.38L769.587 1728.87C743.57 1719.62 720.911 1736.42 710.834 1739.79V1614.71Z" fill="#0C0E0F"/>
    <path fill-rule="evenodd" clip-rule="evenodd" d="M730.133 1626.46C730.133 1626.46 744.413 1618.91 759.509 1623.96L1038.98 1724.65L1310.06 1626.47C1335.21 1618.92 1351.18 1623.97 1351.18 1624.8V1711.23C1341.93 1706.18 1330.2 1703.68 1310.06 1711.23L1038.98 1805.23L769.587 1708.73C750.275 1702.01 741.883 1706.2 730.133 1711.23V1626.46ZM734.335 1628.96C734.335 1628.96 746.086 1622.24 759.509 1627.29L1038.98 1728.84L1310.06 1631.49C1331.03 1623.94 1346.97 1626.45 1346.97 1627.29V1704.5C1339.43 1701.15 1326.83 1701.15 1310.06 1706.17L1038.98 1801.85L769.587 1704.5C751.118 1698.62 746.086 1701.15 734.335 1706.17V1628.96ZM1234.53 908.064V960.112L1214.4 947.518V921.514L1234.53 908.064Z" fill="#B2A43F"/>
    <path fill-rule="evenodd" clip-rule="evenodd" d="M1228.65 918.972V950.034L1214.4 940.787V927.363L1228.65 918.972Z" fill="#0C0E0F"/>
    <path fill-rule="evenodd" clip-rule="evenodd" d="M1227.82 919.815V948.362L1214.4 939.97V927.364L1227.82 919.815Z" fill="#FAE935"/>
    <path fill-rule="evenodd" clip-rule="evenodd" d="M1234.53 809.04V862.748L1214.4 849.324V821.621L1234.53 809.04Z" fill="#B2A43F"/>
    <path fill-rule="evenodd" clip-rule="evenodd" d="M1228.65 820.791V850.168L1214.4 841.776V828.339L1228.65 820.791Z" fill="#0C0E0F"/>
    <path fill-rule="evenodd" clip-rule="evenodd" d="M1227.82 821.621V849.324L1214.4 840.09V830.012L1227.82 821.621Z" fill="#FAE935"/>
    <path fill-rule="evenodd" clip-rule="evenodd" d="M893.785 798.119V957.582C944.977 959.255 1010.45 947.531 1017.15 948.361C1031.42 948.361 1038.98 956.739 1040.65 956.739C1040.65 955.066 1048.22 948.361 1057.44 948.361C1070.86 947.531 1133.8 959.255 1187.54 957.582V799.805H1057.45C1044.86 799.805 1040.67 807.354 1040.67 807.354C1038.99 807.354 1033.95 799.805 1022.2 799.805L893.785 798.119Z" fill="#E7EEF3" stroke="#0C0E0F" stroke-width="9.15665" stroke-miterlimit="2.613"/>
    <path fill-rule="evenodd" clip-rule="evenodd" d="M813.23 1242.94L835.888 1231.19L824.981 1253.84L850.998 1262.22L824.981 1272.29L835.888 1294.98L813.23 1284.06L804.826 1308.4L795.604 1284.06L770.43 1294.98L783.854 1272.29L757.836 1262.22L783.854 1253.84L772.103 1231.19L795.604 1242.94L804.826 1216.9L813.23 1242.94ZM1048.22 1065.01L1071.73 1053.26L1059.97 1076.76L1086.83 1085.98L1059.97 1094.37L1071.73 1118.72L1048.22 1105.3L1040.67 1132.14L1031.43 1105.3L1006.25 1118.72L1019.67 1094.37L993.666 1085.98L1019.67 1076.76L1007.93 1053.26L1031.43 1065.01L1040.67 1040.67L1048.22 1065.01ZM1283.19 1242.94L1306.7 1231.19L1294.11 1253.84L1320.96 1262.22L1294.11 1272.29L1306.7 1294.98L1283.19 1284.06L1273.97 1308.4L1265.59 1284.06L1241.25 1294.98L1253.84 1272.29L1227.82 1262.22L1253.84 1253.84L1241.25 1231.19L1265.59 1242.94L1273.97 1216.9L1283.19 1242.94ZM1048.22 1464.49L1071.73 1451.07L1059.97 1476.24L1086.83 1483.79L1059.97 1493.01L1071.73 1516.53L1048.22 1504.76L1040.67 1529.95L1031.43 1504.76L1006.25 1516.53L1019.67 1493.01L993.666 1483.79L1019.67 1476.24L1007.93 1451.07L1031.43 1464.49L1040.67 1437.65L1048.22 1464.49Z" fill="#B2A43F"/>
    <path fill-rule="evenodd" clip-rule="evenodd" d="M815.746 1235.37L842.593 1224.47L832.529 1252.17L860.232 1262.22L832.529 1274.81L842.593 1301.68L815.746 1289.93L804.839 1317.62L793.088 1289.93L765.397 1301.68L776.305 1274.81L748.602 1262.22L776.305 1252.17L765.397 1224.47L793.088 1235.37L804.839 1207.68L815.746 1235.37ZM813.23 1242.94L835.045 1232.87L823.294 1254.68L848.469 1262.23L823.294 1270.63L835.045 1292.45L813.23 1282.4L804.839 1307.57L795.604 1282.4L772.103 1294.12L785.539 1270.63L760.365 1262.23L785.539 1254.68L773.789 1232.87L795.604 1242.94L804.839 1219.44L813.23 1242.94Z" fill="#0C0E0F"/>
    <path fill-rule="evenodd" clip-rule="evenodd" d="M1054.09 1049.89L1090.17 1034.79L1075.91 1071.73L1112.84 1086L1075.91 1100.26L1090.17 1135.53L1054.09 1121.24L1038.98 1158.17L1024.72 1121.24L988.633 1135.53L1003.74 1100.26L966.818 1086L1003.74 1071.73L989.477 1034.79L1024.73 1049.89L1036.48 1023.04H1043.2L1054.09 1049.89ZM1052.41 1054.93L1083.46 1041.51L1071.73 1072.57L1104.45 1086L1071.73 1097.75L1083.46 1130.47L1052.41 1117.88L1040.66 1148.94L1027.23 1117.88L994.496 1130.47L1007.92 1097.75L977.713 1086L1007.92 1072.57L994.496 1041.51L1027.23 1054.93L1038.14 1027.24H1042.33L1052.41 1054.93ZM1288.24 1226.15L1324.33 1211.88L1310.06 1247.95L1346.98 1262.22L1310.06 1277.34L1324.33 1313.41L1288.24 1299.14L1273.97 1334.41L1258.87 1299.14L1222.78 1313.41L1238.72 1277.34L1201.8 1262.22L1238.72 1247.95L1223.62 1211.88L1258.88 1226.15L1273.98 1190.88L1288.24 1226.15ZM1286.56 1231.19L1318.45 1218.6L1305.03 1251.32L1337.75 1262.22L1305.03 1275.67L1318.45 1307.56L1286.56 1294.97L1273.97 1325.16L1261.37 1294.1L1227.81 1307.55L1242.08 1275.65L1211.01 1262.2L1242.08 1249.64L1228.65 1218.57L1261.37 1231.17L1273.97 1198.44L1286.56 1231.19ZM1054.09 1446.85L1090.17 1432.59L1075.91 1469.53L1112.84 1483.79L1075.91 1498.06L1090.17 1535L1054.09 1520.73L1038.98 1555.97L1024.72 1520.73L988.633 1535L1003.74 1498.06L966.818 1483.79L1003.74 1469.53L989.477 1432.59L1024.73 1446.85L1039 1411.62L1054.09 1446.85ZM1052.41 1452.74L1083.46 1439.32L1071.73 1470.38L1104.45 1483.8L1071.73 1497.23L1083.46 1528.29L1052.41 1514.87L1040.66 1546.76L1027.23 1514.87L994.496 1528.29L1007.92 1497.23L977.713 1483.8L1007.92 1470.38L994.496 1439.32L1027.23 1452.74L1040.66 1420.02L1052.41 1452.74Z" fill="#FAE935"/>
    <path fill-rule="evenodd" clip-rule="evenodd" d="M1050.73 1058.29L1078.44 1046.54L1068.36 1075.93L1095.21 1085.98L1068.36 1096.9L1078.44 1123.75L1050.73 1113.67L1040.67 1141.39L1028.92 1113.67L999.541 1123.75L1012.13 1096.9L984.444 1085.98L1012.13 1075.93L1001.23 1046.54L1028.92 1058.29L1040.67 1031.45L1050.73 1058.29ZM1048.22 1066.68L1070.86 1054.93L1059.12 1078.43L1083.46 1085.98L1059.12 1094.36L1070.86 1116.2L1048.22 1105.28L1040.66 1130.46L1031.42 1105.28L1007.92 1117.88L1021.36 1094.37L996.182 1086L1021.36 1078.45L1009.61 1054.95L1031.43 1066.7L1040.67 1041.52L1048.22 1066.68ZM1285.73 1235.37L1312.58 1224.47L1300.83 1252.16L1328.52 1262.22L1300.83 1274.81L1312.58 1301.68L1285.73 1289.93L1273.98 1317.62L1263.06 1289.93L1234.54 1301.68L1246.29 1274.81L1218.57 1262.22L1246.29 1252.16L1235.37 1224.47L1263.06 1235.37L1273.98 1207.68L1285.73 1235.37ZM1283.19 1242.94L1305.03 1232.87L1293.28 1254.68L1318.45 1262.23L1293.28 1270.63L1305.03 1292.45L1283.19 1282.4L1273.97 1307.57L1265.59 1282.4L1242.09 1294.12L1253.84 1270.63L1230.34 1262.23L1253.84 1254.68L1243.76 1232.87L1265.6 1242.94L1273.98 1219.44L1283.19 1242.94ZM1050.73 1456.1L1078.44 1444.35L1068.36 1472.04L1095.21 1483.79L1068.36 1494.71L1078.44 1521.56L1050.73 1511.48L1040.67 1539.17L1028.92 1511.48L999.541 1523.23L1012.13 1494.71L984.444 1483.79L1012.13 1472.04L1001.23 1444.35L1028.92 1456.1L1040.67 1429.23L1050.73 1456.1ZM1048.22 1464.49L1070.86 1453.57L1059.12 1476.24L1083.46 1483.79L1059.12 1491.34L1070.86 1514.84L1048.22 1503.09L1040.66 1528.27L1031.42 1503.09L1007.92 1514.84L1021.36 1491.34L996.182 1483.79L1021.36 1476.24L1009.61 1453.57L1031.43 1464.49L1040.67 1439.32L1048.22 1464.49Z" fill="#0C0E0F"/>
    <path fill-rule="evenodd" clip-rule="evenodd" d="M732.662 1149.77H908.052V1022.2H1171.57V1149.77H1348.64V1411.62H1171.57V1597.93L1040.66 1644.92L908.052 1597.93V1411.62H732.662V1149.77ZM737.694 1155.64H913.928V1027.24H1166.54V1155.64H1341.93V1406.58H1166.54V1593.74L1040.66 1638.22L913.928 1593.74V1406.58H737.694V1155.64Z" fill="#FAE935"/>
    <path fill-rule="evenodd" clip-rule="evenodd" d="M866.108 1363.77C875.329 1352.88 860.232 1349.5 854.357 1350.35C857.716 1342.8 867.781 1336.08 875.329 1340.29C881.217 1336.09 887.08 1336.09 888.766 1343.64C891.282 1352.02 898.83 1352.89 905.549 1352.89C918.972 1352.89 926.534 1342.81 924.018 1331.05C924.018 1326.87 926.534 1319.3 930.736 1315.11C931.566 1313.41 916.456 1313.41 913.953 1301.68C907.235 1305.86 890.452 1308.4 886.263 1301.68C887.093 1300.85 898.843 1296.64 896.327 1292.44C891.295 1289.93 890.452 1292.44 886.263 1292.44C886.263 1287.39 895.497 1284.06 893.811 1282.38C891.295 1278.18 887.093 1282.38 883.747 1282.38C886.263 1278.18 888.792 1274.81 888.792 1270.63C887.106 1265.59 881.23 1265.59 875.355 1266.43C874.525 1261.39 886.276 1256.38 883.747 1252.17C882.074 1251.34 878.714 1252.17 875.355 1251.34C875.355 1251.34 877.041 1251.34 877.041 1249.66C879.557 1247.96 882.073 1245.46 882.073 1242.94C882.073 1240.41 877.041 1240.41 874.512 1240.41C878.714 1231.19 884.577 1231.19 892.981 1226.15C893.811 1223.62 893.811 1221.1 891.308 1221.1C886.276 1221.1 882.073 1218.6 879.557 1212.72C879.557 1211.89 878.714 1210.2 879.557 1209.35C882.073 1209.35 884.59 1209.35 887.106 1207.68C890.465 1206.85 888.792 1205.18 887.106 1203.48C884.59 1202.65 881.23 1205.18 878.714 1202.65C874.512 1202.65 877.041 1197.63 872.839 1197.63C863.605 1195.93 863.605 1182.5 868.637 1177.46C868.637 1177.46 877.028 1189.21 878.714 1181.66C878.714 1174.11 871.996 1169.91 865.291 1168.24C872.852 1159.86 884.59 1164.87 888.792 1168.24C891.308 1169.91 892.981 1168.24 895.51 1168.24C895.51 1167.41 898.026 1165.73 896.34 1163.19C893.824 1158.15 891.308 1158.15 887.106 1156.47C893.824 1149.76 908.091 1153.13 913.966 1162.35C916.482 1165.72 923.201 1164.85 923.201 1170.73C923.201 1176.6 917.325 1170.73 917.325 1197.6C917.325 1211.87 926.56 1228.64 929.076 1226.97C930.749 1224.46 931.592 1221.92 933.265 1218.59C933.265 1218.59 930.749 1218.59 930.749 1216.89C931.579 1209.34 935.781 1202.62 939.971 1195.92H934.095C934.095 1190.87 939.97 1185.86 944.16 1181.65C944.16 1179.98 937.441 1179.98 935.768 1177.45C937.441 1174.94 944.99 1168.22 944.99 1167.39C942.474 1164.87 940.801 1164.87 939.958 1162.35C940.801 1159.85 949.192 1158.15 951.708 1151.43C951.708 1149.76 947.519 1147.25 946.676 1147.25C947.519 1146.42 951.708 1147.25 955.91 1147.25C964.302 1146.42 970.177 1147.25 970.177 1147.25C971.02 1146.42 968.504 1143.88 968.504 1141.38C975.222 1142.21 979.412 1141.38 980.255 1134.66C981.928 1134.66 982.771 1137.16 985.287 1137.16C992.005 1139.69 999.554 1143.88 1005.43 1149.76C1012.15 1144.71 1021.37 1144.71 1028.93 1144.71C1032.29 1143.88 1033.98 1144.71 1035.65 1144.71C1028.93 1153.12 1043.21 1153.12 1049.93 1148.91C1056.65 1158.13 1056.65 1164.85 1049.93 1172.41C1054.12 1174.92 1057.48 1182.47 1059.15 1181.64C1068.38 1169.89 1087.68 1165.7 1085.18 1158.13C1082.65 1149.76 1075.93 1149.76 1069.23 1149.76C1070.9 1144.71 1078.47 1144.71 1087.7 1144.71C1087.7 1141.36 1086.87 1137.99 1087.7 1135.49C1101.96 1137.99 1107.84 1153.96 1116.22 1155.63C1124.62 1156.46 1133.84 1151.43 1140.56 1146.41H1141.39C1140.56 1162.35 1157.34 1149.76 1162.39 1153.13C1163.22 1167.39 1138.89 1170.73 1136.37 1177.45C1133.84 1184.16 1138.87 1185.85 1140.55 1188.37C1138.87 1189.2 1129.65 1189.2 1130.5 1193.41C1134.67 1198.46 1145.59 1195.92 1146.44 1192.58C1150.64 1184.18 1143.93 1181.66 1143.93 1179.99C1145.61 1179.16 1148.98 1181.66 1152.31 1179.16C1153.14 1176.63 1150.64 1174.96 1150.64 1174.11C1155.68 1174.94 1160.69 1179.16 1169.94 1176.62C1173.28 1174.94 1169.94 1172.44 1171.61 1169.9C1176.66 1170.73 1181.69 1176.62 1185.88 1179.15C1190.08 1177.45 1188.41 1172.43 1187.58 1165.72C1192.6 1164.87 1197.63 1179.99 1204.35 1181.66C1206.85 1182.49 1209.39 1179.16 1209.39 1176.62C1211.06 1176.62 1211.06 1177.45 1211.06 1179.15C1220.31 1211.87 1230.36 1179.98 1235.41 1185.86C1237.08 1185.86 1235.41 1186.69 1235.41 1186.69C1232.91 1189.2 1232.04 1195.07 1232.91 1198.44C1238.75 1218.59 1217.78 1223.59 1218.61 1223.59C1220.31 1268.08 1174.13 1268.94 1150.65 1263.89C1157.37 1278.16 1174.14 1279.83 1175.83 1292.41C1176.66 1296.61 1178.33 1308.36 1181.7 1312.55C1188.42 1316.75 1200.14 1310.05 1206.02 1305.83C1216.1 1307.53 1216.1 1313.38 1217.77 1315.08C1227.85 1316.75 1235.4 1310.04 1244.62 1307.53C1247.15 1310.04 1239.6 1319.26 1243.79 1317.58C1244.62 1317.58 1244.62 1316.75 1246.32 1317.58C1247.15 1322.63 1243.79 1327.66 1244.62 1331.01C1246.32 1331.84 1247.15 1331.84 1250.49 1333.54C1248.82 1336.04 1246.32 1334.37 1243.77 1340.26C1244.6 1341.09 1250.49 1341.09 1253.02 1341.09C1250.49 1346.11 1241.27 1351.98 1239.6 1354.51C1241.27 1355.34 1244.62 1355.34 1246.32 1355.34C1246.32 1359.54 1238.74 1360.39 1237.07 1363.72C1238.74 1364.55 1239.6 1364.55 1241.27 1366.25C1238.74 1369.59 1227.85 1373.8 1230.35 1375.47C1232.02 1376.3 1234.55 1378 1237.07 1378.84C1228.69 1385.56 1223.65 1387.22 1214.42 1387.22C1214.42 1390.57 1214.42 1393.09 1211.05 1396.44C1209.38 1398.97 1204.33 1401.49 1200.13 1401.49C1202.66 1393.11 1200.13 1385.55 1193.41 1385.55C1193.41 1387.22 1192.58 1387.22 1192.58 1388.05C1195.11 1396.43 1190.91 1404.85 1179.16 1403.99C1174.11 1410.73 1158.19 1410.73 1150.64 1401.49V1398.98C1157.36 1398.98 1160.69 1398.98 1166.58 1396.45C1166.58 1393.11 1166.58 1392.28 1164.91 1390.58C1158.19 1389.75 1150.64 1393.11 1143.93 1396.45C1143.1 1387.23 1148.98 1375.48 1157.36 1375.48C1159.86 1367.1 1160.7 1369.61 1160.7 1367.1C1157.36 1364.57 1150.65 1363.73 1145.61 1363.73C1143.93 1363.73 1143.1 1364.56 1141.4 1363.73C1148.12 1350.31 1158.2 1349.46 1166.58 1352.84C1169.11 1350.31 1173.3 1347.79 1175.83 1349.46C1180.87 1349.46 1181.7 1357.84 1185.05 1360.39C1190.09 1362.06 1195.97 1354.51 1195.97 1349.46C1195.97 1338.54 1178.34 1336.87 1169.12 1338.54C1160.72 1340.24 1153.17 1338.54 1145.62 1333.52C1140.57 1329.32 1134.7 1325.12 1129.68 1320.1C1127.98 1319.24 1127.98 1320.1 1127.98 1321.77C1127.15 1325.12 1124.63 1331 1127.98 1336.04C1132.18 1338.54 1140.57 1341.09 1141.4 1347.79C1140.57 1350.29 1140.57 1354.51 1137.23 1357.01C1133.86 1359.54 1127.98 1362.06 1127.98 1367.09C1127.15 1373.81 1127.98 1375.47 1133.86 1382.19C1127.98 1384.72 1120.43 1382.19 1116.23 1380.51C1115.4 1380.51 1111.21 1388.06 1110.38 1390.57C1106.18 1392.26 1103.66 1382.19 1101.98 1383.02C1101.15 1384.72 1096.93 1389.74 1096.93 1392.26C1094.43 1393.09 1091.91 1383.02 1090.21 1382.19C1087.71 1384.72 1085.19 1388.06 1085.19 1392.26C1082.66 1390.57 1080.99 1388.06 1078.47 1385.55C1075.1 1389.72 1069.23 1392.26 1064.19 1390.57C1062.52 1389.74 1066.71 1385.55 1065.02 1384.72C1065.02 1383.02 1064.19 1384.72 1064.19 1384.72C1061.68 1388.06 1045.74 1388.06 1045.74 1384.72C1049.94 1382.19 1054.13 1378 1052.46 1373.8C1052.46 1371.29 1050.78 1372.1 1049.94 1372.1C1044.9 1375.47 1042.38 1382.17 1036.5 1385.55C1031.47 1388.05 1027.28 1387.22 1024.75 1383.02C1017.19 1382.19 1010.49 1382.19 1003.77 1388.06C1003.77 1387.23 1002.93 1387.23 1002.93 1387.23C1005.44 1373.81 1009.64 1371.29 1017.19 1368.76C1017.19 1366.26 1017.19 1363.72 1014.68 1360.39C1010.49 1357.86 1003.77 1359.55 999.567 1362.06C997.05 1359.55 1005.44 1341.09 1017.19 1347.79C1018.04 1347.79 1018.04 1346.09 1019.71 1345.26C1017.19 1336.88 1012.16 1336.88 1006.28 1340.24C1005.45 1329.32 1018.04 1321.77 1026.43 1326.82C1027.27 1325.12 1029.79 1325.12 1031.46 1324.29C1038.18 1324.29 1039.02 1331.01 1043.21 1333.54C1045.73 1334.37 1052.43 1336.04 1054.96 1340.26C1059.15 1346.11 1062.51 1346.11 1070.9 1347.8C1075.95 1347.8 1080.98 1347.8 1085.19 1346.11C1094.41 1343.6 1094.41 1331.84 1087.7 1331.84C1078.47 1331.01 1070.9 1333.54 1062.52 1331.01C1049.94 1327.66 1045.74 1324.29 1045.74 1310.04C1036.5 1313.38 1012.17 1321.79 1006.28 1322.63C1003.77 1326.83 999.567 1327.68 994.534 1329.35C992.018 1331.02 999.567 1338.57 999.567 1338.57C999.567 1341.1 980.268 1350.32 981.954 1350.32C982.784 1351.99 984.47 1351.99 985.313 1352.85C985.313 1355.35 977.751 1355.35 976.921 1357.03C977.764 1357.86 979.438 1359.55 980.281 1359.55C976.921 1363.73 970.203 1362.06 966.014 1366.27C963.498 1367.1 959.295 1368.78 955.936 1369.62C952.577 1371.32 956.779 1373.82 955.936 1375.49C934.121 1380.54 930.762 1371.32 925.717 1372.12C923.201 1372.12 919.841 1375.49 917.325 1378.02C918.998 1385.57 912.293 1399 903.059 1399C900.542 1396.47 905.575 1393.12 903.059 1388.08C903.059 1387.25 901.385 1387.25 900.542 1387.25C896.353 1387.25 898.039 1399.84 888.805 1397.3C887.119 1397.3 886.289 1394.79 884.603 1396.47C874.538 1401.51 868.663 1404.02 857.755 1394.79C877.054 1389.75 879.583 1371.31 851.88 1378.02C853.514 1367.14 860.219 1363.77 866.108 1363.77ZM1054.93 1216.9C1054.93 1215.23 1054.93 1215.23 1056.61 1215.23C1062.48 1230.32 1078.44 1231.18 1092.7 1228.65C1119.55 1224.47 1153.12 1209.35 1175.79 1209.35C1183.34 1209.35 1201.8 1212.72 1201.8 1224.47C1201.8 1232.85 1199.28 1237.9 1193.4 1242.07C1185.85 1247.12 1166.55 1249.65 1158.16 1249.65C1153.12 1249.65 1133.82 1247.95 1127.94 1240.4C1124.6 1237.9 1119.56 1236.2 1113.67 1236.2C1095.21 1236.2 1075.06 1247.12 1059.12 1247.12C1054.93 1247.12 1054.09 1223.62 1054.93 1216.9ZM1095.21 1184.18C1101.92 1189.22 1107.8 1198.47 1117.88 1203.48C1117.88 1205.18 1097.73 1211.88 1090.16 1211.88C1075.89 1211.88 1071.72 1205.16 1071.72 1198.46C1071.73 1190.88 1085.15 1179.16 1095.21 1184.18Z" fill="#B2A43F"/>
    <path fill-rule="evenodd" clip-rule="evenodd" d="M1163.19 1355.39C1162.26 1357.6 1161.42 1359.84 1160.66 1362.11C1157.32 1359.61 1154.79 1359.61 1148.07 1360.44C1148.94 1357.06 1158.16 1350.35 1163.19 1355.39ZM1157.32 1378.89C1156.73 1379.96 1156.49 1381.18 1156.64 1382.39C1156.79 1383.6 1157.31 1384.72 1158.15 1385.61C1159.82 1388.11 1152.27 1387.28 1148.07 1389.79C1148.07 1387.28 1152.29 1378.89 1157.32 1378.89ZM1167.38 1399.03C1169.08 1399.86 1169.91 1401.54 1171.59 1402.38C1169.91 1404.91 1158.16 1406.58 1157.32 1401.55C1160.66 1401.54 1164.87 1401.54 1167.38 1399.03ZM1018.01 1373.86C1018.01 1375.53 1018.01 1376.36 1019.68 1378.91H1018.01C1012.13 1378.91 1010.45 1380.58 1006.26 1382.25C1006.25 1378.06 1014.64 1371.34 1018.01 1373.86ZM1015.48 1350.35C1017.15 1352.02 1015.48 1350.35 1015.48 1357.06H1012.96C1009.61 1355.39 1006.25 1355.39 1003.74 1357.06C1005.42 1352.02 1012.12 1350.35 1015.48 1350.35ZM1023.87 1331.05C1022.2 1333.58 1021.36 1336.09 1021.36 1336.92C1021.36 1338.6 1019.67 1336.92 1019.67 1336.92C1017.15 1336.09 1014.64 1334.42 1012.12 1334.42C1014.64 1331.05 1021.36 1327.7 1023.87 1331.05ZM980.242 1212.72C980.242 1211.89 981.915 1212.72 981.915 1212.72C980.242 1218.6 979.399 1223.62 979.399 1226.99C979.399 1228.66 980.242 1228.66 980.242 1228.66C982.758 1224.49 986.961 1210.2 988.634 1214.4C991.993 1223.62 980.242 1237.9 977.726 1236.21C976.883 1236.2 973.524 1221.1 980.242 1212.72ZM908.053 1162.36H907.209C904.706 1162.36 903.02 1164.87 900.491 1162.36C898.818 1159.86 897.988 1158.16 896.302 1156.49C900.504 1155.64 904.706 1158.16 908.053 1162.36ZM874.487 1167.41C878.689 1165.73 884.551 1167.41 886.237 1169.91C886.237 1170.74 883.721 1174.96 882.035 1174.11C878.689 1167.41 871.971 1168.24 874.487 1167.41ZM870.297 1184.18C870.297 1184.18 871.971 1186.71 875.33 1189.22C877.016 1190.9 875.33 1193.43 875.33 1195.1C871.971 1195.09 867.781 1185.86 870.297 1184.18ZM872.814 1342.8C874.487 1343.63 871.971 1346.14 870.297 1347.84C870.297 1349.52 866.108 1346.14 861.063 1346.14C863.579 1342.8 868.611 1342.8 872.814 1342.8ZM875.33 1388.11C877.016 1387.28 879.532 1393.16 878.689 1393.16C875.33 1397.34 867.781 1396.51 865.265 1394.83C868.611 1393.16 871.971 1390.63 875.33 1388.11ZM867.781 1367.14V1372.16C863.592 1371.36 862.749 1371.36 857.717 1372.16C858.547 1367.14 866.108 1366.31 867.781 1367.14Z" fill="#00AAE8"/>
    <path fill-rule="evenodd" clip-rule="evenodd" d="M1048.22 896.326H1049.9V951.707H1048.22V896.326Z" fill="#0C0E0F"/>
    <path fill-rule="evenodd" clip-rule="evenodd" d="M883.721 968.504V799.806H892.955V959.243C940.788 960.099 1005.42 950.022 1012.96 950.022C1028.9 948.349 1038.98 957.57 1040.67 960.099C1042.34 957.57 1049.9 948.349 1059.12 950.022C1099.41 952.525 1141.37 960.099 1188.38 960.099V799.793H1199.28V968.478H883.721V968.504Z" fill="#B2A43F"/>
    <path fill-rule="evenodd" clip-rule="evenodd" d="M1048.22 798.119H1049.9V858.558H1048.22V798.119ZM1173.26 896.326C1169.08 895.483 1163.21 896.326 1158.16 895.483C1159.83 892.124 1160.66 889.608 1159.83 887.092C1159.83 886.249 1158.16 882.89 1157.33 880.373C1153.13 880.373 1148.95 879.53 1145.58 880.373C1143.91 880.373 1143.91 882.89 1143.91 884.563C1143.08 888.765 1143.91 891.281 1146.41 895.47L1145.58 896.313H1132.16C1125.45 896.313 1117.89 896.313 1117.89 895.47C1122.07 891.268 1122.07 886.236 1122.07 877.014C1122.07 870.296 1122.92 862.735 1119.56 861.074C1119.56 860.231 1117.89 860.231 1117.89 860.231C1117.89 858.558 1119.56 858.558 1120.39 858.558H1132.14L1133.82 860.231C1133.82 861.074 1130.47 861.074 1130.47 862.748C1127.94 865.264 1127.94 870.309 1127.94 875.341C1127.94 882.903 1127.94 891.281 1132.14 895.483H1133.82C1140.54 889.608 1143.89 872.825 1148.08 865.264C1146.41 862.748 1143.06 863.591 1143.06 863.591C1140.54 863.591 1138.86 865.264 1137.19 865.264C1137.19 863.591 1140.54 862.748 1141.37 861.074C1143.06 860.231 1143.89 860.231 1146.41 858.558C1150.61 858.558 1154.79 858.558 1157.33 862.748C1159.83 865.264 1160.68 870.309 1163.21 874.498C1166.55 882.059 1169.08 889.608 1175.8 895.483C1175.79 896.326 1174.09 896.326 1173.26 896.326ZM1146.4 877.014C1148.07 872.812 1148.93 870.296 1150.6 866.094C1152.27 866.094 1155.65 875.328 1155.65 877.014H1146.4ZM1115.35 870.309C1113.67 870.309 1112.84 868.623 1112.84 867.793C1110.34 865.277 1110.34 862.748 1106.13 861.074H1101.92C1101.92 871.982 1099.42 889.608 1106.13 895.483C1106.13 897.999 1103.62 896.326 1101.92 896.326H1090.17C1089.34 895.483 1090.17 893.81 1091.87 892.124C1096.89 884.576 1095.22 872.825 1095.22 862.748C1094.39 861.074 1092.72 861.074 1091.87 861.074C1087.67 862.748 1085.15 866.107 1083.47 870.309C1083.47 871.982 1082.64 871.982 1082.64 870.309V858.558H1115.37V865.277C1115.35 866.107 1115.35 868.623 1115.35 870.309Z" fill="#0C0E0F"/>
    <path fill-rule="evenodd" clip-rule="evenodd" d="M1077.58 861.075C1075.91 861.075 1075.91 862.748 1075.91 863.591C1071.73 871.983 1073.4 880.374 1073.4 889.608V895.484C1073.4 896.327 1071.73 895.484 1070.87 895.484C1062.5 887.092 1057.45 877.028 1049.9 867.793C1048.23 867.793 1048.23 868.623 1048.23 868.623C1048.23 875.342 1049.9 882.89 1049.9 889.608C1050.73 892.125 1054.09 893.811 1054.09 895.484C1050.73 896.327 1045.7 895.484 1043.18 895.484H1040.67C1048.23 889.609 1045.7 872.826 1045.7 865.264C1044.86 863.591 1043.18 863.591 1042.34 863.591C1038.99 865.264 1036.47 868.623 1036.47 871.983H1035.62C1032.26 870.309 1032.26 866.107 1031.43 865.264C1029.76 863.591 1028.92 862.748 1027.24 862.748H1015.49V872.826C1017.17 874.499 1021.37 874.499 1022.21 872.826C1023.89 871.983 1024.73 870.309 1027.26 870.309V880.374C1026.41 882.047 1026.41 879.531 1024.74 879.531C1023.9 877.858 1021.38 877.015 1018.02 875.329C1018.02 877.015 1015.51 875.329 1015.51 877.015V889.596C1017.18 893.798 1024.74 892.112 1026.41 892.112C1028.93 892.112 1031.45 891.282 1032.29 888.765C1033.98 887.092 1033.98 884.563 1036.49 882.89V882.06V892.125C1036.49 893.811 1035.65 895.484 1033.98 895.484H1005.44C1012.16 891.282 1009.63 867.793 1007.96 863.591C1006.29 862.748 1005.44 861.075 1003.77 860.232C1003.77 858.559 1005.44 858.559 1006.29 858.559C1014.68 860.232 1024.75 860.232 1032.3 858.559C1033.99 860.232 1035.66 860.232 1035.66 861.075C1036.5 862.748 1036.5 863.591 1036.5 863.591C1038.18 863.591 1039.02 861.075 1040.71 861.075C1043.22 858.559 1045.74 858.559 1048.27 860.232C1059.18 862.748 1064.21 877.858 1069.24 882.89H1070.91C1070.91 877.858 1070.91 872.826 1069.24 866.107C1069.24 863.591 1066.72 861.075 1064.21 860.232C1064.21 858.559 1065.04 858.559 1065.04 858.559H1078.49C1078.49 858.559 1080.16 858.559 1078.49 860.232C1078.44 860.232 1078.44 860.232 1077.58 861.075ZM997.012 861.075C994.496 865.264 994.496 871.983 994.496 877.015C994.496 882.89 993.666 889.595 998.698 893.798V895.471C994.496 895.471 988.633 895.471 985.274 896.314C984.431 895.471 984.431 895.471 984.431 893.798C985.274 892.112 988.633 891.282 988.633 889.596C989.463 886.236 989.463 870.297 989.463 867.78C988.633 865.264 988.633 862.735 985.274 861.062C985.274 861.062 984.431 861.062 984.431 860.219C984.431 860.219 984.431 858.546 985.274 858.546C989.463 860.219 994.496 858.546 999.541 858.546C1001.21 860.232 998.698 861.075 997.012 861.075ZM970.164 895.484C964.289 896.327 954.225 895.484 949.179 891.282C944.147 886.249 940.788 877.858 944.147 871.983C944.147 866.107 949.179 861.075 952.539 860.232C958.414 858.559 964.289 856.873 968.478 858.559C970.151 860.232 972.681 860.232 973.511 860.232C975.184 860.232 976.87 858.559 977.713 858.559L979.386 860.232C979.386 863.591 977.713 866.107 977.713 870.309C977.713 871.983 979.386 872.826 977.713 872.826C975.197 872.826 975.197 870.31 975.197 868.623C971.007 863.591 970.164 861.075 963.446 861.075C959.257 860.232 954.212 862.748 952.539 866.107C949.179 872.826 950.022 882.06 954.212 887.092C958.401 891.282 961.773 892.125 966.805 891.282C970.164 889.608 973.524 887.092 975.197 882.89H977.713C977.713 882.89 979.386 884.563 979.386 886.249C979.399 889.608 973.524 892.112 970.164 895.484ZM939.945 871.983C937.429 867.793 935.756 862.748 930.723 861.075C929.05 860.232 926.521 861.075 925.678 862.748C924.005 865.264 924.005 868.623 925.678 870.309C930.723 874.499 942.461 877.858 940.788 887.092C939.945 891.282 937.429 895.484 933.226 896.327C926.508 898 921.476 895.484 916.444 891.282H914.771C913.877 894.017 912.103 896.379 909.725 898H908.052C909.725 891.282 911.411 886.249 913.927 882.06C913.927 882.06 913.928 882.89 914.771 882.89C916.444 888.765 921.489 892.112 925.678 892.112C930.723 893.798 934.07 888.765 930.723 882.89C928.207 879.531 921.489 877.858 917.287 871.983C916.444 868.623 916.444 865.264 918.96 862.748C923.162 856.03 930.71 856.873 935.743 860.232C938.259 860.232 939.932 858.559 940.775 858.559C940.788 860.232 940.788 870.309 939.945 871.983Z" fill="#0C0E0F"/>
    <path fill-rule="evenodd" clip-rule="evenodd" d="M868.611 982.757V799.806H881.205V971.007H1201.8V799.806H1213.53V982.757H868.611Z" fill="#D06332"/>
    <path fill-rule="evenodd" clip-rule="evenodd" d="M866.108 914.796V952.538L833.372 934.069L866.108 914.796ZM866.108 816.589V854.357L833.372 835.058L866.108 816.589Z" fill="#B2A43F"/>
    <path fill-rule="evenodd" clip-rule="evenodd" d="M856.031 926.521C860.233 926.521 862.749 930.723 862.749 934.069C862.749 938.271 860.233 940.787 856.031 940.787C851.828 940.787 848.469 938.284 848.469 934.069C848.469 930.736 851.828 926.521 856.031 926.521Z" fill="#0C0E0F"/>
    <path fill-rule="evenodd" clip-rule="evenodd" d="M856.03 927.363C860.233 927.363 862.749 930.735 862.749 934.082C862.749 938.284 860.233 940.8 856.03 940.8C851.828 940.8 849.312 938.297 849.312 934.082C849.312 930.735 851.828 927.363 856.03 927.363Z" fill="#FAE935"/>
    <path fill-rule="evenodd" clip-rule="evenodd" d="M856.031 828.339C860.233 828.339 862.749 830.855 862.749 835.057C862.749 839.259 860.233 842.619 856.031 842.619C851.828 842.619 848.469 839.259 848.469 835.057C848.469 830.855 851.828 828.339 856.031 828.339Z" fill="#0C0E0F"/>
    <path fill-rule="evenodd" clip-rule="evenodd" d="M856.03 828.339C860.233 828.339 862.749 832.541 862.749 835.057C862.749 839.259 860.233 841.776 856.03 841.776C851.828 841.776 849.312 839.259 849.312 835.057C849.312 832.541 851.828 828.339 856.03 828.339Z" fill="#FAE935"/>
    <path fill-rule="evenodd" clip-rule="evenodd" d="M1052.41 1153.14C1052.41 1151.44 1050.73 1149.77 1049.89 1148.94C1043.17 1153.14 1028.9 1153.14 1035.61 1144.74C1033.94 1144.74 1032.25 1143.91 1028.89 1144.74C1021.34 1144.74 1012.11 1144.74 1005.39 1149.78C999.515 1143.91 991.966 1139.73 985.248 1137.19C982.732 1137.19 981.889 1134.69 980.216 1134.69C979.373 1141.4 975.17 1142.23 968.465 1141.4C968.465 1143.91 970.981 1146.45 970.138 1147.28C970.138 1147.28 964.263 1146.45 955.871 1147.28C951.669 1147.28 947.48 1146.45 946.637 1147.28C947.48 1147.28 951.669 1149.78 951.669 1151.46C949.153 1158.17 940.762 1159.86 939.919 1162.38C940.762 1164.88 942.435 1164.88 944.951 1167.42C944.951 1168.25 937.402 1174.97 935.729 1177.47C937.402 1180 944.121 1180 944.121 1181.67C939.919 1185.88 934.056 1190.9 934.056 1195.94H939.932C935.742 1202.66 931.54 1209.37 930.71 1216.91C930.71 1218.61 933.226 1218.61 933.226 1218.61C931.553 1221.96 930.71 1224.49 929.037 1226.99C926.521 1228.66 917.286 1211.89 917.286 1197.63C917.286 1170.75 923.162 1176.63 923.162 1170.75C923.162 1164.88 916.443 1165.74 913.927 1162.38C908.052 1153.15 893.785 1149.78 887.067 1156.5C891.269 1158.17 893.785 1158.17 896.301 1163.22C897.987 1165.75 895.471 1167.42 895.471 1168.26C892.955 1168.26 891.269 1169.94 888.753 1168.26C884.551 1164.89 872.813 1159.89 865.252 1168.26C871.97 1169.94 878.675 1174.14 878.675 1181.69C877.002 1189.24 868.598 1177.49 868.598 1177.49C863.566 1182.53 863.566 1195.95 872.8 1197.65C876.989 1197.65 874.473 1202.67 878.675 1202.67C881.191 1205.2 884.551 1202.67 887.067 1203.5C888.753 1205.2 890.426 1206.88 887.067 1207.71C884.551 1209.38 882.035 1209.38 879.518 1209.38C878.675 1210.21 879.518 1211.91 879.518 1212.75C882.035 1218.63 886.237 1221.13 891.269 1221.13C893.785 1221.13 893.785 1223.63 892.942 1226.17C884.551 1231.22 878.675 1231.22 874.473 1240.44C876.989 1240.44 882.035 1240.44 882.035 1242.97C882.035 1245.47 879.518 1247.99 877.002 1249.69C877.002 1251.36 875.316 1251.36 875.316 1251.36C878.675 1252.19 882.035 1251.36 883.708 1252.19C886.224 1256.39 874.473 1261.41 875.316 1266.46C881.205 1265.63 887.067 1265.63 888.753 1270.66C888.753 1274.84 886.237 1278.21 883.708 1282.41C887.067 1282.41 891.269 1278.21 893.772 1282.41C895.458 1284.08 886.224 1287.43 886.224 1292.46C890.413 1292.46 891.256 1289.96 896.288 1292.46C898.804 1296.66 887.054 1300.87 886.224 1301.71C890.413 1308.43 907.196 1305.89 913.914 1301.71C916.43 1313.43 931.54 1313.43 930.697 1315.13C926.495 1319.31 923.979 1326.88 923.979 1331.07C926.495 1342.82 918.934 1352.91 905.51 1352.91C898.791 1352.91 891.243 1352.06 888.727 1343.67C887.041 1336.12 881.166 1336.12 875.29 1340.32C867.742 1336.12 857.677 1342.82 854.318 1350.37C860.193 1349.54 875.29 1352.9 866.069 1363.8C860.193 1363.8 853.475 1367.17 851.789 1378.09C879.492 1371.37 876.963 1389.81 857.664 1394.86C868.572 1404.08 874.447 1401.58 884.512 1396.53C886.198 1394.86 887.028 1397.36 888.714 1397.36C897.948 1399.89 896.262 1387.31 900.452 1387.31C901.295 1387.31 902.968 1387.31 902.968 1388.14C905.484 1393.19 900.452 1396.52 902.968 1399.06C912.202 1399.06 918.908 1385.64 917.235 1378.09C919.751 1375.56 923.11 1372.19 925.626 1372.19C930.671 1371.38 934.017 1380.59 955.846 1375.56C956.689 1373.89 952.486 1371.38 955.846 1369.68C959.205 1368.85 963.407 1367.18 965.923 1366.34C970.112 1362.14 976.831 1363.81 980.19 1359.62C979.347 1359.62 977.674 1357.92 976.831 1357.09C977.674 1355.42 985.222 1355.42 985.222 1352.91C984.379 1352.06 982.706 1352.06 981.863 1350.39C980.19 1350.39 999.476 1341.16 999.476 1338.64C999.476 1338.64 991.927 1331.09 994.444 1329.41C999.476 1327.74 1003.68 1326.91 1006.19 1322.7C1012.07 1321.87 1036.41 1313.45 1045.65 1310.1C1045.65 1319.32 1047.32 1324.37 1050.68 1326.9L1052.35 1298.35C1049.84 1299.18 1047.32 1300.88 1043.13 1301.72H1042.29C1044.81 1298.35 1049.85 1294.15 1052.37 1289.13C1042.29 1294.15 1035.58 1300.88 1021.32 1307.6C1017.96 1307.6 1017.96 1308.43 1017.96 1307.6C1019.63 1301.72 1022.15 1300.88 1024.68 1292.48C1023.83 1292.48 1022.16 1294.15 1021.32 1294.15C1006.21 1305.07 998.659 1315.15 985.235 1310.94C986.908 1313.45 991.11 1319.32 998.659 1321.87C994.457 1325.21 981.876 1324.37 975.157 1320.19C975.157 1326.91 985.235 1331.09 988.594 1331.92C981.876 1336.12 968.452 1331.92 961.734 1329.41V1331.09C966.766 1338.64 981.876 1340.33 989.424 1340.33C977.674 1346.18 966.766 1347.88 955.858 1341.16C954.185 1345.34 965.936 1352.91 970.125 1354.59C970.125 1357.09 954.185 1355.42 946.624 1347.87C944.108 1352.05 955.858 1359.62 958.375 1360.46C951.656 1366.34 934.043 1357.93 937.402 1359.63C935.729 1359.63 935.729 1357.93 935.729 1359.63C937.402 1364.65 942.448 1367.18 947.48 1368.85C938.245 1375.57 930.697 1367.18 926.495 1364.65C923.979 1363.82 914.744 1373.9 913.901 1373.9V1383.12C912.228 1385.65 909.699 1392.37 907.183 1392.37C905.51 1390.67 908.026 1384.82 904.68 1382.29C893.759 1378.12 895.445 1389.84 890.4 1392.37C884.525 1396.55 876.976 1385.65 876.976 1384.82C876.976 1383.12 878.649 1378.95 882.009 1382.29C886.211 1382.29 886.211 1378.95 886.211 1378.95C886.211 1375.57 884.525 1372.2 879.493 1372.2C878.649 1373.9 878.649 1378.1 875.29 1376.4C870.258 1372.2 870.258 1362.14 872.787 1362.14C876.976 1360.46 876.976 1366.34 882.009 1364.64C884.525 1362.14 884.525 1355.42 882.009 1354.59C878.649 1352.91 875.29 1357.09 872.787 1354.59C874.46 1347.87 878.662 1342.84 881.179 1342.84C886.211 1342.84 884.525 1350.39 891.243 1354.59C900.465 1359.63 912.228 1359.63 917.26 1357.09C940.762 1346.17 930.697 1329.4 939.919 1325.2C955.858 1317.65 949.153 1310.1 954.185 1305.9C955.859 1307.6 955.858 1315.15 960.904 1315.15C961.747 1308.43 963.42 1301.72 970.138 1305.07C972.654 1308.44 976.857 1312.62 980.216 1315.15V1301.72C986.934 1308.44 996.986 1307.6 996.986 1305.07C994.469 1303.4 989.437 1296.69 991.11 1295.02C996.143 1298.36 1006.22 1295.02 1005.38 1292.49C1003.7 1291.66 1002.86 1289.99 1002.86 1289.14C1003.7 1286.61 1010.42 1286.61 1012.1 1286.61C1012.1 1282.44 1006.22 1274.86 1012.93 1268.14C1015.44 1270.67 1017.13 1273.19 1022.16 1274.86L1023.83 1273.19C1022.16 1269.01 1021.32 1263.97 1023.83 1261.44C1035.58 1261.44 1043.15 1261.44 1052.37 1258.94V1207.74C1050.69 1207.74 1048.18 1206.91 1047.33 1201.03C1045.66 1195.98 1040.62 1192.65 1033.91 1190.95C1036.43 1188.45 1035.58 1184.23 1035.58 1182.57C1038.94 1181.74 1043.14 1181.74 1045.66 1182.57C1049.86 1186.77 1047.33 1193.49 1052.38 1203.54V1174.96C1052.38 1174.13 1050.71 1174.13 1049.86 1172.45C1050.69 1170.75 1052.38 1169.92 1052.38 1168.25V1153.14H1052.41ZM1052.41 1336.92C1049.89 1336.09 1045.69 1334.42 1043.18 1333.58C1038.98 1331.05 1038.14 1324.33 1031.43 1324.33C1029.76 1325.16 1027.24 1325.16 1026.4 1326.86C1018.01 1321.81 1005.42 1329.36 1006.26 1340.28C1012.13 1336.91 1017.17 1336.91 1019.68 1345.3C1018.01 1346.13 1018.01 1347.83 1017.17 1347.83C1005.42 1341.11 997.024 1359.58 999.541 1362.1C1003.74 1359.59 1010.45 1357.9 1014.65 1360.42C1017.17 1363.77 1017.17 1366.3 1017.17 1368.8C1009.61 1371.33 1005.42 1373.85 1002.9 1387.27C1002.9 1387.27 1003.74 1387.27 1003.74 1388.1C1010.46 1382.23 1017.17 1382.23 1024.73 1383.06C1027.24 1387.26 1031.45 1388.1 1036.48 1385.59C1042.35 1382.21 1044.87 1375.51 1049.92 1372.14C1050.75 1372.14 1052.43 1371.33 1052.43 1373.84C1054.1 1378.04 1049.92 1382.21 1045.71 1384.76C1045.71 1385.59 1048.23 1387.26 1052.43 1387.26V1367.12C1045.71 1367.12 1040.68 1371.32 1036.49 1378.04C1033.98 1378.87 1031.46 1380.54 1028.93 1380.54C1024.74 1378.87 1019.7 1368.79 1026.41 1366.27C1027.26 1364.57 1028.93 1367.1 1031.45 1366.27C1032.5 1365.8 1033.35 1364.97 1033.85 1363.92C1034.34 1362.88 1034.45 1361.69 1034.14 1360.57C1033.84 1359.46 1033.15 1358.49 1032.19 1357.84C1031.24 1357.19 1030.08 1356.9 1028.93 1357.03C1026.41 1357.03 1023.9 1363.74 1021.38 1359.56C1019.7 1355.35 1021.38 1345.26 1027.26 1346.11C1028.93 1347.8 1029.77 1350.31 1031.45 1350.31C1038.16 1350.31 1036.48 1343.59 1035.64 1341.09C1032.28 1340.26 1027.26 1342.76 1026.41 1340.26C1024.74 1336.05 1028.93 1329.34 1032.29 1329.34C1038.16 1329.34 1036.49 1336.05 1042.35 1336.88C1044.87 1338.56 1049.92 1338.56 1052.43 1341.09V1336.92H1052.41ZM883.721 1189.21C887.08 1186.71 890.439 1193.41 891.282 1188.38C893.798 1179.16 884.564 1182.51 884.564 1179.16C885.428 1176.72 887.018 1174.61 889.119 1173.11C891.22 1171.61 893.731 1170.79 896.314 1170.75C900.503 1170.75 893.798 1179.16 903.033 1179.16C912.267 1172.44 901.359 1170.75 901.359 1169.91C901.359 1164.87 914.796 1165.74 916.469 1168.24C917.312 1169.91 917.312 1170.74 916.469 1172.44C914.796 1174.94 912.28 1179.16 911.437 1182.49C911.437 1195.92 907.235 1214.38 912.267 1224.46C914.783 1228.64 918.985 1228.64 921.502 1231.18C925.691 1233.68 934.095 1253.83 934.095 1254.67C930.736 1258.87 928.22 1261.39 925.704 1263.92C925.704 1265.59 928.22 1266.42 930.749 1266.42C933.265 1266.42 924.031 1277.34 918.998 1278.17C918.998 1278.17 917.325 1278.17 918.998 1279.84C921.515 1284.05 926.56 1282.37 931.592 1284.05C929.076 1289.92 926.56 1289.92 924.044 1296.64C925.717 1299.14 938.31 1294.97 940.827 1296.64C940.827 1308.39 919.841 1308.39 917.325 1294.97H916.482C904.745 1303.34 896.34 1300.84 895.51 1300.84C908.091 1294.1 905.575 1291.59 912.293 1280.67C909.777 1278.17 901.386 1287.39 896.353 1284.88C898.869 1284.05 900.542 1280.67 903.072 1275.65C905.588 1268.94 911.463 1266.41 911.463 1266.41C908.104 1263.9 893.837 1274.78 893.837 1274.78C898.039 1261.36 904.758 1259.69 905.588 1252.14H904.758C895.523 1261.36 888.818 1262.19 882.086 1262.19C883.76 1257.17 904.758 1253.81 904.758 1242.05C904.758 1239.55 901.398 1244.58 898.039 1245.42C891.321 1247.09 887.119 1247.92 886.289 1247.09C890.478 1240.38 893.837 1240.38 898.869 1235.34V1233.67C893.427 1235.32 887.773 1236.16 882.086 1236.17L883.76 1235.34C890.478 1230.3 898.869 1231.17 898.869 1223.59C898.933 1222.28 898.659 1220.97 898.073 1219.8C897.487 1218.62 896.609 1217.61 895.523 1216.87C891.321 1216.87 883.773 1215.2 883.773 1211.86C891.334 1212.69 898.052 1209.33 895.523 1202.61C893.007 1197.59 887.132 1198.43 882.086 1200.11C877.002 1195.93 882.047 1189.21 883.721 1189.21ZM870.297 1184.18C870.297 1184.18 871.97 1186.71 875.329 1189.22C877.015 1190.9 875.329 1193.43 875.329 1195.1C871.97 1195.09 867.781 1185.86 870.297 1184.18ZM874.486 1167.41C878.688 1165.74 884.551 1167.41 886.237 1169.91C886.237 1170.74 883.721 1174.96 882.035 1174.11C878.688 1167.41 871.97 1168.24 874.486 1167.41ZM908.052 1162.36H907.209C904.706 1162.36 903.02 1164.87 900.491 1162.36C898.817 1159.86 897.987 1158.16 896.301 1156.49C900.503 1155.64 904.706 1158.16 908.052 1162.36ZM867.781 1367.14V1372.16C863.592 1371.36 862.749 1371.36 857.716 1372.16C858.546 1367.14 866.108 1366.31 867.781 1367.14ZM872.813 1342.8C874.486 1343.63 871.97 1346.14 870.297 1347.84C870.297 1349.52 866.108 1346.14 861.062 1346.14C863.579 1342.8 868.611 1342.8 872.813 1342.8ZM875.329 1388.11C877.015 1387.28 879.531 1393.16 878.688 1393.16C875.329 1397.34 867.781 1396.51 865.265 1394.83C868.611 1393.16 871.97 1390.63 875.329 1388.11ZM955.897 1245.45C955.897 1251.32 955.897 1259.71 950.022 1268.09C944.977 1275.67 931.553 1277.34 926.521 1278.17C940.788 1268.96 946.663 1257.2 955.897 1245.45ZM963.446 1236.2C963.916 1234.78 964.813 1233.53 966.014 1232.63C967.216 1231.73 968.665 1231.23 970.164 1231.18C970.164 1235.36 973.523 1239.56 972.68 1242.08C968.478 1247.95 963.446 1265.58 963.446 1273.14C961.773 1280.69 947.506 1294.98 931.553 1292.44C970.164 1268.96 952.538 1251.32 963.446 1236.2ZM964.289 1211.88C966.805 1214.38 968.491 1218.6 971.007 1221.1C970.164 1221.93 970.164 1223.61 970.164 1224.48C970.164 1226.98 966.805 1226.15 965.975 1226.98C951.695 1233.7 955.897 1251.32 935.755 1261.37C949.179 1247.96 946.663 1223.62 964.289 1211.88ZM963.446 1186.71C961.773 1192.58 961.773 1192.58 959.257 1195.93C949.179 1200.13 951.695 1210.2 938.271 1212.72C937.441 1212.72 935.755 1214.4 935.755 1212.72C937.441 1198.46 951.695 1189.21 963.446 1186.71ZM959.257 1200.96C960.93 1203.46 961.773 1206.84 963.446 1209.34C951.695 1216.89 950.022 1228.64 938.271 1226.14C938.271 1226.14 935.755 1226.14 937.441 1224.46C952.538 1211.88 950.022 1205.18 959.257 1200.96ZM960.93 1177.46C961.773 1177.46 963.446 1179.99 964.289 1179.99C965.975 1181.66 964.289 1182.49 964.289 1182.49C960.93 1186.69 954.224 1185.86 944.147 1188.37C944.147 1189.2 942.474 1189.2 942.474 1188.37C946.663 1182.51 956.74 1179.16 960.93 1177.46ZM944.99 1174.11C949.192 1170.74 954.224 1169.91 959.27 1168.24V1174.11C954.224 1174.11 950.035 1174.94 944.16 1174.94C940.788 1174.96 944.99 1174.11 944.99 1174.11ZM963.446 1159.86C960.93 1160.69 960.93 1163.21 959.257 1164.88C955.897 1164.88 950.022 1163.21 947.506 1160.7C956.74 1153.14 964.289 1158.16 963.446 1159.86ZM975.196 1158.16C973.523 1159.86 972.68 1155.66 965.975 1158.16C965.975 1158.16 963.459 1158.16 961.773 1155.66C960.93 1153.15 959.257 1153.98 955.897 1149.78C964.289 1149.77 971.007 1149.77 975.196 1158.16ZM963.446 1280.69C963.446 1284.89 964.276 1289.93 965.962 1294.98C963.446 1296.65 961.76 1296.65 959.244 1301.7C958.401 1303.37 954.198 1291.62 956.727 1286.57C959.257 1284.89 960.93 1282.39 963.446 1280.69ZM966.805 1162.36C971.007 1160.69 975.196 1160.69 977.713 1165.74C981.915 1165.74 988.62 1167.41 991.979 1168.24C994.495 1169.91 996.169 1172.44 996.169 1174.96C994.495 1179.16 994.495 1180 993.652 1182.51C989.45 1181.67 977.713 1169.91 977.713 1169.91C976.869 1169.91 976.869 1174.96 968.478 1174.96C964.289 1174.11 963.446 1165.74 966.805 1162.36ZM970.164 1184.18C971.007 1181.67 970.164 1179.16 972.68 1179.16C973.51 1177.46 975.196 1176.63 976.87 1174.96C977.713 1174.96 979.386 1177.46 980.229 1179.16C979.386 1182.51 976.87 1185.88 976.87 1189.21C977.713 1189.21 977.713 1190.88 979.386 1190.88C981.902 1189.21 985.261 1186.71 985.261 1184.17H986.934C988.607 1184.17 988.607 1184.17 989.45 1185.86C989.45 1186.69 988.62 1188.37 986.934 1190.88C985.261 1193.41 981.902 1195.09 980.216 1195.93C979.373 1197.63 976.857 1195.93 977.7 1198.46C977.7 1200.13 979.373 1202.63 980.216 1203.48C981.889 1205.18 982.732 1202.65 985.248 1203.48C984.405 1205.18 984.405 1206.85 982.732 1207.68C981.902 1207.68 979.373 1207.68 977.7 1206.85C976.857 1206.85 975.183 1205.18 975.183 1203.48C975.183 1200.97 975.183 1200.13 973.51 1198.46C972.68 1198.46 970.994 1197.63 970.151 1198.46C970.151 1198.46 968.478 1200.13 968.478 1200.96C968.478 1202.63 970.151 1202.63 970.994 1203.46C973.51 1205.16 973.51 1206.84 973.51 1207.67C975.183 1209.34 979.386 1210.17 976.87 1211.87C976.87 1212.7 975.196 1214.37 975.196 1215.21C973.523 1215.21 973.523 1214.38 972.68 1212.71C970.164 1209.34 966.805 1205.16 964.289 1200.12C965.975 1195.09 968.491 1189.21 970.164 1184.18ZM966.805 1268.96C966.805 1263.92 970.164 1249.66 975.196 1242.94V1244.62C979.399 1244.62 979.399 1242.94 982.758 1240.42C982.758 1263.92 970.164 1259.71 976.882 1305.87C966.805 1298.31 965.975 1279.86 966.805 1268.96ZM973.523 1144.74C982.758 1148.94 989.463 1156.49 988.633 1162.36H980.242C977.725 1156.49 973.523 1151.44 973.523 1144.74ZM980.242 1212.72C980.242 1211.89 981.915 1212.72 981.915 1212.72C980.242 1218.6 979.399 1223.62 979.399 1226.99C979.399 1228.66 980.242 1228.66 980.242 1228.66C982.758 1224.49 986.96 1210.2 988.633 1214.4C991.992 1223.62 980.242 1237.9 977.725 1236.21C976.882 1236.2 973.523 1221.1 980.242 1212.72ZM985.274 1237.9C986.947 1236.2 989.463 1232.85 991.149 1231.18C998.711 1249.65 980.242 1274.8 996.181 1291.59C988.633 1292.42 985.274 1282.37 984.431 1284.88C984.431 1289.92 986.947 1294.95 988.633 1300.83C979.399 1299.13 977.726 1286.54 979.399 1272.28C980.242 1258.87 986.947 1251.32 985.274 1237.9ZM991.992 1186.71H993.665C994.495 1188.38 989.463 1193.43 993.665 1200.13C994.495 1202.63 996.181 1202.63 993.665 1205.18C993.665 1205.18 991.992 1206.85 991.992 1205.18L989.476 1200.13C986.96 1198.46 984.444 1200.96 980.255 1200.96V1198.46C986.947 1197.63 989.463 1192.58 991.992 1186.71ZM985.274 1142.22C993.665 1146.42 998.698 1149.77 1001.21 1155.64C999.541 1159.85 998.698 1162.36 998.698 1167.4C997.012 1167.4 997.011 1164.87 991.979 1163.19C989.463 1155.64 988.633 1149.77 985.274 1142.22ZM988.633 1205.18C988.633 1202.65 989.463 1207.68 991.992 1207.68C994.508 1209.35 994.508 1206.85 998.711 1205.18C998.711 1205.18 998.711 1203.48 997.024 1202.65C994.508 1198.47 994.508 1193.43 997.024 1188.38H999.541C1002.9 1190.88 998.711 1195.93 1001.21 1197.63C1002.89 1198.46 1003.73 1200.13 1005.42 1200.13C1009.61 1198.46 1006.25 1193.41 1007.93 1192.58C1010.45 1189.21 1012.96 1186.71 1015.49 1186.71C1015.49 1188.38 1015.49 1189.21 1017.17 1190.88C1017.17 1192.58 1021.37 1193.41 1018.01 1195.09C1015.49 1198.46 1014.65 1203.46 1012.96 1207.68C1012.13 1212.72 1001.21 1216.9 991.992 1221.95C991.149 1221.12 991.992 1218.6 991.149 1214.4C993.665 1212.72 996.181 1214.4 998.711 1212.72C999.541 1211.89 1003.74 1212.72 1005.43 1210.2C1005.43 1209.37 1003.76 1206.85 1001.23 1207.69C1001.23 1207.69 999.554 1207.69 999.554 1209.37C998.724 1211.89 989.489 1210.2 986.973 1209.37C986.947 1207.68 988.633 1206.85 988.633 1205.18ZM993.665 1226.15C996.181 1226.15 998.698 1224.48 1001.21 1223.62C1005.42 1228.66 1005.42 1244.62 1005.42 1249.66C1003.74 1261.39 1002.9 1266.43 1005.42 1280.7C998.698 1275.68 997.025 1272.32 994.508 1265.6C993.678 1253.85 998.711 1242.1 993.678 1231.21C993.665 1230.32 991.149 1226.98 993.665 1226.15ZM1006.25 1174.11C1012.12 1172.44 1017.15 1176.62 1018 1181.66C1018 1181.66 1019.67 1181.66 1021.36 1179.99C1023.87 1179.99 1026.39 1179.99 1028.9 1182.49C1029.75 1184.17 1029.75 1185.86 1028.9 1186.69C1027.23 1189.2 1022.19 1193.41 1018 1189.2C1018 1186.69 1019.67 1184.15 1017.15 1184.15C1012.95 1182.48 1002.89 1186.68 997.011 1184.15C997.011 1179.99 1001.21 1174.11 1006.25 1174.11ZM1019.67 1147.27C1022.19 1147.27 1024.71 1147.27 1027.23 1148.94C1026.39 1148.94 1026.39 1149.77 1024.71 1149.77C1018 1155.64 1012.96 1162.36 1007.93 1168.24L1001.21 1167.41C1002.89 1160.69 1006.25 1148.94 1019.67 1147.27ZM1015.48 1350.35C1017.15 1352.02 1015.48 1350.35 1015.48 1357.07H1012.96C1009.61 1355.39 1006.25 1355.39 1003.74 1357.07C1005.42 1352.02 1012.12 1350.35 1015.48 1350.35ZM1012.12 1218.6C1015.48 1224.48 1015.48 1232.87 1017.15 1240.42C1019.67 1249.66 1017.15 1257.21 1015.48 1265.59C1006.25 1257.21 1010.45 1244.62 1007.92 1233.7C1006.25 1230.32 1005.4 1226.15 1003.73 1221.95C1002.89 1221.95 1009.61 1219.43 1012.12 1218.6ZM1018.01 1373.86C1018.01 1375.53 1018.01 1376.36 1019.68 1378.91H1018.01C1012.13 1378.91 1010.45 1380.58 1006.26 1382.25C1006.25 1378.06 1014.64 1371.34 1018.01 1373.86ZM1023.87 1331.05C1022.2 1333.58 1021.36 1336.09 1021.36 1336.92C1021.36 1338.6 1019.67 1336.92 1019.67 1336.92C1017.15 1336.09 1014.64 1334.42 1012.12 1334.42C1014.64 1331.05 1021.36 1327.7 1023.87 1331.05ZM1029.75 1155.64C1036.47 1153.97 1043.18 1156.47 1048.22 1155.64H1049.89C1047.37 1159.85 1042.33 1158.15 1036.45 1159.85C1026.39 1160.68 1023.86 1163.19 1017.15 1170.74C1014.64 1170.74 1014.64 1169.91 1012.95 1169.91C1017.17 1159.86 1021.36 1158.16 1029.75 1155.64ZM1015.48 1214.4C1017.15 1212.72 1018 1209.35 1018 1209.35C1023.87 1215.23 1027.23 1224.48 1028.9 1235.37C1029.75 1247.12 1035.62 1252.17 1033.95 1252.17C1029.75 1251.34 1026.39 1247.96 1023.87 1244.62C1021.36 1239.57 1021.36 1231.19 1014.64 1215.23C1014.64 1214.4 1014.64 1215.23 1015.48 1214.4ZM1018.01 1172.44C1031.43 1159.85 1038.15 1162.36 1049.9 1159.85L1050.73 1160.68C1049.9 1164.85 1047.37 1169.9 1043.18 1169.9C1036.47 1170.73 1031.43 1169.9 1024.71 1174.94C1023.87 1174.94 1023.87 1174.11 1021.36 1174.94C1021.36 1174.96 1017.17 1172.44 1018.01 1172.44ZM1022.2 1200.13C1023.87 1198.46 1024.72 1200.13 1026.4 1200.96C1038.99 1211.88 1031.43 1233.68 1045.7 1247.12C1047.37 1247.95 1038.14 1245.45 1035.62 1242.94C1028.9 1231.19 1031.43 1221.1 1021.36 1206.85C1019.67 1205.18 1022.2 1200.13 1022.2 1200.13ZM1032.26 1193.41C1036.47 1195.09 1042.33 1197.61 1043.18 1202.63C1048.22 1216.9 1045.7 1224.48 1050.73 1244.6C1042.34 1244.6 1040.67 1221.93 1036.47 1211.88C1033.95 1206.84 1029.75 1200.96 1024.71 1197.61C1031.43 1195.09 1032.26 1193.41 1032.26 1193.41ZM1050.73 1177.46C1050.73 1179.16 1050.73 1179.16 1049.9 1179.16C1043.18 1181.66 1040.67 1177.46 1035.62 1179.99C1033.95 1181.66 1033.95 1179.16 1031.43 1179.16C1029.76 1176.63 1028.92 1176.63 1028.92 1176.63C1036.47 1172.44 1042.33 1170.74 1050.73 1177.46Z" fill="#0C0E0F"/>
    <path fill-rule="evenodd" clip-rule="evenodd" d="M1052.41 1153.14C1054.92 1159.86 1054.92 1163.19 1052.41 1168.24V1153.14ZM1052.41 1174.96C1054.92 1179.16 1057.44 1182.5 1059.12 1181.67C1068.36 1169.92 1087.66 1165.73 1085.15 1158.17C1082.63 1149.8 1075.91 1149.8 1069.2 1149.8C1070.87 1144.75 1078.45 1144.75 1087.67 1144.75C1087.67 1141.4 1086.84 1138.03 1087.67 1135.53C1101.94 1138.03 1107.81 1154 1116.19 1155.67C1124.6 1156.5 1133.82 1151.47 1140.54 1146.45H1141.37C1140.54 1162.39 1157.32 1149.8 1162.36 1153.17C1163.19 1167.43 1138.86 1170.77 1136.35 1177.49C1133.82 1184.2 1138.85 1185.89 1140.52 1188.41C1138.85 1189.24 1129.63 1189.24 1130.47 1193.45C1134.65 1198.5 1145.57 1195.95 1146.41 1192.62C1150.61 1184.22 1143.91 1181.7 1143.91 1180.03C1145.58 1179.2 1148.95 1181.7 1152.29 1179.2C1153.12 1176.67 1150.61 1175 1150.61 1174.15C1155.66 1174.98 1160.66 1179.2 1169.91 1176.66C1173.26 1174.98 1169.91 1172.48 1171.58 1169.94C1176.63 1170.77 1181.66 1176.66 1185.85 1179.18C1190.05 1177.49 1188.38 1172.47 1187.55 1165.76C1192.57 1164.9 1197.6 1180.03 1204.32 1181.7C1206.82 1182.53 1209.37 1179.2 1209.37 1176.66C1211.04 1176.66 1211.04 1177.49 1211.04 1179.18C1220.29 1211.91 1230.34 1180.01 1235.38 1185.9C1237.06 1185.9 1235.38 1186.73 1235.38 1186.73C1232.88 1189.24 1232.01 1195.11 1232.88 1198.48C1238.73 1218.63 1217.76 1223.63 1218.59 1223.63C1220.29 1268.12 1174.1 1268.97 1150.63 1263.93C1157.34 1278.2 1174.11 1279.87 1175.8 1292.45C1176.63 1296.65 1178.3 1308.4 1181.68 1312.59C1188.39 1316.79 1200.12 1310.09 1205.99 1305.87C1216.07 1307.57 1216.07 1313.42 1217.74 1315.12C1227.82 1316.79 1235.37 1310.08 1244.59 1307.57C1247.12 1310.08 1239.57 1319.3 1243.76 1317.62C1244.59 1317.62 1244.59 1316.79 1246.29 1317.62C1247.12 1322.67 1243.76 1327.7 1244.59 1331.05C1246.29 1331.88 1247.12 1331.88 1250.47 1333.58C1248.79 1336.08 1246.29 1334.41 1243.75 1340.3C1244.58 1341.13 1250.47 1341.13 1253 1341.13C1250.47 1346.14 1241.25 1352.02 1239.57 1354.55C1241.25 1355.38 1244.59 1355.38 1246.29 1355.38C1246.29 1359.58 1238.72 1360.42 1237.04 1363.76C1238.72 1364.59 1239.57 1364.59 1241.25 1366.29C1238.72 1369.63 1227.82 1373.83 1230.32 1375.51C1232 1376.34 1234.53 1378.04 1237.04 1378.88C1228.66 1385.6 1223.62 1387.26 1214.4 1387.26C1214.4 1390.6 1214.4 1393.13 1211.03 1396.48C1209.35 1399.01 1204.31 1401.53 1200.11 1401.53C1202.63 1393.15 1200.11 1385.59 1193.39 1385.59C1193.39 1387.26 1192.56 1387.26 1192.56 1388.09C1195.09 1396.47 1190.88 1404.88 1179.13 1404.03C1174.09 1410.77 1158.16 1410.77 1150.61 1401.53V1399.02C1157.33 1399.02 1160.66 1399.02 1166.55 1396.49C1166.55 1393.15 1166.55 1392.32 1164.88 1390.62C1158.16 1389.79 1150.61 1393.15 1143.91 1396.49C1143.08 1387.27 1148.95 1375.52 1157.33 1375.52C1159.83 1367.14 1160.68 1369.65 1160.68 1367.14C1157.33 1364.61 1150.63 1363.77 1145.58 1363.77C1143.91 1363.77 1143.08 1364.6 1141.38 1363.77C1148.1 1350.35 1158.17 1349.5 1166.55 1352.88C1169.08 1350.35 1173.27 1347.83 1175.8 1349.5C1180.85 1349.5 1181.68 1357.88 1185.02 1360.42C1190.07 1362.1 1195.94 1354.55 1195.94 1349.5C1195.94 1338.58 1178.32 1336.91 1169.09 1338.58C1160.69 1340.28 1153.14 1338.58 1145.59 1333.56C1140.55 1329.36 1134.67 1325.16 1129.65 1320.14C1127.95 1319.28 1127.95 1320.14 1127.95 1321.81C1127.12 1325.16 1124.61 1331.03 1127.95 1336.08C1132.16 1338.58 1140.55 1341.13 1141.38 1347.83C1140.55 1350.33 1140.55 1354.55 1137.2 1357.05C1133.83 1359.58 1127.95 1362.1 1127.95 1367.13C1127.12 1373.85 1127.95 1375.51 1133.83 1382.23C1127.95 1384.76 1120.41 1382.23 1116.2 1380.55C1115.37 1380.55 1111.18 1388.1 1110.35 1390.6C1106.15 1392.3 1103.64 1382.23 1101.95 1383.06C1101.12 1384.76 1096.9 1389.77 1096.9 1392.3C1094.4 1393.13 1091.89 1383.06 1090.19 1382.23C1087.68 1384.76 1085.17 1388.1 1085.17 1392.3C1082.64 1390.6 1080.96 1388.1 1078.45 1385.59C1075.08 1389.76 1069.2 1392.3 1064.17 1390.6C1062.5 1389.77 1066.69 1385.59 1065 1384.76C1065 1383.06 1064.17 1384.76 1064.17 1384.76C1062.5 1387.26 1057.45 1387.26 1052.42 1387.26V1367.12C1057.45 1366.29 1062.48 1368.79 1068.36 1372.14C1070.86 1375.51 1070.86 1380.54 1069.19 1384.76C1069.19 1385.59 1066.67 1387.26 1068.36 1388.1C1080.11 1384.76 1075.91 1372.15 1078.44 1369.63C1080.11 1368.8 1080.11 1369.63 1080.11 1369.63C1080.11 1375.51 1078.44 1382.23 1082.61 1385.59C1085.14 1378.04 1089.33 1369.63 1094.36 1363.74C1095.19 1363.74 1095.19 1363.74 1095.19 1364.57C1095.19 1363.74 1091.85 1378.02 1096.87 1382.2C1099.39 1376.32 1103.61 1364.57 1110.32 1360.39C1107.79 1366.26 1104.44 1375.48 1108.62 1383.03C1113.66 1375.48 1110.32 1364.56 1120.37 1357.01V1357.84C1116.16 1367.09 1112.82 1378.01 1127.09 1380.51V1378.84C1116.16 1368.76 1127.92 1357 1132.13 1355.34C1133.8 1354.51 1133.8 1350.29 1133.8 1349.46C1132.13 1346.09 1129.63 1343.59 1127.93 1342.75C1122.91 1341.07 1119.55 1338.54 1117.88 1333.52C1116.18 1326.81 1119.55 1319.23 1120.38 1313.36C1122.05 1310.85 1113.66 1303.31 1107.79 1296.59C1104.44 1305.81 1092.69 1305.81 1090.16 1296.59C1078.44 1303.31 1080.11 1305.81 1071.72 1313.36C1071.72 1315.06 1068.35 1313.36 1068.35 1312.53C1070.85 1307.51 1073.39 1301.63 1075.06 1296.59C1075.89 1294.06 1071.72 1298.26 1066.67 1300.79C1062.47 1303.29 1056.61 1304.97 1056.61 1305.81C1054.09 1316.73 1056.61 1322.6 1069.19 1325.11C1080.11 1326.81 1090.16 1322.6 1097.73 1327.64C1111.16 1336.86 1101.91 1350.28 1083.44 1352.81C1075.06 1354.48 1057.44 1355.31 1054.92 1343.56C1054.92 1342.73 1054.08 1341.06 1052.41 1341.06V1336.86C1054.08 1338.53 1054.92 1338.53 1054.92 1340.23C1059.11 1346.08 1062.47 1346.08 1070.86 1347.78C1075.91 1347.78 1080.94 1347.78 1085.15 1346.08C1094.38 1343.58 1094.38 1331.81 1087.66 1331.81C1078.44 1330.98 1070.86 1333.51 1062.48 1330.98C1057.45 1329.31 1054.09 1327.64 1050.73 1326.81L1052.41 1298.26C1068.35 1289.88 1080.11 1284.84 1096.88 1275.61C1097.73 1275.61 1101.08 1274.76 1103.62 1275.61C1122.92 1301.63 1132.14 1322.6 1167.38 1327.65C1180.83 1331 1195.93 1325.12 1201.8 1340.24C1205.98 1349.46 1197.6 1364.56 1185.85 1364.56C1183.35 1366.26 1180.83 1362.06 1179.13 1359.54C1178.3 1357.01 1178.3 1352.82 1174.09 1351.97C1169.91 1352.82 1167.37 1357.01 1166.54 1360.37C1163.19 1366.25 1171.58 1364.55 1173.26 1367.09C1178.3 1373.81 1169.08 1378.84 1164.88 1373.81C1159.83 1371.31 1159.83 1384.73 1163.21 1385.56C1167.38 1387.23 1169.92 1383.03 1171.58 1382.19C1179.13 1378.84 1183.34 1392.26 1173.26 1389.74C1169.91 1390.57 1171.58 1394.78 1173.26 1397.28C1175.79 1401.49 1185.01 1401.49 1187.55 1396.45C1188.38 1393.11 1185.85 1390.58 1185.85 1388.08C1190.9 1375.48 1211.03 1383.03 1217.74 1384.73C1218.57 1384.73 1225.29 1383.03 1228.66 1380.53C1222.79 1378.85 1213.54 1373.81 1211.87 1371.31C1223.62 1372.11 1227.82 1371.31 1232.01 1368.78C1226.16 1368.78 1220.29 1367.1 1214.41 1363.73C1223.63 1363.73 1230.35 1364.56 1238.73 1357.86C1230.35 1357.86 1217.76 1359.56 1214.41 1352.84C1218.59 1352.84 1225.31 1355.34 1230.35 1354.51C1234.55 1352.84 1243.77 1349.46 1241.27 1346.11C1234.55 1347.8 1232.89 1343.6 1217.77 1346.11C1217.77 1342.76 1237.07 1342.76 1235.4 1340.26C1232.02 1340.26 1221.13 1338.56 1217.77 1336.88V1336.05C1227.85 1336.05 1238.74 1331.85 1241.27 1324.3C1235.4 1326.83 1218.6 1331.02 1216.1 1327.68C1228.69 1326.85 1241.27 1312.55 1238.74 1312.55C1232.02 1316.75 1223.65 1317.6 1216.1 1317.6C1214.42 1317.6 1214.42 1317.6 1213.57 1316.77C1213.57 1315.09 1213.57 1313.4 1211.89 1313.4C1206.02 1308.38 1193.43 1326.85 1178.33 1316.77C1171.61 1310.05 1171.61 1301.67 1167.41 1294.1C1164.23 1288.05 1159.96 1282.65 1154.81 1278.16C1146.44 1273.11 1140.55 1265.56 1134.67 1257.18C1133.84 1252.14 1122.95 1240.39 1115.37 1242.06C1110.35 1242.92 1106.15 1242.92 1101.11 1244.59C1080.96 1249.64 1069.21 1256.34 1052.43 1258.86V1207.67C1054.1 1207.67 1054.1 1206.84 1054.1 1206.84C1054.1 1205.16 1052.43 1205.16 1052.43 1203.46V1174.96H1052.41ZM1052.41 1289.09C1052.41 1289.09 1054.08 1289.09 1054.08 1287.39C1054.09 1287.4 1052.41 1287.4 1052.41 1289.09ZM1059.12 1372.16C1059.97 1372.16 1062.48 1373.86 1064.16 1375.53C1068.36 1378.06 1056.61 1385.61 1052.41 1383.08C1054.93 1380.57 1057.45 1376.36 1059.12 1372.16ZM1066.67 1179.99C1075.06 1172.44 1089.33 1168.24 1089.33 1160.69C1090.16 1151.44 1075.91 1148.94 1077.58 1148.94C1080.95 1146.44 1091.87 1149.77 1094.38 1155.66C1094.38 1156.49 1095.21 1147.28 1092.7 1142.23C1106.13 1148.95 1106.13 1159.86 1101.92 1167.41C1101.92 1168.24 1103.62 1169.91 1103.62 1168.24C1108.64 1158.16 1122.07 1159.86 1130.47 1155.64C1132.14 1155.64 1132.14 1156.47 1132.14 1156.47C1130.47 1158.15 1129.64 1160.68 1127.94 1162.35C1127.94 1163.18 1129.64 1163.18 1129.64 1163.18C1146.41 1163.18 1157.33 1156.46 1157.33 1156.46C1157.33 1158.13 1154.8 1164.84 1129.64 1170.73C1124.6 1179.13 1134.66 1185.85 1132.14 1186.68C1125.43 1186.68 1122.07 1184.15 1122.92 1177.43C1122.07 1176.6 1122.07 1176.6 1120.39 1176.6C1113.67 1185.85 1127.11 1198.44 1134.66 1200.95C1134.66 1202.62 1133.83 1202.62 1130.48 1202.62C1104.47 1197.6 1110.34 1174.93 1086.84 1177.45C1080.12 1179.15 1068.37 1186.69 1066.7 1195.92C1065.01 1203.46 1069.21 1212.71 1077.59 1214.38C1094.39 1219.43 1108.66 1211.88 1125.44 1205.16C1132.16 1206.84 1140.54 1206.84 1143.91 1202.63C1145.58 1202.63 1138.86 1200.13 1137.19 1198.46H1138.86C1148.08 1197.63 1153.13 1193.41 1152.29 1182.5C1157.33 1182.5 1163.21 1192.58 1166.55 1193.43C1169.08 1195.1 1162.38 1182.5 1160.68 1180C1169.08 1181.67 1175.8 1184.18 1179.15 1193.43C1181.68 1193.43 1175.8 1176.63 1178.32 1177.47C1190.91 1184.19 1190.07 1195.94 1190.91 1193.43C1195.11 1189.22 1192.58 1184.18 1195.11 1180C1201.83 1184.18 1208.54 1189.22 1206.01 1197.63V1198.46C1208.54 1197.63 1211.05 1192.58 1211.88 1189.21C1216.08 1193.41 1218.6 1200.13 1216.08 1206.84L1214.41 1207.67C1216.08 1209.34 1217.76 1209.34 1218.59 1207.67C1225.31 1205.16 1222.79 1197.61 1227.83 1195.07C1232.01 1207.67 1228.66 1216.89 1213.54 1221.09C1213.54 1226.97 1211.87 1233.68 1211.04 1240.39C1206.84 1249.64 1199.29 1254.66 1190.9 1258.86C1178.3 1262.2 1150.63 1262.2 1140.54 1254.66C1138.86 1253.83 1137.19 1251.31 1136.36 1249.64C1153.13 1254.66 1197.62 1257.18 1205.99 1233.68C1211.87 1215.21 1195.1 1205.16 1183.35 1203.46C1155.66 1200.96 1132.16 1212.71 1101.09 1221.93C1083.47 1226.98 1057.45 1226.14 1056.62 1203.46C1056.61 1195.09 1059.12 1185.86 1066.67 1179.99ZM1157.32 1378.89C1156.73 1379.96 1156.49 1381.18 1156.64 1382.39C1156.78 1383.6 1157.31 1384.72 1158.15 1385.61C1159.82 1388.11 1152.27 1387.28 1148.07 1389.79C1148.07 1387.28 1152.29 1378.89 1157.32 1378.89ZM1163.19 1355.39C1162.26 1357.6 1161.42 1359.84 1160.66 1362.11C1157.32 1359.61 1154.79 1359.61 1148.07 1360.44C1148.94 1357.06 1158.16 1350.35 1163.19 1355.39ZM1167.38 1399.04C1169.08 1399.87 1169.91 1401.54 1171.58 1402.38C1169.91 1404.91 1158.16 1406.58 1157.32 1401.55C1160.66 1401.54 1164.87 1401.54 1167.38 1399.04ZM1200.11 1384.77C1199.28 1383.07 1206.82 1384.77 1208.51 1385.6C1209.34 1387.27 1211.01 1392.32 1205.98 1394.82C1205.98 1389.79 1205.98 1388.11 1200.11 1384.77ZM1054.93 1216.9C1054.93 1215.23 1054.93 1215.23 1056.61 1215.23C1062.48 1230.32 1078.44 1231.18 1092.7 1228.65C1119.55 1224.47 1153.12 1209.35 1175.79 1209.35C1183.34 1209.35 1201.8 1212.72 1201.8 1224.47C1201.8 1232.85 1199.28 1237.9 1193.4 1242.07C1185.85 1247.12 1166.55 1249.65 1158.16 1249.65C1153.12 1249.65 1133.82 1247.95 1127.94 1240.4C1124.6 1237.9 1119.56 1236.2 1113.67 1236.2C1095.21 1236.2 1075.06 1247.12 1059.12 1247.12C1054.93 1247.12 1054.09 1223.62 1054.93 1216.9ZM1095.21 1184.18C1101.92 1189.22 1107.8 1198.47 1117.88 1203.48C1117.88 1205.18 1097.73 1211.88 1090.16 1211.88C1075.89 1211.88 1071.72 1205.16 1071.72 1198.46C1071.73 1190.88 1085.15 1179.16 1095.21 1184.18Z" fill="#0C0E0F"/>
    <path fill-rule="evenodd" clip-rule="evenodd" d="M819.106 1226.15L854.357 1211.88L840.091 1247.95L877.015 1262.22L840.091 1277.34L854.357 1313.41L819.106 1299.14L804.839 1334.41L788.899 1299.14L752.817 1313.41L767.927 1277.34L735.204 1263.92V1261.39L767.927 1247.96L753.66 1211.89L788.899 1226.16L804.839 1190.9L819.106 1226.15ZM816.576 1231.19L849.312 1218.6L835.875 1251.32L868.598 1262.22L835.875 1275.67L849.312 1307.56L816.576 1294.97L804.826 1325.16L792.245 1294.1L759.509 1307.55L772.103 1275.65L741.884 1262.2L772.103 1249.64L759.509 1218.57L792.245 1231.17L804.826 1198.44L816.576 1231.19Z" fill="#FAE935"/>
</svg>
