<svg id="Layer_2" xmlns="http://www.w3.org/2000/svg" viewBox="0 0 247.58 247.58"><g><path d="M247.58,123.79c0,68.37-55.42,123.79-123.79,123.79S0,192.16,0,123.79,55.42,0,123.79,0s123.79,55.42,123.79,123.79ZM123.79,12.63C62.4,12.63,12.63,62.4,12.63,123.79s49.77,111.16,111.16,111.16,111.16-49.77,111.16-111.16S185.18,12.63,123.79,12.63Z" style="fill: rgb(208, 155, 92);"></path><path d="M72.01,35.72h101.91s10.57.34,1.7,12.61c-6.28,8.69-62.6,83.46-72.16,95.99-14.58,19.12-19.75,23.98-33.09,23.98-8.02,0-16.37,0-30.23,0-12.05,0-13.11-11.81-13.11-11.81l-.58-62.12c-.07-7.35,4.94-14.07,12.17-15.36,1.23-.22,2.58-.34,4.07-.34,11.2,0,21.43.09,25.65.14,1.89.02,3.74.27,5.56.8,5.07,1.48,14.95,5.67,25.37,17.34,3.94,4.42-1.02,11.02-6.3,8.35l-.17-.09c-2.85-1.47-11.12-9.93-21.3-9.93-5.15,0-14.85.04-16.53,0,0,0-10.4-.68-10.22,9.93.19,11.97,0,35.83,0,35.83,0,0-.51,12.15,10.4,12.44,2.9.08,19.52.68,27.32-2.39,6.08-2.39,8.97-5.62,16.81-17.55,4.83-7.34,46.01-70.55,46.01-70.55,0,0,11.59-14.66-6.13-14.66h-67.14s-5-.91-5-6.25,3.86-6.36,5-6.36Z" style="fill: rgb(208, 155, 92);"></path><path d="M177.53,211.25h-101.91s-10.57-.34-1.7-12.61c6.78-9.39,77.44-101.35,84.92-108.22,3.6-3.31,10.71-9.25,20.99-9.25,0,0,12.94-.54,21.13,1.58,10.11,2.61,15.88,10.29,18.29,14.66,2.16,3.92,1.64,9.53-.34,11.5-2.39,2.39-6.56,4.43-11.62,1.5-4.26-2.46-5.17-7.28-12.84-9.68-6.94-2.18-16.05-2.28-21.68-.93-3.1.74-7.25,2.45-10.07,3.95-2.08,1.1-3.78,2.3-5.71,4.16-12.21,11.23-52.74,76.08-52.74,76.08,0,0-11.59,14.66,6.13,14.66h67.14s5,.91,5,6.25-3.86,6.36-5,6.36Z" style="fill: rgb(208, 155, 92);"></path><path d="M150.95,143.35c1.23-1.05,2.65-2.49,8.69.45,3.68,1.79,28.97,15.25,41.69,2.98,6.36-6.13,13.05-6.29,16.29-4.59,4.08,2.15,3.88,5.75,2.62,10.18-.95,3.36-6.18,9.18-11.91,12.16-14.85,7.73-37.3,5.33-53.09-9.37-7.04-6.56-6.02-10.35-4.3-11.81Z" style="fill: rgb(208, 155, 92);"></path></g></svg>