<svg width="30" height="30" viewBox="0 0 30 30" fill="none" xmlns="http://www.w3.org/2000/svg">
    <path d="M30 0H0V12.63C14.27 12 20 8.16 21.08 6.32C20.43 8.21 18.11 9.74 17.03 10.26C21.57 9 23.24 7.11 23.51 6.32C22.86 8.21 20.54 10.26 19.46 11.05C21.41 10.42 25.68 7.11 27.56 5.53C26.92 8.05 19.73 12.89 16.22 15C18.82 15 23.78 11.84 25.95 10.26C25.3 11.53 19.73 15.53 17.03 17.36C19.63 17.36 23.51 14.21 25.13 12.63C23.83 16.43 17.03 19.47 13.78 20.53C17.03 20.53 22.7 17.37 25.14 15.79C23.19 18.32 16.76 21.58 13.78 22.89C17.68 22.89 20.81 20.79 21.89 19.74C18.65 24.16 5.95 26.32 0 26.84V30H30V0Z" fill="#054F90"/>
</svg>
