<svg width="734" height="747" viewBox="0 0 734 747" fill="none" xmlns="http://www.w3.org/2000/svg">
<g clip-path="url(#clip0_16_16)">
<path d="M0 -1.43051e-05V747H95C91.6067 745.563 87.6216 745.525 84 744.625C77.1574 742.925 70.4142 740.628 64 737.691C35.7788 724.769 14.1793 699.542 5.02546 670C-1.76179 648.096 1 623.662 1 601V481V219V137C1 120.887 -0.437923 103.834 3.01466 88C12.383 45.0345 48.9167 11.9489 91 2.4591C100.932 0.219407 111.879 0.999986 122 0.999986C118.041 -0.661147 113.26 -1.43051e-05 109 -1.43051e-05H85H0Z" fill="#FEFEFE"/>
<path d="M243 202H199C192.171 202 183.499 200.596 177.004 202.97C164.653 207.485 164.117 226.915 178 229.786C193.015 232.892 209.737 231 225 231C244.608 231 264.413 231.818 284 230.961C298.33 230.333 312.662 228.667 327 228.039C341.295 227.413 355.725 228.888 370 227.911C393.265 226.317 416.156 220.169 435 205.764C453.606 191.54 468.552 172.23 476.305 150C490.65 108.869 479.715 60.6164 449 30.0008C439.151 20.1836 425.495 10.6348 412 6.57017C403.022 3.86619 393.355 1.06059 384 0.169716C371.861 -0.98629 359.193 -2.30372e-05 347 -2.30372e-05C317.773 -2.30372e-05 288.131 1.51799 259 0.7407C223.719 -0.200707 188.34 -2.30372e-05 153 -2.30372e-05C140.611 -2.30372e-05 128.328 0.683327 116 0.985329C107.461 1.1945 98.3891 0.567421 90.0002 2.45909C58.2382 9.62138 30.1883 29.1547 14.3119 58C-5.40099 93.8158 1.00015 137.551 1.00015 177V413V599C1.00015 619.235 -1.30061 641.06 2.46003 661C5.5416 677.34 12.9662 692.99 23.2108 706C38.9444 725.981 61.7422 740.952 87.0002 745.537C107.649 749.285 130.092 747 151 747H290H548H605C630.358 747 652.92 746.684 676 734.742C705.631 719.409 725.059 690.266 731.551 658C734.303 644.321 734 629.905 734 616V565V396C734 383.807 734.986 371.139 733.83 359C731.198 331.342 722.356 304.755 702.869 284.17C694.715 275.557 684.842 266.5 674 261.399C650.172 250.189 625.739 250 600 250H537C521.264 250 504.63 248.466 489 250.285C485.401 250.704 473.16 249.079 475.372 255.975C476.308 258.895 479.683 260.757 482 262.46C487.304 266.357 492.124 270.511 496.986 274.95C501.872 279.41 507.018 288.847 513.039 291.258C516.335 292.577 520.526 292 524 292H546H600C621.346 292 641.083 291.938 659 305.375C673.296 316.096 684.303 332.198 687.535 350C690.086 364.045 689 378.788 689 393V566V617C689 629.466 689.714 641.827 686.521 653.999C684.976 659.888 681.485 665.816 678.339 670.996C667.636 688.622 649.444 700.434 629 702.945C619.695 704.088 610.306 703.015 601 703H556C453.711 703 351.359 704.164 249 704C234.049 703.976 219.021 703 204 703H134C123.525 703 112.393 704.065 102 702.711C88.6926 700.977 75.7162 694.372 65.8459 685.37C56.753 677.078 48.9305 664.131 46.3752 652C43.8517 640.02 45.0002 627.166 45.0002 615V544V183V136C45.0002 121.976 44.2269 107.729 47.6653 94C52.1078 76.2619 65.2591 60.7392 81.0002 51.8758C94.6917 44.1664 109.742 44 125 44H163H317H357C369.694 44 381.961 43.923 394 48.615C425.164 60.7605 441.616 90.1151 437.871 123C437.032 130.366 433.473 137.443 430.319 144.001C427.921 148.988 424.991 152.646 421.594 156.985C393.166 193.299 344.733 186 304 186H263C257.487 186 249.724 185.331 245.434 189.572C242.241 192.727 243 197.909 243 202Z" fill="url(#paint0_linear_16_16)"/>
<path d="M256 0C258.332 0.984558 260.457 0.981262 263 1C260.668 0.0154419 258.543 0.0187378 256 0ZM386 0C394.424 3.56958 404.351 4.07281 413 7.24304C432.913 14.5417 450.692 29.6188 462.537 47C482.191 75.8405 487.523 113.707 476.971 147C465.447 183.363 433.167 214.768 396 224.105C373.419 229.778 350.024 227.451 327 228.015C312.312 228.374 297.665 230.318 283 230.961C266.068 231.702 248.95 231 232 231H194C188.259 230.998 180.03 231.41 175.004 228.258C163.924 221.31 166.694 206.201 179 202.638C185.387 200.789 193.397 202 200 202H243C243.003 197.562 242.559 192.794 246.228 189.572C250.891 185.478 258.234 186 264 186H302C342.816 186 392.75 194.031 421.594 157.961C425.034 153.659 427.929 149.982 430.319 145C433.573 138.219 437.419 130.668 437.946 123C438.481 115.204 439.054 105.664 437.485 98C432.443 73.3622 414.209 53.8494 390 46.9097C378.761 43.6881 367.564 44 356 44H316H177H127C109.435 44 92.3791 43.9183 77.0001 53.6952C71.913 56.9292 67.2799 60.675 63.1591 65.0895C43.9431 85.6747 45.0001 111.798 45.0001 138V195V536V615C45.0001 636.988 44.0078 656.784 56.9114 675.83C66.6714 690.236 83.7539 700.464 101 702.711C111.714 704.106 123.2 703 134 703H200C216.018 703 232.054 703.974 248 704C355.033 704.172 462.032 703 569 703C604.411 703 645.47 710.872 671.557 681.039C675.852 676.127 679.196 670.912 682.022 665.039C685.362 658.097 687.705 651.739 688.711 644C689.852 635.211 689 625.855 689 617V567V412C689 378.318 693.915 342.644 670.675 315.001C653.266 294.294 629.059 292 604 292H546C536.499 292 526.441 292.948 517 291.891C510.726 291.189 508.339 285.945 504.63 281.615C499.001 275.043 491.944 269.035 484.985 263.925C482.32 261.968 475.431 258.507 475.497 254.62C475.537 252.293 478.111 251.285 480.019 251.008C485.454 250.221 491.496 250.009 497 250H567H611C623.006 250 635.23 249.761 647 252.59C656.38 254.845 666.515 257.794 675 262.442C707.642 280.323 732.896 319.404 733 357C734.552 353.301 734 348.983 734 345V325V252V0H386Z" fill="#FEFEFE"/>
<path d="M359 63.5578C353.38 65.0324 349.905 69.3172 349.185 74.9999C347.791 86.0142 349 97.8988 349 109C349 114.364 347.611 120.857 349.264 125.999C351.677 133.508 359.829 137.213 367.285 135.351C373.207 133.873 376.65 128.813 377.671 123C379.771 111.05 378.701 95.9953 377.285 83.9999C376.785 79.7564 377.66 75.0713 375.995 71.04C373.232 64.3549 365.679 61.8053 359 63.5578ZM108 108C120.04 108 132.025 107.146 144 107.004C151.61 106.913 159.469 107.998 167 107.625C172.505 107.352 181.224 108.312 185.895 105.107C194.289 99.3459 192.763 85.9807 183.985 81.4567C177.497 78.1134 167.115 79.9999 160 79.9999H105C96.9466 79.9999 86.5959 78.4153 82.179 87.0145C80.4938 90.2956 81.0002 94.4337 81 97.9999C80.9994 107.369 77.9014 123.307 84.3943 130.895C91.5726 139.284 106.2 136.636 107.811 125C108.575 119.483 108 113.565 108 108ZM230.004 80.4683C219.603 82.4922 213.453 98.5781 224.108 104.836C231.911 109.418 245.311 106.986 254 107C257.49 107.006 261.593 107.925 264.999 107.177C276.478 104.658 276.565 87.7405 267.816 82.2476C263.562 79.5774 258.816 79.9999 254 79.9999C246.238 79.9999 237.645 78.9813 230.004 80.4683ZM104 141.424C98.5529 142.14 91.6427 140.813 87.0941 144.434C78.0774 151.61 81.7676 165.348 92.0008 168.802C98.8031 171.099 106.91 170 114 170C128.39 170 142.671 170.07 157 169.089C164.475 168.578 171.638 170.871 179 168.84C191.278 165.454 194.879 147.027 180.999 142.653C172.814 140.073 161.539 142 153 142C145.021 142 136.971 142.31 129 141.961C120.614 141.593 112.431 140.317 104 141.424ZM230 141.614C219.385 144.426 214.691 158.706 223.264 166.581C227.698 170.654 234.609 170.325 239.999 168.606C256.997 163.183 246.263 137.307 230 141.614ZM94 202.468C80.1233 205.159 77.1892 221.713 89.1698 229.03C93.0633 231.408 97.6209 231 102 231C110.514 231.001 120.686 232.516 129 230.606C140.977 227.854 144.907 210.884 133.907 204.228C129.682 201.672 124.734 202 120 202C111.605 201.999 102.263 200.866 94 202.468ZM216 478C219.623 486.295 225.748 493.078 230 501C219.408 503.647 208.331 507.691 198 511.38C193.336 513.046 187.783 514.921 184.765 519.055C180.962 524.264 179.935 531.748 179.156 538C178.637 542.162 178.789 547.137 174.853 549.66C170.506 552.445 164.783 553.758 160 555.66C152.906 558.481 145.83 561.833 139 565.248C131.632 568.933 125.405 572.739 122.764 581C120.305 588.691 122 598.977 122 607V639C122 644.856 121.311 651.218 122.329 657C123.49 663.595 128.334 668.548 135 669.667C144.918 671.332 153.116 663.596 153.907 654C154.963 641.171 154 627.874 154 615C154 610.049 152.666 602.76 154.603 598.13C156.27 594.147 162.364 592.288 166 590.619C176.784 585.668 188.616 582.501 198.985 576.688C206.46 572.497 209.653 566.294 210.715 558C211.226 554.003 210.78 548.764 213.013 545.225C215.027 542.032 219.652 540.885 223 539.692C231.273 536.745 239.669 534.11 248 531.333C251.717 530.094 256.19 527.677 260 529.682C262.587 531.043 267.836 534.807 267.984 538.039C268.087 540.302 266.049 542.409 264.705 544C261.037 548.345 256.593 554.689 251.816 557.775C245.195 562.052 236.316 564.473 229 567.4C221.246 570.501 213.743 574.692 205.961 577.547C197.463 580.665 185.009 584.652 180.279 593.004C176.869 599.024 177 606.322 177 613V642C177 653.821 172.86 675.07 186.004 681.427C195.329 685.938 208.108 680.642 209.786 670C211.894 656.637 210 641.532 210 628C210 621.628 208.422 614.553 215.019 611.194C228.481 604.338 243.322 599.451 257.285 593.71C262.124 591.721 267.537 590.557 271.816 587.391C280.375 581.057 287.329 572.248 294.615 564.576C297.537 561.498 300.88 556.794 305 555.328C308.978 553.912 314.237 556.811 318 557.975C325.982 560.442 334.658 562.302 343 562.911C359.523 564.118 375.59 564.339 392 561.586C398.382 560.516 404.732 559.135 411 557.522C413.87 556.783 417.007 555.083 420 555.078C423.393 555.072 425.753 557.812 428 560.005C432.383 564.285 436.668 568.669 441 573C446.624 578.624 452.212 585.939 459 590.157C468.885 596.299 482.175 599.273 493 603.6C498.644 605.856 504.344 607.965 510 610.19C512.766 611.278 516.128 612.138 517.397 615.133C519.037 619.008 518 624.866 518 629C518 638.998 518.099 649.002 517.996 659C517.911 667.307 517.226 674.833 525.015 680.146C534.535 686.639 547.369 680.807 550.246 670C551.755 664.332 551 657.811 551 652V618C551 610.596 552.229 601.886 548.95 595C543.171 582.866 524.498 579.197 513 574.768C505.188 571.76 497.625 567.709 490 564.231C485.788 562.309 480.836 560.977 477.039 558.301C469.917 553.28 462.005 544.105 457 537C461.247 534.832 465.251 529.833 470 529.053C473.542 528.472 477.714 530.572 481 531.667L505 539.667C508.628 540.876 513.791 541.749 515.987 545.225C521.602 554.111 515.226 567.868 525.185 575.006C534.919 581.983 548.993 585.218 560 589.86C564.158 591.613 571.77 593.586 573.687 598.105C575.26 601.815 574 607.998 574 612C574 626.159 571.978 642.099 574.809 656C576.471 664.163 582.295 669.891 591 669.816C597.925 669.757 604.679 664.71 606.442 658C607.911 652.408 607 645.741 607 640V604C607 596.59 608.575 587.047 606.03 580C603.322 572.499 596.77 568.71 590 565.411C582.561 561.785 574.721 558.452 567 555.46C562.572 553.744 557.139 552.708 553.228 549.915C550.041 547.639 549.686 543.576 549.081 540C547.972 533.447 547.684 525.709 543.867 520.044C540.547 515.119 535.22 514.003 530.015 512.008C519.281 507.894 508.219 503.595 497 501C499.704 495.701 503.686 491.095 506.797 486C508.17 483.752 509.581 480.387 512.21 479.353C515.524 478.049 520.836 480.638 524 481.67C532.656 484.491 541.365 487.118 550 490C553.749 491.251 558.355 492.128 560.11 496.108C564.276 505.552 563.999 518.839 565.576 529C566.417 534.425 566.702 540.458 571.214 544.272C575.462 547.863 580.93 549.141 586 551.064C594.707 554.366 603.263 558.085 612 561.319C616.739 563.073 626.095 564.932 628.972 569.394C631.295 572.997 630 579.888 630 584C630 593.646 627.323 608.141 631.573 616.999C636.47 627.209 650.885 628.843 658.468 620.671C663.774 614.951 663 607.201 663 600V565C663 556.018 662.226 546.858 653.96 541.423C642.577 533.938 627.62 530.924 615 526.05C610.262 524.22 602.937 522.804 599.589 518.722C596.934 515.485 596.908 509.967 596.247 506C594.209 493.775 594.416 473.457 582.957 465.895C577.806 462.496 571.912 461.388 566.17 459.57C558.78 457.231 551.578 454.064 544 452.272C538.953 451.078 526.982 448.79 523.774 444.49C522.376 442.616 523.024 440.097 523.404 438C524.312 432.992 525.228 428.062 525.799 423C527.679 406.303 528.431 387.539 524.161 371.09C518.567 349.542 510.14 329.044 496.844 311C465.063 267.869 410.745 241.409 357 245.09C332.327 246.779 307.139 251.862 285 263.323C245.069 283.995 213.927 324.141 204.214 368.004C200.655 384.072 198.677 403.635 201.325 420C202.172 425.235 202.536 430.865 203.749 436C204.375 438.646 206.008 442.038 204.223 444.571C201.302 448.715 192.518 449.529 188 451C174.02 455.552 156.414 458.305 144.188 466.779C133.892 473.915 134.292 494.797 132.414 506C131.786 509.744 131.94 515.571 129.397 518.581C126.419 522.107 119.972 523.341 115.83 525.052C108.53 528.066 101.417 531.514 94.0394 534.37C87.4198 536.931 79.4411 539.142 74.2623 544.274C68.7215 549.765 69 556.817 69 564V598C69 603.726 68.0164 610.564 70.1481 616C72.4386 621.84 77.8615 625.323 84 625.811C106.84 627.625 102 595.989 102 582C102 578.11 100.812 571.79 103.603 568.638C106.662 565.185 112.879 563.9 117 562.15C126.251 558.221 135.713 554.846 145 551.011C149.425 549.184 154.858 547.588 158.468 544.312C162.186 540.939 162.847 535.686 163.576 531C164.815 523.028 165.676 514.998 166.718 507C167.197 503.323 166.967 498.462 169.013 495.225C171.546 491.218 177.879 490.729 182 489.306C193.249 485.421 204.523 481.133 216 478ZM96 262.428C92.3529 262.958 88.9159 263.622 86.1327 266.228C78.3269 273.537 81.443 285.948 91.0008 289.856C94.5265 291.297 98.2969 290.848 102 291.285C115.212 292.845 128.687 291 142 291C149.196 291 158.073 292.378 164.999 290.196C173.987 287.364 177.664 276.01 172.211 268.34C170.065 265.322 166.426 263.933 162.999 262.901C155.648 260.688 146.618 262 139 262C124.984 262 109.876 260.413 96 262.428ZM240 262C231.139 262 220.503 260.431 212 263.344C200.61 267.246 197.682 288.132 212 290.062C216.192 290.628 218.604 286.893 220.883 283.999C226.706 276.609 236.045 270.48 240 262Z" fill="#FF7F7F"/>
<path d="M349 286.428C329.593 289.207 311.684 295.31 295 305.612C284.204 312.278 275.112 321.084 267.286 331C235.591 371.163 245.062 428.901 282.17 462.196C308.535 485.852 346.179 496.571 381 491.572C397.897 489.146 414.647 483.557 429 474.436C441.996 466.177 453.328 456.547 462.189 443.83C468.113 435.328 472.108 425.788 475.329 416C477.819 408.434 478.808 400.877 479.499 393C485.367 326.094 410.271 277.655 349 286.428Z" fill="#FEFEFE"/>
<path d="M93.0002 323.657C75.0037 329.08 81.2663 357.072 100 351.196C116.66 345.97 109.766 318.604 93.0002 323.657ZM149 323.568C138.179 326.496 133.607 341.266 143.079 348.465C150.393 354.024 161.382 352 170 352C173.407 352 177.723 352.666 180.956 351.397C187.368 348.879 188.55 337.863 189.866 332C190.466 329.327 191.205 326.029 188.562 324.179C185.806 322.25 181.169 323 178 323C168.981 322.999 157.736 321.204 149 323.568ZM539.483 323.938C532.488 327.8 539.016 345.255 543.419 349.427C545.812 351.695 548.872 351.942 552 351.995C558.973 352.115 569.821 353.923 575.985 350.142C584.748 344.766 585.07 331.998 576.815 325.97C569.807 320.853 558.192 323 550 323C546.75 323 542.441 322.305 539.483 323.938ZM613 323.537C595.279 327.626 600.688 355.782 619 351.606C636.746 347.558 630.58 319.481 613 323.537ZM305 344.465C299.212 344.997 293.78 346.303 289.015 349.789C264.632 367.63 280.075 408.078 310 404.826C313.891 404.404 317.565 403.045 320.999 401.204C347.574 386.957 336.283 341.586 305 344.465ZM417 344.598C403.995 347.41 393.987 355.375 391.376 369C387.677 388.297 404.744 408.428 425 404.625C441.26 401.572 451.618 387.486 449.826 371C448.235 356.353 432.497 341.247 417 344.598ZM108 411H141H165C167.868 411 172.062 411.696 174.566 409.972C176.531 408.62 176.818 406.188 176.956 403.999C177.288 398.723 179.137 386.309 173.852 383.179C170.793 381.368 166.4 382 163 382H140H102C95.8375 382.002 88.7765 381.854 84.4994 387.109C78.8703 394.025 81.0002 405.707 81.0002 414C81.0002 419.501 79.7658 426.81 82.4423 431.826C87.4977 441.302 100.829 441.067 106.03 431.981C109.43 426.042 108 417.603 108 411ZM555.109 382.742C548.898 385.413 550.903 396.572 551.005 402C551.054 404.639 551.103 407.431 553.318 409.258C555.923 411.407 559.855 410.995 563 411C570.892 411.013 582.803 413.19 589.996 409.543C598.413 405.275 601.214 391.876 592.892 385.991C585.109 380.487 574.979 382 566 382C562.599 382 558.31 381.365 555.109 382.742ZM335.005 415.742C321.867 420.833 331.106 435.956 338.001 441.671C350.126 451.723 366.805 453.323 381 447.124C388.158 443.999 395.495 438.425 398.517 431C401.344 424.053 397.999 416.065 390 415.204C383.76 414.533 379.935 419.142 375 422.009C370.837 424.427 365.757 425.364 361 424.699C351.916 423.43 344.566 412.038 335.005 415.742Z" fill="#FF7F7F"/>
<path d="M733 494V506C734.512 502.396 734.512 497.604 733 494ZM733 638C733 679.389 709.052 717.721 672 736.247C661.544 741.475 649.811 745.756 638 746C645.879 749.306 658.466 747 667 747H734V671V650C734 646.017 734.552 641.699 733 638Z" fill="#FEFEFE"/>
</g>
<defs>
<linearGradient id="paint0_linear_16_16" x1="3.38002e-06" y1="-3.27884e-06" x2="725.5" y2="748" gradientUnits="userSpaceOnUse">
<stop stop-color="#408CFF"/>
<stop offset="0.97797" stop-color="#5AFF31"/>
</linearGradient>
<clipPath id="clip0_16_16">
<rect width="734" height="747" fill="white"/>
</clipPath>
</defs>
</svg>
