<svg width="202" height="94" viewBox="0 0 202 94" fill="none" xmlns="http://www.w3.org/2000/svg">
<path d="M93.6148 85.2859C93.6185 87.4076 92.7792 89.4439 91.2815 90.9468C89.7839 92.4497 87.7505 93.2961 85.6288 93.2998L8.14891 93.435C7.09834 93.4369 6.05769 93.2318 5.08638 92.8314C4.11507 92.4311 3.23212 91.8433 2.48795 91.1018C1.74379 90.3602 1.15297 89.4793 0.74923 88.5094C0.345494 87.5395 0.136749 86.4996 0.134912 85.449L1.21142e-05 8.14911C-0.00367762 6.0274 0.835627 3.99111 2.33329 2.48822C3.83095 0.985323 5.8643 0.138922 7.98601 0.135212L85.4659 1.22725e-05C86.5165 -0.00182784 87.5571 0.203277 88.5285 0.603615C89.4998 1.00395 90.3827 1.59169 91.1269 2.33326C91.871 3.07482 92.4619 3.95571 92.8656 4.92561C93.2693 5.89551 93.4781 6.93544 93.4799 7.98601L93.6148 85.2859ZM85.6374 8.38751C85.6374 8.28673 85.5974 8.19008 85.5261 8.11881C85.4549 8.04755 85.3582 8.00751 85.2574 8.00751H8.37741C8.27663 8.00751 8.17998 8.04755 8.10871 8.11881C8.03745 8.19008 7.99741 8.28673 7.99741 8.38751V85.1875C7.99741 85.2883 8.03745 85.385 8.10871 85.4562C8.17998 85.5275 8.27663 85.5675 8.37741 85.5675H85.2574C85.3582 85.5675 85.4549 85.5275 85.5261 85.4562C85.5974 85.385 85.6374 85.2883 85.6374 85.1875V8.38751Z" fill="url(#paint0_linear_0_1)"/>
<path d="M171.617 19.0975H118.317C118.052 19.0975 117.837 19.3124 117.837 19.5775V25.5975C117.837 25.8626 118.052 26.0775 118.317 26.0775H171.617C171.883 26.0775 172.097 25.8626 172.097 25.5975V19.5775C172.097 19.3124 171.883 19.0975 171.617 19.0975Z" fill="url(#paint1_linear_0_1)"/>
<path d="M171.617 38.1475H118.317C118.052 38.1475 117.837 38.3624 117.837 38.6275V44.6275C117.837 44.8926 118.052 45.1075 118.317 45.1075H171.617C171.883 45.1075 172.097 44.8926 172.097 44.6275V38.6275C172.097 38.3624 171.883 38.1475 171.617 38.1475Z" fill="url(#paint2_linear_0_1)"/>
<path d="M189.667 50.7375C189.54 50.6101 189.469 50.4375 189.469 50.2575C189.469 50.0776 189.54 49.905 189.667 49.7775L192.287 47.1775C193.023 46.4469 194.014 46.0333 195.042 46.0277C196.069 46.0221 197.05 46.4249 197.767 47.1475L200.597 49.9975C200.953 50.3548 201.234 50.7799 201.424 51.2487C201.613 51.7174 201.708 52.2206 201.702 52.7294C201.697 53.2383 201.591 53.7429 201.391 54.2144C201.191 54.6859 200.901 55.1151 200.537 55.4775L197.917 58.0775C197.79 58.2045 197.617 58.2759 197.437 58.2759C197.257 58.2759 197.085 58.2045 196.957 58.0775L189.667 50.7375Z" fill="url(#paint3_linear_0_1)"/>
<path d="M42.5674 69.3175C42.7207 69.2708 42.8474 69.1842 42.9474 69.0575C48.1741 62.2642 53.5441 55.3208 59.0574 48.2275C59.1132 48.156 59.1846 48.098 59.2659 48.0581C59.3472 48.0182 59.4364 47.9974 59.5263 47.9974C59.6163 47.9974 59.7047 48.0182 59.7847 48.0581C59.8647 48.098 59.934 48.156 59.9874 48.2275L78.3074 72.6075C78.3411 72.654 78.3617 72.709 78.3668 72.7663C78.3719 72.8235 78.3615 72.8808 78.3365 72.9317C78.3116 72.9826 78.2732 73.0251 78.2257 73.0543C78.1782 73.0836 78.1234 73.0986 78.0674 73.0975H15.8274C15.7597 73.0985 15.6931 73.0803 15.6352 73.0451C15.5774 73.0099 15.5306 72.9591 15.5003 72.8985C15.4701 72.838 15.4575 72.7701 15.464 72.7027C15.4706 72.6353 15.496 72.5711 15.5374 72.5175L30.0374 53.7175C30.0754 53.6684 30.1244 53.6288 30.1804 53.6019C30.2363 53.575 30.2978 53.5615 30.3599 53.5625C30.422 53.5634 30.483 53.5789 30.5381 53.6075C30.5933 53.6361 30.6409 53.6772 30.6774 53.7275L41.9074 69.0975C41.9803 69.1972 42.0828 69.2719 42.2009 69.3113C42.319 69.3506 42.447 69.3528 42.5674 69.3175Z" fill="url(#paint4_linear_0_1)"/>
<path d="M159.547 79.9475L183.957 55.5475C184.053 55.4523 184.183 55.3988 184.317 55.3988C184.452 55.3988 184.582 55.4523 184.677 55.5475L192.207 63.0775C192.303 63.1731 192.356 63.3026 192.356 63.4375C192.356 63.5725 192.303 63.7019 192.207 63.7975L167.838 88.1375C167.742 88.2332 167.613 88.2872 167.477 88.2875L159.838 88.3575C159.77 88.3575 159.703 88.344 159.64 88.3178C159.577 88.2915 159.521 88.2531 159.473 88.2046C159.426 88.1562 159.388 88.0988 159.363 88.0358C159.338 87.9727 159.326 87.9053 159.327 87.8375L159.397 80.3075C159.398 80.1724 159.452 80.0429 159.547 79.9475Z" fill="url(#paint5_linear_0_1)"/>
<path d="M151.977 57.1275H118.377C118.079 57.1275 117.837 57.3693 117.837 57.6675V63.5675C117.837 63.8657 118.079 64.1075 118.377 64.1075H151.977C152.276 64.1075 152.517 63.8657 152.517 63.5675V57.6675C152.517 57.3693 152.276 57.1275 151.977 57.1275Z" fill="url(#paint6_linear_0_1)"/>
<defs>
<linearGradient id="paint0_linear_0_1" x1="46.8074" y1="0" x2="46.8074" y2="93.435" gradientUnits="userSpaceOnUse">
<stop stop-color="#A7D3EC"/>
<stop offset="1" stop-color="#EE9BB4"/>
</linearGradient>
<linearGradient id="paint1_linear_0_1" x1="144.967" y1="19.0975" x2="144.967" y2="26.0775" gradientUnits="userSpaceOnUse">
<stop stop-color="#A7D3EC"/>
<stop offset="1" stop-color="#EE9BB4"/>
</linearGradient>
<linearGradient id="paint2_linear_0_1" x1="144.967" y1="38.1475" x2="144.967" y2="45.1075" gradientUnits="userSpaceOnUse">
<stop stop-color="#A7D3EC"/>
<stop offset="1" stop-color="#EE9BB4"/>
</linearGradient>
<linearGradient id="paint3_linear_0_1" x1="195.586" y1="46.0276" x2="195.586" y2="58.2759" gradientUnits="userSpaceOnUse">
<stop stop-color="#A7D3EC"/>
<stop offset="1" stop-color="#EE9BB4"/>
</linearGradient>
<linearGradient id="paint4_linear_0_1" x1="46.9152" y1="47.9974" x2="46.9152" y2="73.0975" gradientUnits="userSpaceOnUse">
<stop stop-color="#A7D3EC"/>
<stop offset="1" stop-color="#EE9BB4"/>
</linearGradient>
<linearGradient id="paint5_linear_0_1" x1="175.842" y1="55.3988" x2="175.842" y2="88.3575" gradientUnits="userSpaceOnUse">
<stop stop-color="#A7D3EC"/>
<stop offset="1" stop-color="#EE9BB4"/>
</linearGradient>
<linearGradient id="paint6_linear_0_1" x1="135.177" y1="57.1275" x2="135.177" y2="64.1075" gradientUnits="userSpaceOnUse">
<stop stop-color="#A7D3EC"/>
<stop offset="1" stop-color="#EE9BB4"/>
</linearGradient>
</defs>
</svg>
