<svg width="2930" height="841" viewBox="0 0 2930 841" fill="none" xmlns="http://www.w3.org/2000/svg">
<path d="M457.737 766.657L475.807 736.13L432.777 710.66L414.707 741.19L457.737 766.657ZM324.193 736.13L342.263 766.657L385.29 741.19L367.22 710.66L324.193 736.13ZM414.707 741.19C408.283 752.043 391.717 752.043 385.29 741.19L342.263 766.657C368.05 810.223 431.95 810.223 457.737 766.657L414.707 741.19ZM350 132.667H450V82.6667H350V132.667ZM708.333 391V424.333H758.333V391H708.333ZM91.6667 424.333V391H41.6667V424.333H91.6667ZM41.6667 424.333C41.6667 462.82 41.653 492.937 43.3104 517.227C44.9834 541.743 48.441 562.147 56.2564 581.013L102.45 561.88C97.579 550.12 94.6937 535.793 93.1947 513.823C91.6804 491.63 91.6667 463.503 91.6667 424.333H41.6667ZM260.083 649.053C218.235 648.33 196.308 645.67 179.12 638.55L159.986 684.743C186.818 695.857 217.379 698.323 259.222 699.043L260.083 649.053ZM56.2564 581.013C75.7094 627.977 113.022 665.29 159.986 684.743L179.12 638.55C144.407 624.17 116.829 596.593 102.45 561.88L56.2564 581.013ZM708.333 424.333C708.333 463.503 708.32 491.63 706.807 513.823C705.307 535.793 702.42 550.12 697.55 561.88L743.743 581.013C751.56 562.147 755.017 541.743 756.69 517.227C758.347 492.937 758.333 462.82 758.333 424.333H708.333ZM540.777 699.043C582.62 698.323 613.183 695.857 640.013 684.743L620.88 638.55C603.693 645.67 581.763 648.33 539.917 649.053L540.777 699.043ZM697.55 561.88C683.17 596.593 655.593 624.17 620.88 638.55L640.013 684.743C686.977 665.29 724.29 627.977 743.743 581.013L697.55 561.88ZM450 132.667C505.04 132.667 544.567 132.693 575.397 135.624C605.857 138.52 625.237 144.074 640.687 153.543L666.813 110.911C642.183 95.819 614.247 89.093 580.13 85.849C546.383 82.6404 504.073 82.6667 450 82.6667V132.667ZM758.333 391C758.333 336.927 758.36 294.617 755.15 260.87C751.907 226.752 745.18 198.815 730.09 174.188L687.457 200.313C696.927 215.764 702.48 235.145 705.377 265.603C708.307 296.433 708.333 335.959 708.333 391H758.333ZM640.687 153.543C659.75 165.224 675.777 181.251 687.457 200.313L730.09 174.188C714.287 148.398 692.603 126.715 666.813 110.911L640.687 153.543ZM350 82.6667C295.927 82.6667 253.617 82.6404 219.87 85.849C185.752 89.093 157.815 95.819 133.188 110.911L159.313 153.543C174.764 144.074 194.145 138.52 224.603 135.624C255.433 132.693 294.959 132.667 350 132.667V82.6667ZM91.6667 391C91.6667 335.959 91.693 296.433 94.6244 265.603C97.5204 235.145 103.074 215.764 112.543 200.313L69.9107 174.188C54.819 198.815 48.093 226.752 44.849 260.87C41.6404 294.617 41.6667 336.927 41.6667 391H91.6667ZM133.188 110.911C107.398 126.715 85.7147 148.398 69.9107 174.188L112.543 200.313C124.224 181.251 140.251 165.224 159.313 153.543L133.188 110.911ZM367.22 710.66C360.453 699.227 354.513 689.137 348.737 681.21C342.65 672.863 335.673 665.347 325.995 659.717L300.857 702.94C302.438 703.857 304.591 705.533 308.328 710.66C312.374 716.213 316.945 723.883 324.193 736.13L367.22 710.66ZM259.222 699.043C273.858 699.297 283.129 699.483 290.196 700.263C296.8 700.997 299.359 702.067 300.857 702.94L325.995 659.717C316.237 654.04 306.082 651.717 295.699 650.567C285.78 649.47 273.792 649.29 260.083 649.053L259.222 699.043ZM475.807 736.13C483.053 723.883 487.623 716.213 491.67 710.66C495.407 705.533 497.56 703.857 499.14 702.94L474.003 659.717C464.327 665.347 457.347 672.863 451.263 681.21C445.487 689.137 439.547 699.227 432.777 710.66L475.807 736.13ZM539.917 649.053C526.207 649.29 514.22 649.47 504.3 650.567C493.917 651.717 483.763 654.04 474.003 659.717L499.14 702.94C500.64 702.067 503.2 700.997 509.803 700.263C516.87 699.483 526.14 699.297 540.777 699.043L539.917 649.053Z" fill="url(#paint0_linear_0_1)"/>
<path d="M516.667 302.003L522.387 307.722C566.83 352.166 589.053 374.39 589.053 402.003C589.053 429.617 566.83 451.84 522.387 496.283L516.667 502.003" stroke="url(#paint1_linear_0_1)" stroke-width="50" stroke-linecap="round"/>
<path d="M443.13 241L399.993 401.987L356.86 562.977" stroke="url(#paint2_linear_0_1)" stroke-width="50" stroke-linecap="round"/>
<path d="M283.34 302.003L277.62 307.722C233.176 352.166 210.954 374.39 210.954 402.003C210.954 429.617 233.176 451.84 277.62 496.283L283.34 502.003" stroke="url(#paint3_linear_0_1)" stroke-width="50" stroke-linecap="round"/>
<path d="M2863.33 674.333H2596.67M2196.67 674.333H2463.33" stroke="url(#paint4_linear_0_1)" stroke-width="50" stroke-linecap="round"/>
<path d="M2530 607.667V507.667" stroke="url(#paint5_linear_0_1)" stroke-width="50" stroke-linecap="round"/>
<path d="M2530 741C2566.82 741 2596.67 711.152 2596.67 674.333C2596.67 637.514 2566.82 607.667 2530 607.667C2493.18 607.667 2463.33 637.514 2463.33 674.333C2463.33 711.152 2493.18 741 2530 741Z" stroke="url(#paint6_linear_0_1)" stroke-width="50"/>
<path d="M2596.67 507.667H2296.67C2241.44 507.667 2196.67 462.897 2196.67 407.667C2196.67 352.438 2241.44 307.667 2296.67 307.667H2763.33C2818.56 307.667 2863.33 352.438 2863.33 407.667C2863.33 462.897 2818.56 507.667 2763.33 507.667H2730" stroke="url(#paint7_linear_0_1)" stroke-width="50" stroke-linecap="round"/>
<path d="M2530 107.667H2763.33C2818.56 107.667 2863.33 152.438 2863.33 207.667C2863.33 262.895 2818.56 307.667 2763.33 307.667H2296.67C2241.44 307.667 2196.67 262.895 2196.67 207.667C2196.67 152.438 2241.44 107.667 2296.67 107.667H2396.67" stroke="url(#paint8_linear_0_1)" stroke-width="50" stroke-linecap="round"/>
<path d="M2563.33 207.667H2763.33" stroke="url(#paint9_linear_0_1)" stroke-width="50" stroke-linecap="round"/>
<path d="M2563.33 407.667H2763.33" stroke="url(#paint10_linear_0_1)" stroke-width="50" stroke-linecap="round"/>
<path d="M2330 241C2348.41 241 2363.33 226.076 2363.33 207.667C2363.33 189.257 2348.41 174.333 2330 174.333C2311.59 174.333 2296.67 189.257 2296.67 207.667C2296.67 226.076 2311.59 241 2330 241Z" fill="#FFC1C1"/>
<path d="M2330 441C2348.41 441 2363.33 426.076 2363.33 407.667C2363.33 389.257 2348.41 374.333 2330 374.333C2311.59 374.333 2296.67 389.257 2296.67 407.667C2296.67 426.076 2311.59 441 2330 441Z" fill="#FFC1C1"/>
<path d="M1589.28 267.815H1076.16L1099.3 252.603C1110.69 245.111 1110.69 232.964 1099.3 225.473C1087.91 217.98 1069.43 217.98 1058.04 225.473L985.095 273.431C984.411 273.881 983.766 274.351 983.155 274.842C982.888 275.055 982.657 275.282 982.407 275.501C982.086 275.782 981.755 276.057 981.457 276.35C981.185 276.617 980.95 276.894 980.7 277.17C980.461 277.432 980.21 277.689 979.991 277.96C979.761 278.241 979.568 278.529 979.364 278.816C979.159 279.097 978.947 279.373 978.764 279.663C978.589 279.941 978.45 280.226 978.294 280.508C978.128 280.817 977.946 281.12 977.802 281.434C977.674 281.717 977.578 282.005 977.467 282.291C977.344 282.612 977.206 282.929 977.11 283.256C977.01 283.583 976.954 283.915 976.88 284.244C976.816 284.534 976.735 284.817 976.69 285.11C976.598 285.719 976.552 286.331 976.548 286.944C976.548 286.963 976.544 286.98 976.544 287C976.544 287.02 976.548 287.037 976.548 287.056C976.552 287.669 976.598 288.281 976.69 288.89C976.735 289.183 976.816 289.467 976.88 289.756C976.954 290.085 977.01 290.417 977.11 290.744C977.207 291.071 977.345 291.387 977.467 291.709C977.577 291.995 977.672 292.283 977.802 292.566C977.947 292.881 978.126 293.183 978.294 293.492C978.45 293.774 978.59 294.058 978.764 294.337C978.947 294.627 979.159 294.903 979.364 295.184C979.568 295.471 979.762 295.759 979.991 296.04C980.21 296.311 980.461 296.568 980.7 296.83C980.95 297.104 981.184 297.382 981.457 297.65C981.755 297.943 982.086 298.218 982.407 298.499C982.657 298.718 982.889 298.945 983.155 299.158C983.768 299.649 984.414 300.12 985.095 300.569L1058.04 348.527C1063.73 352.273 1071.2 354.147 1078.67 354.147C1086.13 354.147 1093.6 352.275 1099.3 348.527C1110.69 341.035 1110.69 328.889 1099.3 321.397L1076.16 306.185H1589.28C1605.39 306.184 1618.46 297.594 1618.46 287C1618.46 276.405 1605.39 267.815 1589.28 267.815Z" fill="#3D6DEB" stroke="black" stroke-width="0.00130882"/>
<path d="M1387.18 593.332L1900.29 593.332L1877.16 608.544C1865.76 616.036 1865.76 628.183 1877.16 635.674C1888.55 643.167 1907.02 643.167 1918.42 635.674L1991.36 587.716C1992.04 587.266 1992.69 586.796 1993.3 586.305C1993.57 586.092 1993.8 585.865 1994.05 585.646C1994.37 585.365 1994.7 585.09 1995 584.797C1995.27 584.53 1995.51 584.252 1995.76 583.977C1995.99 583.715 1996.25 583.458 1996.47 583.187C1996.69 582.906 1996.89 582.618 1997.09 582.331C1997.3 582.05 1997.51 581.774 1997.69 581.484C1997.87 581.206 1998.01 580.921 1998.16 580.639C1998.33 580.33 1998.51 580.027 1998.65 579.713C1998.78 579.43 1998.88 579.142 1998.99 578.856C1999.11 578.535 1999.25 578.218 1999.35 577.891C1999.45 577.564 1999.5 577.232 1999.58 576.903C1999.64 576.613 1999.72 576.33 1999.77 576.037C1999.86 575.428 1999.9 574.816 1999.91 574.203C1999.91 574.184 1999.91 574.167 1999.91 574.147C1999.91 574.127 1999.91 574.11 1999.91 574.091C1999.9 573.478 1999.86 572.866 1999.77 572.257C1999.72 571.964 1999.64 571.68 1999.58 571.391C1999.5 571.062 1999.45 570.73 1999.35 570.403C1999.25 570.076 1999.11 569.76 1998.99 569.438C1998.88 569.152 1998.78 568.864 1998.65 568.581C1998.51 568.266 1998.33 567.964 1998.16 567.655C1998.01 567.373 1997.87 567.089 1997.69 566.81C1997.51 566.52 1997.3 566.244 1997.09 565.963C1996.89 565.676 1996.69 565.388 1996.47 565.107C1996.25 564.836 1995.99 564.579 1995.76 564.317C1995.51 564.043 1995.27 563.764 1995 563.497C1994.7 563.204 1994.37 562.929 1994.05 562.648C1993.8 562.429 1993.57 562.202 1993.3 561.989C1992.69 561.498 1992.04 561.027 1991.36 560.578L1918.42 512.62C1912.72 508.874 1905.25 507 1897.79 507C1890.32 507 1882.85 508.872 1877.16 512.62C1865.76 520.112 1865.76 532.258 1877.16 539.75L1900.29 554.962L1387.18 554.962C1371.06 554.963 1358 563.553 1358 574.147C1358 584.742 1371.06 593.332 1387.18 593.332Z" fill="#3D6DEB" stroke="black" stroke-width="0.00130882"/>
<defs>
<linearGradient id="paint0_linear_0_1" x1="400" y1="82.6667" x2="400" y2="799.332" gradientUnits="userSpaceOnUse">
<stop stop-color="#55FFCC"/>
<stop offset="1" stop-color="#56ADDD"/>
</linearGradient>
<linearGradient id="paint1_linear_0_1" x1="552.86" y1="302.003" x2="552.86" y2="502.003" gradientUnits="userSpaceOnUse">
<stop stop-color="#55FFCC"/>
<stop offset="1" stop-color="#56ADDD"/>
</linearGradient>
<linearGradient id="paint2_linear_0_1" x1="399.995" y1="241" x2="399.995" y2="562.977" gradientUnits="userSpaceOnUse">
<stop stop-color="#55FFCC"/>
<stop offset="1" stop-color="#56ADDD"/>
</linearGradient>
<linearGradient id="paint3_linear_0_1" x1="247.147" y1="302.003" x2="247.147" y2="502.003" gradientUnits="userSpaceOnUse">
<stop stop-color="#55FFCC"/>
<stop offset="1" stop-color="#56ADDD"/>
</linearGradient>
<linearGradient id="paint4_linear_0_1" x1="2530" y1="674.333" x2="2530" y2="675.333" gradientUnits="userSpaceOnUse">
<stop stop-color="#FF5656"/>
<stop offset="1" stop-color="#EBA1A1"/>
</linearGradient>
<linearGradient id="paint5_linear_0_1" x1="2530.5" y1="507.667" x2="2530.5" y2="607.667" gradientUnits="userSpaceOnUse">
<stop stop-color="#FF5656"/>
<stop offset="1" stop-color="#EBA1A1"/>
</linearGradient>
<linearGradient id="paint6_linear_0_1" x1="2530" y1="607.667" x2="2530" y2="741" gradientUnits="userSpaceOnUse">
<stop stop-color="#FF5656"/>
<stop offset="1" stop-color="#EBA1A1"/>
</linearGradient>
<linearGradient id="paint7_linear_0_1" x1="2530" y1="307.667" x2="2530" y2="507.667" gradientUnits="userSpaceOnUse">
<stop stop-color="#FF5656"/>
<stop offset="1" stop-color="#EBA1A1"/>
</linearGradient>
<linearGradient id="paint8_linear_0_1" x1="2530" y1="107.667" x2="2530" y2="307.667" gradientUnits="userSpaceOnUse">
<stop stop-color="#FF5656"/>
<stop offset="1" stop-color="#EBA1A1"/>
</linearGradient>
<linearGradient id="paint9_linear_0_1" x1="2663.33" y1="207.667" x2="2663.33" y2="208.667" gradientUnits="userSpaceOnUse">
<stop stop-color="#FF5656"/>
<stop offset="1" stop-color="#EBA1A1"/>
</linearGradient>
<linearGradient id="paint10_linear_0_1" x1="2663.33" y1="407.667" x2="2663.33" y2="408.667" gradientUnits="userSpaceOnUse">
<stop stop-color="#FF5656"/>
<stop offset="1" stop-color="#EBA1A1"/>
</linearGradient>
</defs>
</svg>
