<svg width="1085" height="1085" viewBox="0 0 1085 1085" fill="none" xmlns="http://www.w3.org/2000/svg">
<circle cx="542.5" cy="542.5" r="523.5" stroke="white" stroke-width="38"/>
<path d="M622.375 808.803V675.678C622.375 663.91 619.753 652.754 615.16 642.676C626.143 640.453 637.125 637.911 648.068 634.676C681.709 624.745 729.993 583.569 744.264 543.312C760.08 498.635 760.08 453.319 744.264 408.643L744.251 408.629C741.415 400.602 737.102 392.508 730.965 383.762C742.254 341.774 734.333 306.656 733.961 305.018L729.101 284.198L707.722 284.45C705.725 284.477 661.394 285.289 618.208 310.476C568.223 300.705 516.818 300.705 466.832 310.476C423.659 285.289 379.329 284.477 377.319 284.45L355.912 284.198L351.053 305.018C350.68 306.656 342.759 341.774 354.048 383.762C347.911 392.508 343.598 400.615 340.749 408.643C324.947 453.319 324.947 498.635 340.763 543.325C355.007 583.569 403.291 624.745 436.945 634.676C447.888 637.911 458.871 640.453 469.854 642.676C465.097 653.029 462.632 664.286 462.625 675.678V692.731C461.8 693.211 460.934 693.597 460.136 694.169C456.288 696.978 421.942 720.355 386.85 695.367C374.47 682.774 368.399 673.548 362.542 664.629C349.389 644.66 338.033 630.203 301.464 611.911C295.146 608.753 287.832 608.234 281.131 610.469C274.43 612.703 268.891 617.508 265.733 623.826C262.575 630.144 262.056 637.458 264.291 644.159C266.525 650.86 271.33 656.399 277.648 659.557C304.153 672.803 308.813 679.858 318.051 693.916C324.907 704.313 333.427 717.266 350.6 734.44L353.463 736.916C375.987 753.823 399.351 759.853 420.731 759.853C435.027 759.778 449.202 757.225 462.625 752.305V808.923L622.375 808.803Z" fill="white"/>
</svg>
