<svg width="514" height="156" viewBox="0 0 514 156" fill="none" xmlns="http://www.w3.org/2000/svg">
<path d="M116.223 3.89073e-05L89.1482 57.3146L117.805 70.8518L144.88 13.5373L116.223 3.89073e-05Z" fill="#4E6851"/>
<path d="M160 55.7318L102.685 28.6573L89.1478 57.3146L146.462 84.3891L160 55.7318Z" fill="#4E6851"/>
<path d="M155.33 103.021L98.0708 75.8296L84.4752 104.459L141.735 131.65L155.33 103.021Z" fill="#4E6851"/>
<path d="M99.5099 146.684L126.701 89.4251L98.0714 75.8295L70.8802 133.089L99.5099 146.684Z" fill="#4E6851"/>
<path d="M43.8135 155.334L70.8507 98.0014L42.1846 84.4828L15.1474 141.815L43.8135 155.334Z" fill="#4E6851"/>
<path d="M0.000213259 99.6308L57.3324 126.668L70.851 98.0019L13.5188 70.9647L0.000213259 99.6308Z" fill="#4E6851"/>
<path d="M7.44374 53.6745L64.7211 80.8277L78.2977 52.189L21.0203 25.0358L7.44374 53.6745Z" fill="#4E6851"/>
<path d="M63.2359 9.97377L36.0825 67.251L64.7211 80.8277L91.8745 23.5505L63.2359 9.97377Z" fill="#4E6851"/>
<path d="M208.337 87.6072C208.337 92.711 209.342 96.6457 211.353 99.4143C213.418 102.128 216.57 103.486 220.809 103.486C222.657 103.486 224.477 103.268 226.27 102.834C228.064 102.401 230.21 101.639 232.71 100.554L235.074 106.58C232.411 107.775 229.884 108.642 227.493 109.186C225.102 109.73 222.792 110 220.564 110C214.151 110 209.288 107.99 205.973 103.974C202.657 99.9581 201 94.5024 201 87.6072V75.3929C201 68.4976 202.657 63.0419 205.973 59.0257C209.288 55.0096 214.151 53 220.564 53C222.792 53 225.102 53.2705 227.493 53.8143C229.939 54.3582 232.411 55.2248 234.911 56.42L232.629 62.5271C228.227 60.5729 224.287 59.5957 220.809 59.5957C216.57 59.5957 213.418 60.9539 211.353 63.6672C209.342 66.3805 208.337 70.2891 208.337 75.3929V87.6072ZM303.92 75.3929V87.5257C303.92 94.421 302.181 99.9028 298.703 103.974C295.279 107.99 290.334 110 283.867 110C277.4 110 272.427 107.99 268.949 103.974C265.525 99.9028 263.813 94.421 263.813 87.5257V75.3929C263.813 68.5529 265.525 63.1233 268.949 59.1072C272.427 55.0357 277.4 53 283.867 53C290.334 53 295.279 55.0357 298.703 59.1072C302.181 63.1233 303.92 68.5529 303.92 75.3929ZM296.583 75.3929C296.583 70.3443 295.497 66.4619 293.323 63.7486C291.203 60.98 288.051 59.5957 283.867 59.5957C279.737 59.5957 276.585 60.98 274.411 63.7486C272.237 66.4619 271.15 70.3443 271.15 75.3929V87.5257C271.15 92.6296 272.237 96.5643 274.411 99.3329C276.585 102.101 279.737 103.486 283.867 103.486C288.051 103.486 291.203 102.101 293.323 99.3329C295.497 96.5643 296.583 92.6296 296.583 87.5257V75.3929ZM339.336 109.186V53.8143H346.754C351.699 60.8724 356.237 67.9829 360.367 75.1486C364.552 82.2591 368.465 89.6981 372.106 97.46L371.291 76.2886V53.8143H378.22V109.186H370.802C366.998 101.261 363.057 93.5514 358.982 86.06C354.96 78.5133 350.558 71.1586 345.776 63.9929L346.265 86.5486V109.186H339.336ZM446.972 102.59V109.186H415.997V53.8143H446.157V60.4914H423.089V77.8357H443.712V84.5129H423.089V102.59H446.972ZM506.011 109.186L492.806 86.63L480.089 109.186H472.671L489.137 80.6043L473.486 53.8143H481.556L493.784 74.9043L505.767 53.8143H513.103L497.452 80.93L514 109.186H506.011Z" fill="#595959"/>
</svg>
