<?xml version="1.0" standalone="yes"?>
<svg xmlns="http://www.w3.org/2000/svg" width="498" height="374">
<path style="fill:#fdfdfd; stroke:none;" d="M0 0L0 374L498 374L498 0L0 0z"/>
<path style="fill:#040404; stroke:none;" d="M322 333C337.942 333 354.078 332.266 370 333.04C380.251 333.538 389.431 337.424 400 336.961C426.019 335.82 448.483 317.273 456.644 293C459.483 284.558 460 275.829 460 267C464.285 269.501 472.488 271.672 474.933 276.213C477.266 280.548 474.515 289.271 474.075 294C472.524 310.678 470.257 327.297 468.914 344C468.406 350.323 466.995 356.644 467.008 363C467.013 365.395 466.894 368.429 468.742 370.257C471.212 372.699 475.305 371.654 476.972 368.852C479.581 364.468 479.109 356.043 479.715 351C481.908 332.717 483.397 314.321 485.17 296C485.898 288.475 489.048 278.451 487.477 271.015C486.519 266.483 481.721 264.593 478 262.756C470.019 258.817 459.405 256.292 455 248C461.2 249.202 473.041 254.082 478.907 250.968C481.655 249.51 483.384 246.445 485.14 244C488.71 239.031 493.422 233.627 495.856 228C497.083 225.167 496.854 221.675 493.852 220.047C490.593 218.28 487.566 220.72 485.465 223.059C481.511 227.458 479.188 233.823 474.674 237.643C471.547 240.289 467.606 238.919 464 238.2C455.532 236.51 448.805 235.917 443 229C452.689 228.234 462.467 225.876 472 223.999C475.839 223.244 480.38 222.948 483.034 219.721C488.292 213.328 493.445 201.859 496.029 194C497.204 190.428 496.347 186.07 491.985 185.427C487.686 184.793 485.497 188.701 484.004 192.004C481.461 197.627 478.915 206.142 474.363 210.436C471.55 213.088 466.616 213.277 463 214C454.671 215.666 446.228 216.871 438 219C441.743 210.313 447.36 202.129 452.201 194C454.436 190.245 458.087 185.638 457.502 181C457.046 177.394 454.42 174.035 452.6 171C448.945 164.903 445.704 157.651 441.096 152.228C438.748 149.466 434.4 147.976 431.758 151.319C429.358 154.354 431.293 158.101 432.866 161C436.111 166.98 443.723 174.897 444.507 181.715C444.773 184.03 443.104 186.13 442.006 188.015C439.53 192.264 436.947 196.482 435 201C432.458 195.293 430.313 189.954 426.331 185.015C424.055 182.192 419.609 179.559 418.626 175.961C417.924 173.391 419.379 170.541 419.684 168C420.165 164.009 419.143 159.563 417.316 156C415.376 152.218 409.238 145.005 404.603 149.604C398.712 155.45 410.853 162.198 407.387 168.836C405.322 172.794 401.72 170.406 401.148 166.956C399.211 155.28 401 141.843 401 130L401 53C401 37.8672 404.419 17.561 390.91 6.92746C382.327 0.172211 372.276 1 362 1L309 1L93 1L37 1C25.0322 1 13.469 1.16357 5.80015 12.0038C0.0889025 20.077 1 29.6421 1 39L1 90L1 240L1 287C1 295.034 -0.166175 304.119 1.51775 312C5.83878 332.223 24.1913 333 41 333L75 333L228 333C253.254 333 278.772 331.92 303.999 333.019C306.221 333.116 308.614 333.289 309.972 335.318C311.365 337.398 311.102 340.609 311.424 343C312.278 349.325 312.934 355.668 313.715 362C314.249 366.325 314.514 373.587 320.96 372.458C326.324 371.517 325.423 365.979 325.074 362C324.227 352.345 322.08 342.699 322 333z"/>
<path style="fill:#fdfdfd; stroke:none;" d="M389 50C389 38.8546 392.944 20.1421 380.985 14C373.833 10.3265 363.8 12 356 12L302 12L106 12L45 12C36.9569 12 26.0666 10.1238 19.0401 14.8788C10.6306 20.5698 11.996 31.1562 12 40C12.0013 42.8763 11.1586 47.842 14.3179 49.3966C19.6556 52.0231 30.1108 50 36 50L87 50L143 50L243 50L389 50z"/>
<path style="fill:#040404; stroke:none;" d="M279 16.5077C259.71 19.3642 264.626 47.8108 284 44.7863C301.527 42.0499 296.441 13.925 279 16.5077M317 16.5077C297.708 19.3708 302.841 47.7773 322 44.7863C339.506 42.0533 334.503 13.9102 317 16.5077M355 16.5077C335.579 19.3898 340.85 47.7759 360 44.7863C377.506 42.0533 372.503 13.9102 355 16.5077M34.0586 25.7423C29.5103 27.6456 28.8088 34.2403 34.0586 35.6821C37.4111 36.6028 41.5511 36 45 36L67 36L193 36L230 36C233.676 36 240.544 37.2779 243.396 34.3966C247.612 30.137 242.175 25.5787 237.999 25.1088C225.321 23.6821 211.762 25 199 25L83 25L50 25C45.1947 25 38.5721 23.8535 34.0586 25.7423z"/>
<path style="fill:#fdfdfd; stroke:none;" d="M279.603 29.0818C277.132 30.8717 279.918 34.713 282.397 32.9182C284.868 31.1284 282.082 27.2869 279.603 29.0818M317.603 29.0818C315.132 30.8717 317.918 34.713 320.397 32.9182C322.868 31.1284 320.082 27.2869 317.603 29.0818M355.603 29.0818C353.132 30.8717 355.918 34.713 358.397 32.9182C360.868 31.1284 358.082 27.2869 355.603 29.0818M12 61L12 249L12 296C12 303.111 11.1034 311.156 16.3434 316.811C22.1888 323.12 31.2091 322 39 322L92 322L309 322C308.026 309.661 306.314 297.281 304.718 285C304.169 280.773 302.212 274.011 304.782 270.213C311.88 259.721 330.935 261.24 336 249C329.691 249.502 318.834 254.646 313.015 251.933C306.265 248.786 299.109 236.392 295.603 230C294.001 227.08 293.613 222.986 297.217 221.288C300.049 219.953 302.504 222.083 304.251 224.11C308.162 228.647 310.771 234.437 315.015 238.678C317.891 241.553 321.441 240.311 325 239.6C332.691 238.065 343.246 237.794 347 230C338.165 227.823 328.977 226.578 320 225.08C315.789 224.378 310.68 224.092 307.637 220.721C302.123 214.612 297.151 202.739 294.371 195C293.231 191.826 293.974 187.624 298.015 187.06C301.522 186.571 303.763 190.435 305.204 193.001C308.321 198.553 310.578 208.035 315.637 212.062C318.522 214.358 323.495 214.495 327 215.08C335.265 216.459 343.618 218.64 352 219C348.241 210.277 342.574 202.071 337.576 194C335.436 190.544 331.769 186.345 332.241 182C332.593 178.756 334.987 175.743 336.576 173C340.194 166.752 343.323 159.746 347.785 154.048C350.066 151.136 354.314 148.329 357.214 152.294C359.318 155.171 357.298 158.365 355.845 161C352.483 167.095 346.344 174.199 344.804 181C343.347 187.435 351.632 196.909 355 202C360.746 192.915 363.664 184.577 373 178C370.607 169.228 368.454 162.313 373.969 154.015C375.511 151.695 377.945 148.823 380.996 148.752C391.482 148.506 381.626 161.154 381.258 164.999C380.985 167.852 382.283 171.974 385.896 171.534C389.055 171.149 388.95 167.387 388.995 164.999C389.115 158.671 389 152.329 389 146L389 61L12 61z"/>
<path style="fill:#040404; stroke:none;" d="M30.1088 79.7423C25.9164 81.5453 26.0213 86.1076 26.0008 90C25.9516 99.3324 25.9808 108.667 26 118C26.0081 121.932 25.7075 126.639 30.0586 128.397C36.4975 130.997 47.1047 129 54 129L107 129L292 129L352 129C357.476 129 369.195 131.195 373.566 127.397C376.667 124.702 375.999 119.667 376 116C376.003 107.014 376.266 97.9814 375.985 89C375.85 84.7125 374.631 80.5205 369.985 79.3179C362.505 77.382 352.714 79 345 79L292 79L122 79L58 79C50.0875 79 37.4342 76.5918 30.1088 79.7423z"/>
<path style="fill:#fdfdfd; stroke:none;" d="M37 118L364 118L364 90L116 90L58 90C53.6192 90 41.001 87.8494 38.0278 91.6034C36.532 93.492 37.0046 96.764 37 99L37 118z"/>
<path style="fill:#040404; stroke:none;" d="M29.1481 158.028C23.9713 161.1 27.0745 167.07 32.0046 167.852C44.0647 169.764 57.7829 168 70 168L215 168L258 168C262.348 168 270.27 169.499 273.392 165.682C277.942 160.119 270.348 157.086 266 157.005C251.012 156.723 235.991 157 221 157L82 157L45 157C40.481 157 33.1732 155.639 29.1481 158.028z"/>
<path style="fill:#fdfdfd; stroke:none;" d="M389 182.518C375.974 185.297 366.324 196.699 366.015 210C365.903 214.791 368.804 221.499 367.218 225.91C365.561 230.515 359.45 233.426 356.3 237.015C350.307 243.843 346.013 252.168 343.899 261C335.142 297.588 369.408 332.57 406 324.789C438.616 317.854 457.347 282.857 444.384 252C441.738 245.7 437.787 239.874 432.961 235.039C430.036 232.109 425.87 229.677 423.836 225.985C421.072 220.971 425.375 213.62 424.557 208C422.085 191.022 406.202 178.848 389 182.518z"/>
<path style="fill:#040404; stroke:none;" d="M29.2284 196.742C23.6291 199.363 27.3688 205.897 32.0154 206.772C43.8755 209.003 57.9281 207 70 207L214 207L257 207C261.573 207 269.951 208.567 273.253 204.566C278.292 198.461 269.331 196.031 265 196.001C249.668 195.895 234.332 196 219 196L84 196L46 196C41.1304 196 33.7274 194.636 29.2284 196.742M30.1088 234.742C24.1 237.328 26.3317 244.702 32.0154 245.772C43.567 247.945 57.2428 246 69 246L214 246L257 246C261.59 246 269.93 247.562 273.254 243.566C277.92 237.958 270.722 234.28 266 234.04C250.749 233.266 235.272 234 220 234L86 234L47 234C41.9765 234 34.8052 232.722 30.1088 234.742z"/>
<path style="fill:#fdfdfd; stroke:none;" d="M320 322L353 322C350.359 316.335 345.245 312.199 341.749 307C334.526 296.258 329.863 280.953 332 268C327.307 268.847 317.57 272.407 315.618 277.213C314.106 280.935 316.055 287.129 316.576 291C317.951 301.226 319.557 311.694 320 322z"/>
<path style="fill:#040404; stroke:none;" d="M30.1088 273.742C25.0241 275.93 25.4555 282.925 31.044 283.852C43.3471 285.893 57.5204 284 70 284L214 284L258 284C261.971 284 270.233 285.551 273.254 282.397C278.364 277.059 270.357 273.152 266 273.015C250.699 272.535 235.309 273 220 273L86 273L47 273C41.9765 273 34.8052 271.722 30.1088 273.742z"/>
</svg>
