<svg width="1085" height="1085" viewBox="0 0 1085 1085" fill="none" xmlns="http://www.w3.org/2000/svg">
<circle cx="542.5" cy="542.5" r="523.5" stroke="white" stroke-width="38"/>
<g clip-path="url(#clip0_0_1)">
<path fill-rule="evenodd" clip-rule="evenodd" d="M799 736H704.8V571.173C704.8 525.957 684.853 500.73 649.081 500.73C610.153 500.73 587.05 527.017 587.05 571.173V736H492.85V429.85H587.05V464.278C587.05 464.278 616.605 412.417 683.204 412.417C749.827 412.417 799 453.073 799 537.193V736ZM385.509 380.887C353.74 380.887 328 354.937 328 322.932C328 290.951 353.74 265 385.509 265C417.255 265 442.995 290.951 442.995 322.932C443.018 354.937 417.255 380.887 385.509 380.887ZM328 736H445.75V429.85H328V736Z" fill="white"/>
</g>
<defs>
<clipPath id="clip0_0_1">
<rect width="471" height="471" fill="white" transform="translate(328 265)"/>
</clipPath>
</defs>
</svg>
