<svg width="1000" height="1000" viewBox="0 0 1000 1000" fill="none" xmlns="http://www.w3.org/2000/svg">
    <path d="M166.667 833.333C166.667 741.286 241.286 666.666 333.333 666.666H500V833.333C500 925.379 425.38 999.999 333.333 999.999C241.286 999.999 166.667 925.379 166.667 833.333Z" fill="#24CB71"/>
    <path d="M500 0V333.333H666.667C758.713 333.333 833.333 258.713 833.333 166.667C833.333 74.6199 758.713 0 666.667 0H500Z" fill="#FF7237"/>
    <path d="M665.278 666.665C757.325 666.665 831.944 592.046 831.944 499.999C831.944 407.951 757.325 333.332 665.278 333.332C573.23 333.332 498.611 407.951 498.611 499.999C498.611 592.046 573.23 666.665 665.278 666.665Z" fill="#00B6FF"/>
    <path d="M166.667 166.667C166.667 258.713 241.286 333.333 333.333 333.333H500V0H333.333C241.286 0 166.667 74.6199 166.667 166.667Z" fill="#FF3737"/>
    <path d="M166.667 499.999C166.667 592.045 241.286 666.665 333.333 666.665H500V333.332H333.333C241.286 333.332 166.667 407.952 166.667 499.999Z" fill="#874FFF"/>
</svg>
