<svg width="1000" height="1000" viewBox="0 0 1000 1000" fill="none" xmlns="http://www.w3.org/2000/svg">
 <path d="M238.083 490.492H228.708C224.958 528.773 219.708 575.31 153.708 575.31H123.333C105.708 575.31 104.958 572.683 104.958 560.298V361.014C104.958 348.253 104.958 342.999 140.208 342.999H152.583V331.74C139.083 332.866 105.333 332.866 89.9585 332.866C75.3335 332.866 46.0835 332.866 33.3335 331.74V342.999H41.9585C70.8335 342.999 71.5835 347.128 71.5835 360.638V557.671C71.5835 571.182 70.8335 575.31 41.9585 575.31H33.3335V586.944H227.958L238.083 490.492Z" fill="black"/>
 <path d="M231.708 331.364C230.208 326.861 229.458 325.359 224.583 325.359C219.708 325.359 218.583 326.861 217.083 331.364L156.708 484.487C154.083 490.867 149.583 502.501 126.333 502.501V511.883H184.458V502.501C172.833 502.501 165.708 497.247 165.708 489.741C165.708 487.864 166.083 487.114 166.833 484.487L179.583 452.211H253.833L268.833 490.491C269.583 491.993 270.333 493.869 270.333 494.995C270.333 502.501 256.083 502.501 248.958 502.501V511.883H322.833V502.501H317.583C299.958 502.501 298.084 499.874 295.459 492.368L231.708 331.364ZM216.708 358.01L250.083 442.828H183.333L216.708 358.01Z" fill="black"/>
 <path d="M532.084 333.992H303.708L296.958 418.059H305.958C311.208 357.636 316.833 345.251 373.459 345.251C380.209 345.251 389.959 345.251 393.709 346.002C401.584 347.503 401.584 351.631 401.584 360.263V557.296C401.584 570.056 401.584 575.31 362.209 575.31H347.209V586.944C362.584 585.818 400.459 585.818 417.709 585.818C434.959 585.818 473.584 585.818 488.959 586.944V575.31H473.959C434.584 575.31 434.584 570.056 434.584 557.296V360.263C434.584 352.757 434.584 347.503 441.334 346.002C445.459 345.251 455.584 345.251 462.709 345.251C518.959 345.251 524.584 357.636 529.834 418.059H539.209L532.084 333.992Z" fill="black"/>
 <path d="M733.083 574.935H723.708C714.333 632.355 705.708 659.752 641.583 659.752H592.083C574.458 659.752 573.708 657.125 573.708 644.74V544.911H607.083C643.458 544.911 647.584 556.92 647.584 588.821H656.959V489.741H647.584C647.584 521.642 643.458 533.276 607.083 533.276H573.708V443.58C573.708 431.195 574.458 428.568 592.083 428.568H640.083C697.458 428.568 707.209 449.209 713.209 501.376H722.584L712.083 417.309H502.083V428.568H510.708C539.583 428.568 540.333 432.696 540.333 446.207V642.113C540.333 655.624 539.583 659.752 510.708 659.752H502.083V671.387H717.333L733.083 574.935Z" fill="black"/>
 <path d="M845.958 442.454L897.334 367.394C905.209 355.384 917.959 343.375 951.334 342.999V331.74H862.083V342.999C877.083 343.375 885.333 351.631 885.333 360.263C885.333 364.016 884.583 364.767 881.958 368.895L839.208 431.945L791.208 359.888C790.458 358.762 788.583 355.759 788.583 354.258C788.583 349.755 796.833 343.375 812.583 342.999V331.74C799.833 332.866 772.458 332.866 758.208 332.866C746.583 332.866 723.333 332.491 709.458 331.74V342.999H716.583C737.208 342.999 744.333 345.626 751.458 356.135L820.083 460.093L758.958 550.54C753.708 558.046 742.458 575.31 704.958 575.31V586.944H794.209V575.31C776.959 574.935 770.583 564.802 770.583 558.046C770.583 554.668 771.708 553.167 774.333 549.039L827.208 470.601L886.459 559.923C887.209 561.424 888.333 562.925 888.333 564.051C888.333 568.555 880.083 574.935 863.958 575.31V586.944C877.083 585.818 904.458 585.818 918.333 585.818C934.083 585.818 951.333 586.194 967.083 586.944V575.31H959.959C940.459 575.31 932.584 573.433 924.709 561.799L845.958 442.454Z" fill="black"/>
</svg>
