<svg width="1883" height="800" viewBox="0 0 1883 800" fill="none" xmlns="http://www.w3.org/2000/svg">
<g clip-path="url(#clip0_0_1)">
<path d="M527.047 342.505C564.875 342.505 595.675 311.74 595.675 273.882C595.675 236.04 564.875 205.273 527.047 205.273C489.194 205.273 458.45 236.038 458.45 273.882C458.45 311.74 489.194 342.505 527.047 342.505Z" fill="#0D91C9"/>
<path d="M149.724 541.679C144.252 543.269 138.548 544.064 132.791 544.064C127.455 544.064 122.114 543.372 116.747 541.928C104.84 538.681 94.4502 531.988 86.4694 522.74H66.2801C59.3723 522.74 53.7747 517.112 53.7747 510.208V468.185C43.5074 449.335 44.2158 427.359 53.7747 409.653V379.931C44.2626 362.278 43.5639 340.378 53.7747 321.464V120.224C53.7747 113.321 59.3723 107.691 66.2801 107.691H362.13C368.077 103.756 374.535 100.503 381.678 98.5858C387.276 97.0996 393.083 96.3203 398.925 96.3203C409.261 96.3203 419.451 98.731 428.542 103.275C429.818 82.9661 440.423 65.3053 455.847 53.9343H66.2801C29.7531 53.9343 0 83.6584 0 120.224V510.208C0 546.77 29.7531 576.497 66.2801 576.497H173.565C161.942 568.149 153.266 555.958 149.724 541.679Z" fill="#0012B5"/>
<path d="M733.727 53.9343H598.254C613.699 65.3053 624.283 82.9952 625.524 103.302C634.697 98.7326 644.861 96.3219 655.177 96.3219C668.36 96.3219 680.891 100.62 691.625 107.693H733.727C740.628 107.693 746.235 113.321 746.235 120.226V187.987C753.843 202.853 755.841 219.63 751.52 235.52C750.266 240.222 748.418 244.64 746.235 248.873V299.143C755.633 317.662 756.317 340.072 746.235 359.725V510.209C746.235 517.112 740.628 522.742 733.727 522.742H382.558C374.638 531.911 364.035 538.736 352.211 541.941C346.996 543.362 341.627 544.064 336.264 544.064C330.478 544.064 324.801 543.257 319.331 541.691C318.622 544.414 317.657 547.033 316.646 549.61C310.813 564.134 299.551 575.805 285.379 582.358V617.87C243.205 622.44 210.165 657.836 210.165 701.188V725.886C210.165 737.023 219.212 746.065 230.305 746.065H569.729C580.822 746.065 589.858 737.024 589.858 725.886V701.188C589.858 657.836 556.826 622.44 514.653 617.87V576.497H733.728C770.255 576.497 800.002 546.77 800.002 510.208V120.224C800 83.6584 770.253 53.9343 733.727 53.9343ZM549.555 701.188V705.722H250.471V701.188C250.471 676.999 270.168 657.301 294.394 657.301H505.63C529.868 657.301 549.555 676.999 549.555 701.188Z" fill="#0012B5"/>
<path d="M412.075 140.178C408.067 137.833 403.478 136.663 398.924 136.663C396.627 136.663 394.339 136.951 392.099 137.549C385.348 139.371 379.644 143.762 376.128 149.83L344.13 205.198C336.869 217.793 341.137 233.868 353.771 241.16L377.928 255.087C377.614 257.26 377.326 259.41 377.036 261.575C381.751 265.82 386.024 270.537 389.233 276.175L414.688 320.218C422.844 334.405 424.978 350.87 420.703 366.827C417.731 377.612 412.053 387.187 404.131 394.806C407.809 398.339 410.88 402.403 413.561 406.713L436.069 393.727C446.154 401.4 456.861 408.227 468.741 413.198V440.336C468.741 454.847 480.543 466.62 495.082 466.62H559.017C573.527 466.62 585.327 454.847 585.327 440.336V413.198C597.208 408.227 607.917 401.398 617.977 393.727L642.042 407.589C646.085 409.918 650.645 411.12 655.225 411.12C657.469 411.12 659.709 410.818 661.973 410.231C668.695 408.422 674.507 404.007 677.977 397.95L709.94 342.573C717.211 329.988 712.912 313.878 700.299 306.609L676.155 292.658C676.955 286.434 678.106 280.335 678.106 273.885C678.106 267.479 676.955 261.318 676.155 255.09L700.299 241.163C706.397 237.674 710.774 231.914 712.543 225.195C714.368 218.436 713.429 211.257 709.94 205.201L677.977 149.85C673.102 141.407 664.242 136.667 655.178 136.667C650.694 136.667 646.19 137.799 642.042 140.194L617.977 154.055C607.917 146.371 597.151 139.545 585.327 134.596V107.485C585.327 92.9477 573.527 81.1443 559.017 81.1443H495.082C480.543 81.1443 468.741 92.9477 468.741 107.485V134.595C456.891 139.542 446.154 146.369 436.069 154.053L412.075 140.178ZM527.047 178.384C579.704 178.384 622.53 221.219 622.53 273.882C622.53 326.55 579.704 369.394 527.047 369.394C474.397 369.394 431.564 326.548 431.564 273.882C431.564 221.219 474.397 178.384 527.047 178.384Z" fill="#0D91C9"/>
<path d="M280.795 526.933V505.377C290.228 501.452 298.723 496.052 306.751 489.925L325.824 500.907C329.019 502.784 332.593 503.749 336.265 503.749C338.065 503.749 339.864 503.487 341.608 503.034C346.951 501.575 351.561 498.069 354.292 493.3L379.75 449.327C385.507 439.361 382.061 426.557 372.06 420.808L352.911 409.727C353.487 404.785 354.37 399.931 354.37 394.836C354.37 389.727 353.487 384.843 352.911 379.907L372.06 368.86C376.857 366.062 380.342 361.513 381.83 356.146C383.268 350.763 382.455 345.097 379.75 340.294L354.292 296.345C350.47 289.65 343.433 285.908 336.215 285.908C332.641 285.908 329.099 286.792 325.825 288.708L306.753 299.714C298.725 293.603 290.204 288.185 280.796 284.241V262.748C280.796 251.193 271.446 241.838 259.902 241.838H209.159C197.59 241.838 188.261 251.193 188.261 262.748V284.241C178.88 288.185 170.307 293.603 162.341 299.714L143.245 288.684C140.062 286.831 136.494 285.907 132.873 285.907C131.051 285.907 129.202 286.141 127.401 286.621C122.059 288.043 117.531 291.522 114.717 296.314L89.3125 340.293C83.602 350.292 86.9922 363.075 96.9707 368.858L116.145 379.905C115.574 384.841 114.683 389.725 114.683 394.834C114.683 399.928 115.575 404.783 116.145 409.708L96.9707 420.769C86.9922 426.525 83.602 439.331 89.3125 449.324L114.714 493.297C117.528 498.065 122.057 501.572 127.398 503.03C129.173 503.484 130.997 503.745 132.791 503.745C136.468 503.745 140.036 502.78 143.242 500.904L162.291 489.922C170.305 496.048 178.877 501.451 188.26 505.373V526.929C188.26 538.446 197.588 547.811 209.158 547.811H259.9C271.444 547.816 280.795 538.449 280.795 526.933ZM176.9 394.834C176.9 362.983 202.721 337.191 234.477 337.191C266.368 337.191 292.185 362.982 292.185 394.834C292.185 426.63 266.368 452.422 234.477 452.422C202.721 452.42 176.9 426.63 176.9 394.834Z" fill="#0D91C9"/>
</g>
<path d="M1195.73 357.455C1192.33 377.333 1185.76 394.212 1176 408.091C1166.3 421.97 1154.45 432.515 1140.45 439.727C1126.52 446.939 1111.48 450.545 1095.36 450.545C1078.45 450.545 1063.88 446.697 1051.64 439C1039.45 431.303 1030.64 420.182 1025.18 405.636C1019.73 391.03 1018.7 373.424 1022.09 352.818C1025.36 332.879 1031.88 315.97 1041.64 302.091C1051.39 288.152 1063.3 277.545 1077.36 270.273C1091.42 262.939 1106.55 259.273 1122.73 259.273C1139.52 259.273 1154 263.152 1166.18 270.909C1178.42 278.667 1187.24 289.879 1192.64 304.545C1198.09 319.152 1199.12 336.788 1195.73 357.455ZM1156.55 352.818C1158.67 340.03 1158.58 329.303 1156.27 320.636C1154.03 311.909 1149.91 305.303 1143.91 300.818C1137.91 296.333 1130.33 294.091 1121.18 294.091C1111.24 294.091 1102.12 296.576 1093.82 301.545C1085.58 306.515 1078.61 313.727 1072.91 323.182C1067.27 332.576 1063.36 344 1061.18 357.455C1059 370.303 1059.06 381.03 1061.36 389.636C1063.73 398.242 1067.94 404.758 1074 409.182C1080.12 413.545 1087.73 415.727 1096.82 415.727C1106.7 415.727 1115.73 413.303 1123.91 408.455C1132.15 403.545 1139.09 396.424 1144.73 387.091C1150.36 377.697 1154.3 366.273 1156.55 352.818ZM1332.61 315.909C1332.92 308.333 1330.7 302.485 1325.98 298.364C1321.31 294.242 1314.25 292.182 1304.8 292.182C1298.37 292.182 1292.8 293.091 1288.07 294.909C1283.34 296.667 1279.55 299.121 1276.7 302.273C1273.92 305.364 1272.19 308.939 1271.52 313C1270.86 316.333 1271.07 319.242 1272.16 321.727C1273.31 324.212 1275.1 326.364 1277.52 328.182C1280.01 329.939 1282.95 331.485 1286.34 332.818C1289.73 334.091 1293.34 335.182 1297.16 336.091L1313.16 340.091C1320.98 341.909 1328.01 344.333 1334.25 347.364C1340.55 350.394 1345.83 354.121 1350.07 358.545C1354.37 362.97 1357.4 368.182 1359.16 374.182C1360.92 380.182 1361.16 387.061 1359.89 394.818C1357.95 406.212 1353.43 416.091 1346.34 424.455C1339.25 432.758 1329.95 439.212 1318.43 443.818C1306.92 448.364 1293.58 450.636 1278.43 450.636C1263.4 450.636 1250.7 448.333 1240.34 443.727C1229.98 439.121 1222.43 432.303 1217.7 423.273C1213.04 414.182 1211.64 402.939 1213.52 389.545H1251.61C1250.95 395.788 1251.86 401 1254.34 405.182C1256.89 409.303 1260.67 412.424 1265.7 414.545C1270.73 416.606 1276.64 417.636 1283.43 417.636C1290.16 417.636 1296.13 416.667 1301.34 414.727C1306.61 412.788 1310.89 410.091 1314.16 406.636C1317.43 403.182 1319.43 399.212 1320.16 394.727C1320.89 390.545 1320.25 387.03 1318.25 384.182C1316.25 381.333 1313.04 378.909 1308.61 376.909C1304.25 374.848 1298.83 373.03 1292.34 371.455L1272.89 366.364C1257.86 362.545 1246.49 356.576 1238.8 348.455C1231.1 340.333 1228.34 329.394 1230.52 315.636C1232.46 304.364 1237.16 294.515 1244.61 286.091C1252.13 277.606 1261.58 271.03 1272.98 266.364C1284.43 261.636 1296.95 259.273 1310.52 259.273C1324.34 259.273 1336.01 261.667 1345.52 266.455C1355.04 271.182 1361.98 277.788 1366.34 286.273C1370.7 294.758 1372.04 304.636 1370.34 315.909H1332.61ZM1490.27 253.091L1393.55 476H1360.18L1456.91 253.091H1490.27ZM1588.11 261.818L1557.2 448H1517.84L1542.57 299.182H1541.48L1494.39 325.909L1500.2 291L1551.11 261.818H1588.11ZM1674.45 450.545C1664.64 450.545 1655.42 448.879 1646.82 445.545C1638.27 442.212 1631 436.909 1625 429.636C1619 422.303 1614.91 412.667 1612.73 400.727C1610.55 388.788 1610.91 374.212 1613.82 357C1616.36 341.606 1620.36 327.879 1625.82 315.818C1631.33 303.697 1638 293.455 1645.82 285.091C1653.64 276.667 1662.45 270.273 1672.27 265.909C1682.15 261.485 1692.73 259.273 1704 259.273C1716.42 259.273 1727.09 261.667 1736 266.455C1744.91 271.182 1751.7 277.667 1756.36 285.909C1761.03 294.091 1763.12 303.333 1762.64 313.636H1724.64C1724.52 306.97 1722.39 301.879 1718.27 298.364C1714.21 294.788 1708.73 293 1701.82 293C1689.45 293 1679 298.364 1670.45 309.091C1661.91 319.818 1656 334.424 1652.73 352.909L1654.18 350.818C1657.88 345.364 1662.33 340.758 1667.55 337C1672.82 333.242 1678.55 330.394 1684.73 328.455C1690.97 326.515 1697.39 325.545 1704 325.545C1715.27 325.545 1724.91 328.242 1732.91 333.636C1740.91 338.97 1746.67 346.333 1750.18 355.727C1753.76 365.121 1754.55 375.788 1752.55 387.727C1750.48 400.03 1745.85 410.909 1738.64 420.364C1731.42 429.818 1722.27 437.242 1711.18 442.636C1700.15 447.97 1687.91 450.606 1674.45 450.545ZM1675.82 419.636C1682.18 419.636 1688.15 418.091 1693.73 415C1699.3 411.909 1703.97 407.727 1707.73 402.455C1711.55 397.121 1713.94 391.152 1714.91 384.545C1715.88 378.788 1715.45 373.606 1713.64 369C1711.88 364.394 1709 360.758 1705 358.091C1701 355.364 1696.09 354 1690.27 354C1685.55 354 1680.97 354.909 1676.55 356.727C1672.18 358.545 1668.21 361.061 1664.64 364.273C1661.06 367.485 1658.06 371.212 1655.64 375.455C1653.21 379.636 1651.64 384.121 1650.91 388.909C1650 394.727 1650.42 399.97 1652.18 404.636C1654 409.242 1656.94 412.909 1661 415.636C1665.06 418.303 1670 419.636 1675.82 419.636ZM1882.36 261.818L1851.45 448H1812.09L1836.82 299.182H1835.73L1788.64 325.909L1794.45 291L1845.36 261.818H1882.36Z" fill="#0012B5"/>
<defs>
<clipPath id="clip0_0_1">
<rect width="800" height="800" fill="white"/>
</clipPath>
</defs>
</svg>
