<svg width="1085" height="1085" viewBox="0 0 1085 1085" fill="none" xmlns="http://www.w3.org/2000/svg">
<circle cx="542.5" cy="542.5" r="523.5" stroke="white" stroke-width="38"/>
<path d="M536.927 409.321C523.576 409.567 512.292 420.941 512.528 433.916C512.773 447.367 523.841 457.89 537.571 457.726C551.335 457.559 561.777 446.926 561.646 433.189C561.532 419.707 550.513 409.072 536.927 409.321ZM406.976 434.289C407.474 421.363 396.274 409.721 382.97 409.33C369.35 408.93 358.147 419.339 357.749 432.762C357.347 446.365 367.752 457.264 381.471 457.612C395.071 457.959 406.473 447.534 406.976 434.289ZM656.048 456.309C601.931 459.137 554.871 475.542 516.664 512.607C478.061 550.056 460.439 595.941 465.256 652.827C444.103 650.204 424.836 647.321 405.46 645.692C398.768 645.126 390.827 645.928 385.158 649.125C366.343 659.742 348.306 671.728 326.927 685.094C330.85 667.35 333.389 651.813 337.884 636.871C341.189 625.887 339.659 619.777 329.54 612.621C264.575 566.756 237.19 498.114 257.684 427.443C276.644 362.066 323.206 322.417 386.473 301.749C472.826 273.542 569.872 302.315 622.383 370.875C641.348 395.64 652.976 423.435 656.048 456.309Z" fill="white"/>
<path d="M708.317 564.553C697.732 564.48 688.737 573.146 688.305 583.841C687.845 595.277 696.738 604.669 708.054 604.698C719.003 604.733 727.652 596.454 728.054 585.561C728.477 574.096 719.583 564.631 708.317 564.553ZM582.567 604.835C593.48 604.847 602.461 596.309 602.872 585.535C603.31 574.126 594.133 564.559 582.712 564.509C571.402 564.456 561.925 574.163 562.319 585.398C562.692 596.137 571.737 604.823 582.567 604.835ZM777.636 793.698C760.498 786.069 744.778 774.619 728.046 772.873C711.372 771.13 693.844 780.75 676.403 782.534C623.275 787.967 575.673 773.162 536.425 736.867C461.778 667.822 472.444 561.961 558.806 505.378C635.561 455.094 748.13 471.857 802.247 541.632C849.47 602.515 843.92 683.336 786.27 734.486C769.587 749.288 763.582 761.473 774.286 780.983C776.263 784.586 776.487 789.148 777.636 793.698Z" fill="white"/>
</svg>
